<?xml version="1.0" encoding="utf-8" standalone="no"?>
<!DOCTYPE svg PUBLIC "-//W3C//DTD SVG 1.1//EN"
  "http://www.w3.org/Graphics/SVG/1.1/DTD/svg11.dtd">
<svg xmlns:xlink="http://www.w3.org/1999/xlink" width="872.39952pt" height="353.99952pt" viewBox="0 0 872.39952 353.99952" xmlns="http://www.w3.org/2000/svg" version="1.1">
 <metadata>
  <rdf:RDF xmlns:dc="http://purl.org/dc/elements/1.1/" xmlns:cc="http://creativecommons.org/ns#" xmlns:rdf="http://www.w3.org/1999/02/22-rdf-syntax-ns#">
   <cc:Work>
    <dc:type rdf:resource="http://purl.org/dc/dcmitype/StillImage"/>
    <dc:date>2026-05-25T00:57:24.266156</dc:date>
    <dc:format>image/svg+xml</dc:format>
    <dc:creator>
     <cc:Agent>
      <dc:title>Matplotlib v3.10.9, https://matplotlib.org/</dc:title>
     </cc:Agent>
    </dc:creator>
   </cc:Work>
  </rdf:RDF>
 </metadata>
 <defs>
  <style type="text/css">*{stroke-linejoin: round; stroke-linecap: butt}</style>
 </defs>
 <g id="figure_1">
  <g id="patch_1">
   <path d="M 0 353.99952 
L 872.39952 353.99952 
L 872.39952 0 
L 0 0 
z
" style="fill: #ffffff"/>
  </g>
  <g id="axes_1">
   <g id="patch_2">
    <path d="M 37.090313 319.346707 
L 430.60851 319.346707 
L 430.60851 21.558281 
L 37.090313 21.558281 
z
" style="fill: #ffffff"/>
   </g>
   <g id="matplotlib.axis_1">
    <g id="xtick_1">
     <g id="line2d_1">
      <path d="M 54.977503 319.346707 
L 54.977503 21.558281 
" clip-path="url(#pf6804c7a1c)" style="fill: none; stroke: #b0b0b0; stroke-opacity: 0.25; stroke-width: 0.8; stroke-linecap: square"/>
     </g>
     <g id="line2d_2">
      <defs>
       <path id="mc9a44736c7" d="M 0 0 
L 0 3.5 
" style="stroke: #000000; stroke-width: 0.8"/>
      </defs>
      <g>
       <use xlink:href="#mc9a44736c7" x="54.977503" y="319.346707" style="stroke: #000000; stroke-width: 0.8"/>
      </g>
     </g>
     <g id="text_1">
      <!-- 1 -->
      <g transform="translate(52.432503 332.425457) scale(0.08 -0.08)">
       <defs>
        <path id="DejaVuSans-31" d="M 794 531 
L 1825 531 
L 1825 4091 
L 703 3866 
L 703 4441 
L 1819 4666 
L 2450 4666 
L 2450 531 
L 3481 531 
L 3481 0 
L 794 0 
L 794 531 
z
" transform="scale(0.015625)"/>
       </defs>
       <use xlink:href="#DejaVuSans-31"/>
      </g>
     </g>
    </g>
    <g id="xtick_2">
     <g id="line2d_3">
      <path d="M 174.225442 319.346707 
L 174.225442 21.558281 
" clip-path="url(#pf6804c7a1c)" style="fill: none; stroke: #b0b0b0; stroke-opacity: 0.25; stroke-width: 0.8; stroke-linecap: square"/>
     </g>
     <g id="line2d_4">
      <g>
       <use xlink:href="#mc9a44736c7" x="174.225442" y="319.346707" style="stroke: #000000; stroke-width: 0.8"/>
      </g>
     </g>
     <g id="text_2">
      <!-- 4 -->
      <g transform="translate(171.680442 332.425457) scale(0.08 -0.08)">
       <defs>
        <path id="DejaVuSans-34" d="M 2419 4116 
L 825 1625 
L 2419 1625 
L 2419 4116 
z
M 2253 4666 
L 3047 4666 
L 3047 1625 
L 3713 1625 
L 3713 1100 
L 3047 1100 
L 3047 0 
L 2419 0 
L 2419 1100 
L 313 1100 
L 313 1709 
L 2253 4666 
z
" transform="scale(0.015625)"/>
       </defs>
       <use xlink:href="#DejaVuSans-34"/>
      </g>
     </g>
    </g>
    <g id="xtick_3">
     <g id="line2d_5">
      <path d="M 333.222693 319.346707 
L 333.222693 21.558281 
" clip-path="url(#pf6804c7a1c)" style="fill: none; stroke: #b0b0b0; stroke-opacity: 0.25; stroke-width: 0.8; stroke-linecap: square"/>
     </g>
     <g id="line2d_6">
      <g>
       <use xlink:href="#mc9a44736c7" x="333.222693" y="319.346707" style="stroke: #000000; stroke-width: 0.8"/>
      </g>
     </g>
     <g id="text_3">
      <!-- 8 -->
      <g transform="translate(330.677693 332.425457) scale(0.08 -0.08)">
       <defs>
        <path id="DejaVuSans-38" d="M 2034 2216 
Q 1584 2216 1326 1975 
Q 1069 1734 1069 1313 
Q 1069 891 1326 650 
Q 1584 409 2034 409 
Q 2484 409 2743 651 
Q 3003 894 3003 1313 
Q 3003 1734 2745 1975 
Q 2488 2216 2034 2216 
z
M 1403 2484 
Q 997 2584 770 2862 
Q 544 3141 544 3541 
Q 544 4100 942 4425 
Q 1341 4750 2034 4750 
Q 2731 4750 3128 4425 
Q 3525 4100 3525 3541 
Q 3525 3141 3298 2862 
Q 3072 2584 2669 2484 
Q 3125 2378 3379 2068 
Q 3634 1759 3634 1313 
Q 3634 634 3220 271 
Q 2806 -91 2034 -91 
Q 1263 -91 848 271 
Q 434 634 434 1313 
Q 434 1759 690 2068 
Q 947 2378 1403 2484 
z
M 1172 3481 
Q 1172 3119 1398 2916 
Q 1625 2713 2034 2713 
Q 2441 2713 2670 2916 
Q 2900 3119 2900 3481 
Q 2900 3844 2670 4047 
Q 2441 4250 2034 4250 
Q 1625 4250 1398 4047 
Q 1172 3844 1172 3481 
z
" transform="scale(0.015625)"/>
       </defs>
       <use xlink:href="#DejaVuSans-38"/>
      </g>
     </g>
    </g>
    <g id="xtick_4">
     <g id="line2d_7">
      <path d="M 412.721319 319.346707 
L 412.721319 21.558281 
" clip-path="url(#pf6804c7a1c)" style="fill: none; stroke: #b0b0b0; stroke-opacity: 0.25; stroke-width: 0.8; stroke-linecap: square"/>
     </g>
     <g id="line2d_8">
      <g>
       <use xlink:href="#mc9a44736c7" x="412.721319" y="319.346707" style="stroke: #000000; stroke-width: 0.8"/>
      </g>
     </g>
     <g id="text_4">
      <!-- 10 -->
      <g transform="translate(407.631319 332.425457) scale(0.08 -0.08)">
       <defs>
        <path id="DejaVuSans-30" d="M 2034 4250 
Q 1547 4250 1301 3770 
Q 1056 3291 1056 2328 
Q 1056 1369 1301 889 
Q 1547 409 2034 409 
Q 2525 409 2770 889 
Q 3016 1369 3016 2328 
Q 3016 3291 2770 3770 
Q 2525 4250 2034 4250 
z
M 2034 4750 
Q 2819 4750 3233 4129 
Q 3647 3509 3647 2328 
Q 3647 1150 3233 529 
Q 2819 -91 2034 -91 
Q 1250 -91 836 529 
Q 422 1150 422 2328 
Q 422 3509 836 4129 
Q 1250 4750 2034 4750 
z
" transform="scale(0.015625)"/>
       </defs>
       <use xlink:href="#DejaVuSans-31"/>
       <use xlink:href="#DejaVuSans-30" transform="translate(63.623047 0)"/>
      </g>
     </g>
    </g>
    <g id="text_5">
     <!-- threads -->
     <g transform="translate(216.757146 344.927801) scale(0.09 -0.09)">
      <defs>
       <path id="DejaVuSans-74" d="M 1172 4494 
L 1172 3500 
L 2356 3500 
L 2356 3053 
L 1172 3053 
L 1172 1153 
Q 1172 725 1289 603 
Q 1406 481 1766 481 
L 2356 481 
L 2356 0 
L 1766 0 
Q 1100 0 847 248 
Q 594 497 594 1153 
L 594 3053 
L 172 3053 
L 172 3500 
L 594 3500 
L 594 4494 
L 1172 4494 
z
" transform="scale(0.015625)"/>
       <path id="DejaVuSans-68" d="M 3513 2113 
L 3513 0 
L 2938 0 
L 2938 2094 
Q 2938 2591 2744 2837 
Q 2550 3084 2163 3084 
Q 1697 3084 1428 2787 
Q 1159 2491 1159 1978 
L 1159 0 
L 581 0 
L 581 4863 
L 1159 4863 
L 1159 2956 
Q 1366 3272 1645 3428 
Q 1925 3584 2291 3584 
Q 2894 3584 3203 3211 
Q 3513 2838 3513 2113 
z
" transform="scale(0.015625)"/>
       <path id="DejaVuSans-72" d="M 2631 2963 
Q 2534 3019 2420 3045 
Q 2306 3072 2169 3072 
Q 1681 3072 1420 2755 
Q 1159 2438 1159 1844 
L 1159 0 
L 581 0 
L 581 3500 
L 1159 3500 
L 1159 2956 
Q 1341 3275 1631 3429 
Q 1922 3584 2338 3584 
Q 2397 3584 2469 3576 
Q 2541 3569 2628 3553 
L 2631 2963 
z
" transform="scale(0.015625)"/>
       <path id="DejaVuSans-65" d="M 3597 1894 
L 3597 1613 
L 953 1613 
Q 991 1019 1311 708 
Q 1631 397 2203 397 
Q 2534 397 2845 478 
Q 3156 559 3463 722 
L 3463 178 
Q 3153 47 2828 -22 
Q 2503 -91 2169 -91 
Q 1331 -91 842 396 
Q 353 884 353 1716 
Q 353 2575 817 3079 
Q 1281 3584 2069 3584 
Q 2775 3584 3186 3129 
Q 3597 2675 3597 1894 
z
M 3022 2063 
Q 3016 2534 2758 2815 
Q 2500 3097 2075 3097 
Q 1594 3097 1305 2825 
Q 1016 2553 972 2059 
L 3022 2063 
z
" transform="scale(0.015625)"/>
       <path id="DejaVuSans-61" d="M 2194 1759 
Q 1497 1759 1228 1600 
Q 959 1441 959 1056 
Q 959 750 1161 570 
Q 1363 391 1709 391 
Q 2188 391 2477 730 
Q 2766 1069 2766 1631 
L 2766 1759 
L 2194 1759 
z
M 3341 1997 
L 3341 0 
L 2766 0 
L 2766 531 
Q 2569 213 2275 61 
Q 1981 -91 1556 -91 
Q 1019 -91 701 211 
Q 384 513 384 1019 
Q 384 1609 779 1909 
Q 1175 2209 1959 2209 
L 2766 2209 
L 2766 2266 
Q 2766 2663 2505 2880 
Q 2244 3097 1772 3097 
Q 1472 3097 1187 3025 
Q 903 2953 641 2809 
L 641 3341 
Q 956 3463 1253 3523 
Q 1550 3584 1831 3584 
Q 2591 3584 2966 3190 
Q 3341 2797 3341 1997 
z
" transform="scale(0.015625)"/>
       <path id="DejaVuSans-64" d="M 2906 2969 
L 2906 4863 
L 3481 4863 
L 3481 0 
L 2906 0 
L 2906 525 
Q 2725 213 2448 61 
Q 2172 -91 1784 -91 
Q 1150 -91 751 415 
Q 353 922 353 1747 
Q 353 2572 751 3078 
Q 1150 3584 1784 3584 
Q 2172 3584 2448 3432 
Q 2725 3281 2906 2969 
z
M 947 1747 
Q 947 1113 1208 752 
Q 1469 391 1925 391 
Q 2381 391 2643 752 
Q 2906 1113 2906 1747 
Q 2906 2381 2643 2742 
Q 2381 3103 1925 3103 
Q 1469 3103 1208 2742 
Q 947 2381 947 1747 
z
" transform="scale(0.015625)"/>
       <path id="DejaVuSans-73" d="M 2834 3397 
L 2834 2853 
Q 2591 2978 2328 3040 
Q 2066 3103 1784 3103 
Q 1356 3103 1142 2972 
Q 928 2841 928 2578 
Q 928 2378 1081 2264 
Q 1234 2150 1697 2047 
L 1894 2003 
Q 2506 1872 2764 1633 
Q 3022 1394 3022 966 
Q 3022 478 2636 193 
Q 2250 -91 1575 -91 
Q 1294 -91 989 -36 
Q 684 19 347 128 
L 347 722 
Q 666 556 975 473 
Q 1284 391 1588 391 
Q 1994 391 2212 530 
Q 2431 669 2431 922 
Q 2431 1156 2273 1281 
Q 2116 1406 1581 1522 
L 1381 1569 
Q 847 1681 609 1914 
Q 372 2147 372 2553 
Q 372 3047 722 3315 
Q 1072 3584 1716 3584 
Q 2034 3584 2315 3537 
Q 2597 3491 2834 3397 
z
" transform="scale(0.015625)"/>
      </defs>
      <use xlink:href="#DejaVuSans-74"/>
      <use xlink:href="#DejaVuSans-68" transform="translate(39.208984 0)"/>
      <use xlink:href="#DejaVuSans-72" transform="translate(102.587891 0)"/>
      <use xlink:href="#DejaVuSans-65" transform="translate(141.451172 0)"/>
      <use xlink:href="#DejaVuSans-61" transform="translate(202.974609 0)"/>
      <use xlink:href="#DejaVuSans-64" transform="translate(264.253906 0)"/>
      <use xlink:href="#DejaVuSans-73" transform="translate(327.730469 0)"/>
     </g>
    </g>
   </g>
   <g id="matplotlib.axis_2">
    <g id="ytick_1">
     <g id="line2d_9">
      <path d="M 37.090313 275.731231 
L 430.60851 275.731231 
" clip-path="url(#pf6804c7a1c)" style="fill: none; stroke: #b0b0b0; stroke-opacity: 0.25; stroke-width: 0.8; stroke-linecap: square"/>
     </g>
     <g id="line2d_10">
      <defs>
       <path id="m6a093ae62f" d="M 0 0 
L -3.5 0 
" style="stroke: #000000; stroke-width: 0.8"/>
      </defs>
      <g>
       <use xlink:href="#m6a093ae62f" x="37.090313" y="275.731231" style="stroke: #000000; stroke-width: 0.8"/>
      </g>
     </g>
     <g id="text_6">
      <!-- 2 -->
      <g transform="translate(25.000313 278.770606) scale(0.08 -0.08)">
       <defs>
        <path id="DejaVuSans-32" d="M 1228 531 
L 3431 531 
L 3431 0 
L 469 0 
L 469 531 
Q 828 903 1448 1529 
Q 2069 2156 2228 2338 
Q 2531 2678 2651 2914 
Q 2772 3150 2772 3378 
Q 2772 3750 2511 3984 
Q 2250 4219 1831 4219 
Q 1534 4219 1204 4116 
Q 875 4013 500 3803 
L 500 4441 
Q 881 4594 1212 4672 
Q 1544 4750 1819 4750 
Q 2544 4750 2975 4387 
Q 3406 4025 3406 3419 
Q 3406 3131 3298 2873 
Q 3191 2616 2906 2266 
Q 2828 2175 2409 1742 
Q 1991 1309 1228 531 
z
" transform="scale(0.015625)"/>
       </defs>
       <use xlink:href="#DejaVuSans-32"/>
      </g>
     </g>
    </g>
    <g id="ytick_2">
     <g id="line2d_11">
      <path d="M 37.090313 215.571953 
L 430.60851 215.571953 
" clip-path="url(#pf6804c7a1c)" style="fill: none; stroke: #b0b0b0; stroke-opacity: 0.25; stroke-width: 0.8; stroke-linecap: square"/>
     </g>
     <g id="line2d_12">
      <g>
       <use xlink:href="#m6a093ae62f" x="37.090313" y="215.571953" style="stroke: #000000; stroke-width: 0.8"/>
      </g>
     </g>
     <g id="text_7">
      <!-- 4 -->
      <g transform="translate(25.000313 218.611328) scale(0.08 -0.08)">
       <use xlink:href="#DejaVuSans-34"/>
      </g>
     </g>
    </g>
    <g id="ytick_3">
     <g id="line2d_13">
      <path d="M 37.090313 155.412675 
L 430.60851 155.412675 
" clip-path="url(#pf6804c7a1c)" style="fill: none; stroke: #b0b0b0; stroke-opacity: 0.25; stroke-width: 0.8; stroke-linecap: square"/>
     </g>
     <g id="line2d_14">
      <g>
       <use xlink:href="#m6a093ae62f" x="37.090313" y="155.412675" style="stroke: #000000; stroke-width: 0.8"/>
      </g>
     </g>
     <g id="text_8">
      <!-- 6 -->
      <g transform="translate(25.000313 158.45205) scale(0.08 -0.08)">
       <defs>
        <path id="DejaVuSans-36" d="M 2113 2584 
Q 1688 2584 1439 2293 
Q 1191 2003 1191 1497 
Q 1191 994 1439 701 
Q 1688 409 2113 409 
Q 2538 409 2786 701 
Q 3034 994 3034 1497 
Q 3034 2003 2786 2293 
Q 2538 2584 2113 2584 
z
M 3366 4563 
L 3366 3988 
Q 3128 4100 2886 4159 
Q 2644 4219 2406 4219 
Q 1781 4219 1451 3797 
Q 1122 3375 1075 2522 
Q 1259 2794 1537 2939 
Q 1816 3084 2150 3084 
Q 2853 3084 3261 2657 
Q 3669 2231 3669 1497 
Q 3669 778 3244 343 
Q 2819 -91 2113 -91 
Q 1303 -91 875 529 
Q 447 1150 447 2328 
Q 447 3434 972 4092 
Q 1497 4750 2381 4750 
Q 2619 4750 2861 4703 
Q 3103 4656 3366 4563 
z
" transform="scale(0.015625)"/>
       </defs>
       <use xlink:href="#DejaVuSans-36"/>
      </g>
     </g>
    </g>
    <g id="ytick_4">
     <g id="line2d_15">
      <path d="M 37.090313 95.253397 
L 430.60851 95.253397 
" clip-path="url(#pf6804c7a1c)" style="fill: none; stroke: #b0b0b0; stroke-opacity: 0.25; stroke-width: 0.8; stroke-linecap: square"/>
     </g>
     <g id="line2d_16">
      <g>
       <use xlink:href="#m6a093ae62f" x="37.090313" y="95.253397" style="stroke: #000000; stroke-width: 0.8"/>
      </g>
     </g>
     <g id="text_9">
      <!-- 8 -->
      <g transform="translate(25.000313 98.292772) scale(0.08 -0.08)">
       <use xlink:href="#DejaVuSans-38"/>
      </g>
     </g>
    </g>
    <g id="ytick_5">
     <g id="line2d_17">
      <path d="M 37.090313 35.094119 
L 430.60851 35.094119 
" clip-path="url(#pf6804c7a1c)" style="fill: none; stroke: #b0b0b0; stroke-opacity: 0.25; stroke-width: 0.8; stroke-linecap: square"/>
     </g>
     <g id="line2d_18">
      <g>
       <use xlink:href="#m6a093ae62f" x="37.090313" y="35.094119" style="stroke: #000000; stroke-width: 0.8"/>
      </g>
     </g>
     <g id="text_10">
      <!-- 10 -->
      <g transform="translate(19.910313 38.133494) scale(0.08 -0.08)">
       <use xlink:href="#DejaVuSans-31"/>
       <use xlink:href="#DejaVuSans-30" transform="translate(63.623047 0)"/>
      </g>
     </g>
    </g>
    <g id="text_11">
     <!-- speedup vs 1 thread (median runtime) -->
     <g transform="translate(14.038594 257.626635) rotate(-90) scale(0.09 -0.09)">
      <defs>
       <path id="DejaVuSans-70" d="M 1159 525 
L 1159 -1331 
L 581 -1331 
L 581 3500 
L 1159 3500 
L 1159 2969 
Q 1341 3281 1617 3432 
Q 1894 3584 2278 3584 
Q 2916 3584 3314 3078 
Q 3713 2572 3713 1747 
Q 3713 922 3314 415 
Q 2916 -91 2278 -91 
Q 1894 -91 1617 61 
Q 1341 213 1159 525 
z
M 3116 1747 
Q 3116 2381 2855 2742 
Q 2594 3103 2138 3103 
Q 1681 3103 1420 2742 
Q 1159 2381 1159 1747 
Q 1159 1113 1420 752 
Q 1681 391 2138 391 
Q 2594 391 2855 752 
Q 3116 1113 3116 1747 
z
" transform="scale(0.015625)"/>
       <path id="DejaVuSans-75" d="M 544 1381 
L 544 3500 
L 1119 3500 
L 1119 1403 
Q 1119 906 1312 657 
Q 1506 409 1894 409 
Q 2359 409 2629 706 
Q 2900 1003 2900 1516 
L 2900 3500 
L 3475 3500 
L 3475 0 
L 2900 0 
L 2900 538 
Q 2691 219 2414 64 
Q 2138 -91 1772 -91 
Q 1169 -91 856 284 
Q 544 659 544 1381 
z
M 1991 3584 
L 1991 3584 
z
" transform="scale(0.015625)"/>
       <path id="DejaVuSans-20" transform="scale(0.015625)"/>
       <path id="DejaVuSans-76" d="M 191 3500 
L 800 3500 
L 1894 563 
L 2988 3500 
L 3597 3500 
L 2284 0 
L 1503 0 
L 191 3500 
z
" transform="scale(0.015625)"/>
       <path id="DejaVuSans-28" d="M 1984 4856 
Q 1566 4138 1362 3434 
Q 1159 2731 1159 2009 
Q 1159 1288 1364 580 
Q 1569 -128 1984 -844 
L 1484 -844 
Q 1016 -109 783 600 
Q 550 1309 550 2009 
Q 550 2706 781 3412 
Q 1013 4119 1484 4856 
L 1984 4856 
z
" transform="scale(0.015625)"/>
       <path id="DejaVuSans-6d" d="M 3328 2828 
Q 3544 3216 3844 3400 
Q 4144 3584 4550 3584 
Q 5097 3584 5394 3201 
Q 5691 2819 5691 2113 
L 5691 0 
L 5113 0 
L 5113 2094 
Q 5113 2597 4934 2840 
Q 4756 3084 4391 3084 
Q 3944 3084 3684 2787 
Q 3425 2491 3425 1978 
L 3425 0 
L 2847 0 
L 2847 2094 
Q 2847 2600 2669 2842 
Q 2491 3084 2119 3084 
Q 1678 3084 1418 2786 
Q 1159 2488 1159 1978 
L 1159 0 
L 581 0 
L 581 3500 
L 1159 3500 
L 1159 2956 
Q 1356 3278 1631 3431 
Q 1906 3584 2284 3584 
Q 2666 3584 2933 3390 
Q 3200 3197 3328 2828 
z
" transform="scale(0.015625)"/>
       <path id="DejaVuSans-69" d="M 603 3500 
L 1178 3500 
L 1178 0 
L 603 0 
L 603 3500 
z
M 603 4863 
L 1178 4863 
L 1178 4134 
L 603 4134 
L 603 4863 
z
" transform="scale(0.015625)"/>
       <path id="DejaVuSans-6e" d="M 3513 2113 
L 3513 0 
L 2938 0 
L 2938 2094 
Q 2938 2591 2744 2837 
Q 2550 3084 2163 3084 
Q 1697 3084 1428 2787 
Q 1159 2491 1159 1978 
L 1159 0 
L 581 0 
L 581 3500 
L 1159 3500 
L 1159 2956 
Q 1366 3272 1645 3428 
Q 1925 3584 2291 3584 
Q 2894 3584 3203 3211 
Q 3513 2838 3513 2113 
z
" transform="scale(0.015625)"/>
       <path id="DejaVuSans-29" d="M 513 4856 
L 1013 4856 
Q 1481 4119 1714 3412 
Q 1947 2706 1947 2009 
Q 1947 1309 1714 600 
Q 1481 -109 1013 -844 
L 513 -844 
Q 928 -128 1133 580 
Q 1338 1288 1338 2009 
Q 1338 2731 1133 3434 
Q 928 4138 513 4856 
z
" transform="scale(0.015625)"/>
      </defs>
      <use xlink:href="#DejaVuSans-73"/>
      <use xlink:href="#DejaVuSans-70" transform="translate(52.099609 0)"/>
      <use xlink:href="#DejaVuSans-65" transform="translate(115.576172 0)"/>
      <use xlink:href="#DejaVuSans-65" transform="translate(177.099609 0)"/>
      <use xlink:href="#DejaVuSans-64" transform="translate(238.623047 0)"/>
      <use xlink:href="#DejaVuSans-75" transform="translate(302.099609 0)"/>
      <use xlink:href="#DejaVuSans-70" transform="translate(365.478516 0)"/>
      <use xlink:href="#DejaVuSans-20" transform="translate(428.955078 0)"/>
      <use xlink:href="#DejaVuSans-76" transform="translate(460.742188 0)"/>
      <use xlink:href="#DejaVuSans-73" transform="translate(519.921875 0)"/>
      <use xlink:href="#DejaVuSans-20" transform="translate(572.021484 0)"/>
      <use xlink:href="#DejaVuSans-31" transform="translate(603.808594 0)"/>
      <use xlink:href="#DejaVuSans-20" transform="translate(667.431641 0)"/>
      <use xlink:href="#DejaVuSans-74" transform="translate(699.21875 0)"/>
      <use xlink:href="#DejaVuSans-68" transform="translate(738.427734 0)"/>
      <use xlink:href="#DejaVuSans-72" transform="translate(801.806641 0)"/>
      <use xlink:href="#DejaVuSans-65" transform="translate(840.669922 0)"/>
      <use xlink:href="#DejaVuSans-61" transform="translate(902.193359 0)"/>
      <use xlink:href="#DejaVuSans-64" transform="translate(963.472656 0)"/>
      <use xlink:href="#DejaVuSans-20" transform="translate(1026.949219 0)"/>
      <use xlink:href="#DejaVuSans-28" transform="translate(1058.736328 0)"/>
      <use xlink:href="#DejaVuSans-6d" transform="translate(1097.75 0)"/>
      <use xlink:href="#DejaVuSans-65" transform="translate(1195.162109 0)"/>
      <use xlink:href="#DejaVuSans-64" transform="translate(1256.685547 0)"/>
      <use xlink:href="#DejaVuSans-69" transform="translate(1320.162109 0)"/>
      <use xlink:href="#DejaVuSans-61" transform="translate(1347.945312 0)"/>
      <use xlink:href="#DejaVuSans-6e" transform="translate(1409.224609 0)"/>
      <use xlink:href="#DejaVuSans-20" transform="translate(1472.603516 0)"/>
      <use xlink:href="#DejaVuSans-72" transform="translate(1504.390625 0)"/>
      <use xlink:href="#DejaVuSans-75" transform="translate(1545.503906 0)"/>
      <use xlink:href="#DejaVuSans-6e" transform="translate(1608.882812 0)"/>
      <use xlink:href="#DejaVuSans-74" transform="translate(1672.261719 0)"/>
      <use xlink:href="#DejaVuSans-69" transform="translate(1711.470703 0)"/>
      <use xlink:href="#DejaVuSans-6d" transform="translate(1739.253906 0)"/>
      <use xlink:href="#DejaVuSans-65" transform="translate(1836.666016 0)"/>
      <use xlink:href="#DejaVuSans-29" transform="translate(1898.189453 0)"/>
     </g>
    </g>
   </g>
   <g id="line2d_19">
    <path d="M 54.977503 305.81087 
L 174.225442 221.078216 
L 333.222693 157.522975 
L 412.721319 131.555562 
" clip-path="url(#pf6804c7a1c)" style="fill: none; stroke: #f39c12; stroke-width: 1.8; stroke-linecap: square"/>
    <defs>
     <path id="m9f18cfc63a" d="M 0 3 
C 0.795609 3 1.55874 2.683901 2.12132 2.12132 
C 2.683901 1.55874 3 0.795609 3 0 
C 3 -0.795609 2.683901 -1.55874 2.12132 -2.12132 
C 1.55874 -2.683901 0.795609 -3 0 -3 
C -0.795609 -3 -1.55874 -2.683901 -2.12132 -2.12132 
C -2.683901 -1.55874 -3 -0.795609 -3 0 
C -3 0.795609 -2.683901 1.55874 -2.12132 2.12132 
C -1.55874 2.683901 -0.795609 3 0 3 
z
" style="stroke: #f39c12"/>
    </defs>
    <g clip-path="url(#pf6804c7a1c)">
     <use xlink:href="#m9f18cfc63a" x="54.977503" y="305.81087" style="fill: #f39c12; stroke: #f39c12"/>
     <use xlink:href="#m9f18cfc63a" x="174.225442" y="221.078216" style="fill: #f39c12; stroke: #f39c12"/>
     <use xlink:href="#m9f18cfc63a" x="333.222693" y="157.522975" style="fill: #f39c12; stroke: #f39c12"/>
     <use xlink:href="#m9f18cfc63a" x="412.721319" y="131.555562" style="fill: #f39c12; stroke: #f39c12"/>
    </g>
   </g>
   <g id="line2d_20">
    <path d="M 54.977503 305.81087 
L 174.225442 223.05293 
L 333.222693 160.274235 
L 412.721319 133.361794 
" clip-path="url(#pf6804c7a1c)" style="fill: none; stroke: #f6c85f; stroke-width: 1.8; stroke-linecap: square"/>
    <defs>
     <path id="m83a701941f" d="M 0 3 
C 0.795609 3 1.55874 2.683901 2.12132 2.12132 
C 2.683901 1.55874 3 0.795609 3 0 
C 3 -0.795609 2.683901 -1.55874 2.12132 -2.12132 
C 1.55874 -2.683901 0.795609 -3 0 -3 
C -0.795609 -3 -1.55874 -2.683901 -2.12132 -2.12132 
C -2.683901 -1.55874 -3 -0.795609 -3 0 
C -3 0.795609 -2.683901 1.55874 -2.12132 2.12132 
C -1.55874 2.683901 -0.795609 3 0 3 
z
" style="stroke: #f6c85f"/>
    </defs>
    <g clip-path="url(#pf6804c7a1c)">
     <use xlink:href="#m83a701941f" x="54.977503" y="305.81087" style="fill: #f6c85f; stroke: #f6c85f"/>
     <use xlink:href="#m83a701941f" x="174.225442" y="223.05293" style="fill: #f6c85f; stroke: #f6c85f"/>
     <use xlink:href="#m83a701941f" x="333.222693" y="160.274235" style="fill: #f6c85f; stroke: #f6c85f"/>
     <use xlink:href="#m83a701941f" x="412.721319" y="133.361794" style="fill: #f6c85f; stroke: #f6c85f"/>
    </g>
   </g>
   <g id="line2d_21">
    <path d="M 54.977503 305.81087 
L 174.225442 217.852093 
L 333.222693 154.998041 
L 412.721319 129.790755 
" clip-path="url(#pf6804c7a1c)" style="fill: none; stroke: #e67e22; stroke-width: 1.8; stroke-linecap: square"/>
    <defs>
     <path id="mf0aada7c26" d="M 0 3 
C 0.795609 3 1.55874 2.683901 2.12132 2.12132 
C 2.683901 1.55874 3 0.795609 3 0 
C 3 -0.795609 2.683901 -1.55874 2.12132 -2.12132 
C 1.55874 -2.683901 0.795609 -3 0 -3 
C -0.795609 -3 -1.55874 -2.683901 -2.12132 -2.12132 
C -2.683901 -1.55874 -3 -0.795609 -3 0 
C -3 0.795609 -2.683901 1.55874 -2.12132 2.12132 
C -1.55874 2.683901 -0.795609 3 0 3 
z
" style="stroke: #e67e22"/>
    </defs>
    <g clip-path="url(#pf6804c7a1c)">
     <use xlink:href="#mf0aada7c26" x="54.977503" y="305.81087" style="fill: #e67e22; stroke: #e67e22"/>
     <use xlink:href="#mf0aada7c26" x="174.225442" y="217.852093" style="fill: #e67e22; stroke: #e67e22"/>
     <use xlink:href="#mf0aada7c26" x="333.222693" y="154.998041" style="fill: #e67e22; stroke: #e67e22"/>
     <use xlink:href="#mf0aada7c26" x="412.721319" y="129.790755" style="fill: #e67e22; stroke: #e67e22"/>
    </g>
   </g>
   <g id="line2d_22">
    <path d="M 54.977503 305.81087 
L 174.225442 219.751365 
L 333.222693 153.034679 
L 412.721319 131.964158 
" clip-path="url(#pf6804c7a1c)" style="fill: none; stroke: #ffb347; stroke-width: 1.8; stroke-linecap: square"/>
    <defs>
     <path id="m0aa2997768" d="M 0 3 
C 0.795609 3 1.55874 2.683901 2.12132 2.12132 
C 2.683901 1.55874 3 0.795609 3 0 
C 3 -0.795609 2.683901 -1.55874 2.12132 -2.12132 
C 1.55874 -2.683901 0.795609 -3 0 -3 
C -0.795609 -3 -1.55874 -2.683901 -2.12132 -2.12132 
C -2.683901 -1.55874 -3 -0.795609 -3 0 
C -3 0.795609 -2.683901 1.55874 -2.12132 2.12132 
C -1.55874 2.683901 -0.795609 3 0 3 
z
" style="stroke: #ffb347"/>
    </defs>
    <g clip-path="url(#pf6804c7a1c)">
     <use xlink:href="#m0aa2997768" x="54.977503" y="305.81087" style="fill: #ffb347; stroke: #ffb347"/>
     <use xlink:href="#m0aa2997768" x="174.225442" y="219.751365" style="fill: #ffb347; stroke: #ffb347"/>
     <use xlink:href="#m0aa2997768" x="333.222693" y="153.034679" style="fill: #ffb347; stroke: #ffb347"/>
     <use xlink:href="#m0aa2997768" x="412.721319" y="131.964158" style="fill: #ffb347; stroke: #ffb347"/>
    </g>
   </g>
   <g id="line2d_23">
    <path d="M 54.977503 305.81087 
L 174.225442 231.505931 
L 333.222693 234.360566 
L 412.721319 239.166784 
" clip-path="url(#pf6804c7a1c)" style="fill: none; stroke: #3498db; stroke-width: 1.8; stroke-linecap: square"/>
    <defs>
     <path id="mbb34db2aec" d="M 0 3 
C 0.795609 3 1.55874 2.683901 2.12132 2.12132 
C 2.683901 1.55874 3 0.795609 3 0 
C 3 -0.795609 2.683901 -1.55874 2.12132 -2.12132 
C 1.55874 -2.683901 0.795609 -3 0 -3 
C -0.795609 -3 -1.55874 -2.683901 -2.12132 -2.12132 
C -2.683901 -1.55874 -3 -0.795609 -3 0 
C -3 0.795609 -2.683901 1.55874 -2.12132 2.12132 
C -1.55874 2.683901 -0.795609 3 0 3 
z
" style="stroke: #3498db"/>
    </defs>
    <g clip-path="url(#pf6804c7a1c)">
     <use xlink:href="#mbb34db2aec" x="54.977503" y="305.81087" style="fill: #3498db; stroke: #3498db"/>
     <use xlink:href="#mbb34db2aec" x="174.225442" y="231.505931" style="fill: #3498db; stroke: #3498db"/>
     <use xlink:href="#mbb34db2aec" x="333.222693" y="234.360566" style="fill: #3498db; stroke: #3498db"/>
     <use xlink:href="#mbb34db2aec" x="412.721319" y="239.166784" style="fill: #3498db; stroke: #3498db"/>
    </g>
   </g>
   <g id="line2d_24">
    <path d="M 54.977503 305.81087 
L 174.225442 220.914923 
L 333.222693 187.720626 
L 412.721319 175.053434 
" clip-path="url(#pf6804c7a1c)" style="fill: none; stroke: #e74c3c; stroke-width: 1.8; stroke-linecap: square"/>
    <defs>
     <path id="m30eefd92f7" d="M 0 3 
C 0.795609 3 1.55874 2.683901 2.12132 2.12132 
C 2.683901 1.55874 3 0.795609 3 0 
C 3 -0.795609 2.683901 -1.55874 2.12132 -2.12132 
C 1.55874 -2.683901 0.795609 -3 0 -3 
C -0.795609 -3 -1.55874 -2.683901 -2.12132 -2.12132 
C -2.683901 -1.55874 -3 -0.795609 -3 0 
C -3 0.795609 -2.683901 1.55874 -2.12132 2.12132 
C -1.55874 2.683901 -0.795609 3 0 3 
z
" style="stroke: #e74c3c"/>
    </defs>
    <g clip-path="url(#pf6804c7a1c)">
     <use xlink:href="#m30eefd92f7" x="54.977503" y="305.81087" style="fill: #e74c3c; stroke: #e74c3c"/>
     <use xlink:href="#m30eefd92f7" x="174.225442" y="220.914923" style="fill: #e74c3c; stroke: #e74c3c"/>
     <use xlink:href="#m30eefd92f7" x="333.222693" y="187.720626" style="fill: #e74c3c; stroke: #e74c3c"/>
     <use xlink:href="#m30eefd92f7" x="412.721319" y="175.053434" style="fill: #e74c3c; stroke: #e74c3c"/>
    </g>
   </g>
   <g id="line2d_25">
    <path d="M 54.977503 305.81087 
L 174.225442 222.791812 
L 333.222693 164.345026 
L 412.721319 149.943699 
" clip-path="url(#pf6804c7a1c)" style="fill: none; stroke: #8e44ad; stroke-width: 1.8; stroke-linecap: square"/>
    <defs>
     <path id="m97f591b784" d="M 0 3 
C 0.795609 3 1.55874 2.683901 2.12132 2.12132 
C 2.683901 1.55874 3 0.795609 3 0 
C 3 -0.795609 2.683901 -1.55874 2.12132 -2.12132 
C 1.55874 -2.683901 0.795609 -3 0 -3 
C -0.795609 -3 -1.55874 -2.683901 -2.12132 -2.12132 
C -2.683901 -1.55874 -3 -0.795609 -3 0 
C -3 0.795609 -2.683901 1.55874 -2.12132 2.12132 
C -1.55874 2.683901 -0.795609 3 0 3 
z
" style="stroke: #8e44ad"/>
    </defs>
    <g clip-path="url(#pf6804c7a1c)">
     <use xlink:href="#m97f591b784" x="54.977503" y="305.81087" style="fill: #8e44ad; stroke: #8e44ad"/>
     <use xlink:href="#m97f591b784" x="174.225442" y="222.791812" style="fill: #8e44ad; stroke: #8e44ad"/>
     <use xlink:href="#m97f591b784" x="333.222693" y="164.345026" style="fill: #8e44ad; stroke: #8e44ad"/>
     <use xlink:href="#m97f591b784" x="412.721319" y="149.943699" style="fill: #8e44ad; stroke: #8e44ad"/>
    </g>
   </g>
   <g id="line2d_26">
    <path d="M 54.977503 305.81087 
L 174.225442 216.112923 
L 333.222693 158.666996 
L 412.721319 137.572265 
" clip-path="url(#pf6804c7a1c)" style="fill: none; stroke: #c39bd3; stroke-width: 1.8; stroke-linecap: square"/>
    <defs>
     <path id="md6f50a6e4e" d="M 0 3 
C 0.795609 3 1.55874 2.683901 2.12132 2.12132 
C 2.683901 1.55874 3 0.795609 3 0 
C 3 -0.795609 2.683901 -1.55874 2.12132 -2.12132 
C 1.55874 -2.683901 0.795609 -3 0 -3 
C -0.795609 -3 -1.55874 -2.683901 -2.12132 -2.12132 
C -2.683901 -1.55874 -3 -0.795609 -3 0 
C -3 0.795609 -2.683901 1.55874 -2.12132 2.12132 
C -1.55874 2.683901 -0.795609 3 0 3 
z
" style="stroke: #c39bd3"/>
    </defs>
    <g clip-path="url(#pf6804c7a1c)">
     <use xlink:href="#md6f50a6e4e" x="54.977503" y="305.81087" style="fill: #c39bd3; stroke: #c39bd3"/>
     <use xlink:href="#md6f50a6e4e" x="174.225442" y="216.112923" style="fill: #c39bd3; stroke: #c39bd3"/>
     <use xlink:href="#md6f50a6e4e" x="333.222693" y="158.666996" style="fill: #c39bd3; stroke: #c39bd3"/>
     <use xlink:href="#md6f50a6e4e" x="412.721319" y="137.572265" style="fill: #c39bd3; stroke: #c39bd3"/>
    </g>
   </g>
   <g id="line2d_27">
    <path d="M 54.977503 305.81087 
L 412.721319 35.094119 
" clip-path="url(#pf6804c7a1c)" style="fill: none; stroke-dasharray: 5.55,2.4; stroke-dashoffset: 0; stroke: #4c4c4c; stroke-opacity: 0.4; stroke-width: 1.5"/>
   </g>
   <g id="patch_3">
    <path d="M 37.090313 319.346707 
L 37.090313 21.558281 
" style="fill: none; stroke: #000000; stroke-width: 0.8; stroke-linejoin: miter; stroke-linecap: square"/>
   </g>
   <g id="patch_4">
    <path d="M 37.090313 319.346707 
L 430.60851 319.346707 
" style="fill: none; stroke: #000000; stroke-width: 0.8; stroke-linejoin: miter; stroke-linecap: square"/>
   </g>
   <g id="text_12">
    <!-- Thread speedup -->
    <g transform="translate(189.278786 15.558281) scale(0.11 -0.11)">
     <defs>
      <path id="DejaVuSans-54" d="M -19 4666 
L 3928 4666 
L 3928 4134 
L 2272 4134 
L 2272 0 
L 1638 0 
L 1638 4134 
L -19 4134 
L -19 4666 
z
" transform="scale(0.015625)"/>
     </defs>
     <use xlink:href="#DejaVuSans-54"/>
     <use xlink:href="#DejaVuSans-68" transform="translate(61.083984 0)"/>
     <use xlink:href="#DejaVuSans-72" transform="translate(124.462891 0)"/>
     <use xlink:href="#DejaVuSans-65" transform="translate(163.326172 0)"/>
     <use xlink:href="#DejaVuSans-61" transform="translate(224.849609 0)"/>
     <use xlink:href="#DejaVuSans-64" transform="translate(286.128906 0)"/>
     <use xlink:href="#DejaVuSans-20" transform="translate(349.605469 0)"/>
     <use xlink:href="#DejaVuSans-73" transform="translate(381.392578 0)"/>
     <use xlink:href="#DejaVuSans-70" transform="translate(433.492188 0)"/>
     <use xlink:href="#DejaVuSans-65" transform="translate(496.96875 0)"/>
     <use xlink:href="#DejaVuSans-65" transform="translate(558.492188 0)"/>
     <use xlink:href="#DejaVuSans-64" transform="translate(620.015625 0)"/>
     <use xlink:href="#DejaVuSans-75" transform="translate(683.492188 0)"/>
     <use xlink:href="#DejaVuSans-70" transform="translate(746.871094 0)"/>
    </g>
   </g>
  </g>
  <g id="axes_2">
   <g id="patch_5">
    <path d="M 471.681323 319.346707 
L 865.19952 319.346707 
L 865.19952 21.558281 
L 471.681323 21.558281 
z
" style="fill: #ffffff"/>
   </g>
   <g id="matplotlib.axis_3">
    <g id="xtick_5">
     <g id="line2d_28">
      <path d="M 489.568513 319.346707 
L 489.568513 21.558281 
" clip-path="url(#p9a3513bb7f)" style="fill: none; stroke: #b0b0b0; stroke-opacity: 0.25; stroke-width: 0.8; stroke-linecap: square"/>
     </g>
     <g id="line2d_29">
      <g>
       <use xlink:href="#mc9a44736c7" x="489.568513" y="319.346707" style="stroke: #000000; stroke-width: 0.8"/>
      </g>
     </g>
     <g id="text_13">
      <!-- 1 -->
      <g transform="translate(487.023513 332.425457) scale(0.08 -0.08)">
       <use xlink:href="#DejaVuSans-31"/>
      </g>
     </g>
    </g>
    <g id="xtick_6">
     <g id="line2d_30">
      <path d="M 608.816452 319.346707 
L 608.816452 21.558281 
" clip-path="url(#p9a3513bb7f)" style="fill: none; stroke: #b0b0b0; stroke-opacity: 0.25; stroke-width: 0.8; stroke-linecap: square"/>
     </g>
     <g id="line2d_31">
      <g>
       <use xlink:href="#mc9a44736c7" x="608.816452" y="319.346707" style="stroke: #000000; stroke-width: 0.8"/>
      </g>
     </g>
     <g id="text_14">
      <!-- 4 -->
      <g transform="translate(606.271452 332.425457) scale(0.08 -0.08)">
       <use xlink:href="#DejaVuSans-34"/>
      </g>
     </g>
    </g>
    <g id="xtick_7">
     <g id="line2d_32">
      <path d="M 767.813703 319.346707 
L 767.813703 21.558281 
" clip-path="url(#p9a3513bb7f)" style="fill: none; stroke: #b0b0b0; stroke-opacity: 0.25; stroke-width: 0.8; stroke-linecap: square"/>
     </g>
     <g id="line2d_33">
      <g>
       <use xlink:href="#mc9a44736c7" x="767.813703" y="319.346707" style="stroke: #000000; stroke-width: 0.8"/>
      </g>
     </g>
     <g id="text_15">
      <!-- 8 -->
      <g transform="translate(765.268703 332.425457) scale(0.08 -0.08)">
       <use xlink:href="#DejaVuSans-38"/>
      </g>
     </g>
    </g>
    <g id="xtick_8">
     <g id="line2d_34">
      <path d="M 847.312329 319.346707 
L 847.312329 21.558281 
" clip-path="url(#p9a3513bb7f)" style="fill: none; stroke: #b0b0b0; stroke-opacity: 0.25; stroke-width: 0.8; stroke-linecap: square"/>
     </g>
     <g id="line2d_35">
      <g>
       <use xlink:href="#mc9a44736c7" x="847.312329" y="319.346707" style="stroke: #000000; stroke-width: 0.8"/>
      </g>
     </g>
     <g id="text_16">
      <!-- 10 -->
      <g transform="translate(842.222329 332.425457) scale(0.08 -0.08)">
       <use xlink:href="#DejaVuSans-31"/>
       <use xlink:href="#DejaVuSans-30" transform="translate(63.623047 0)"/>
      </g>
     </g>
    </g>
    <g id="text_17">
     <!-- threads -->
     <g transform="translate(651.348156 344.927801) scale(0.09 -0.09)">
      <use xlink:href="#DejaVuSans-74"/>
      <use xlink:href="#DejaVuSans-68" transform="translate(39.208984 0)"/>
      <use xlink:href="#DejaVuSans-72" transform="translate(102.587891 0)"/>
      <use xlink:href="#DejaVuSans-65" transform="translate(141.451172 0)"/>
      <use xlink:href="#DejaVuSans-61" transform="translate(202.974609 0)"/>
      <use xlink:href="#DejaVuSans-64" transform="translate(264.253906 0)"/>
      <use xlink:href="#DejaVuSans-73" transform="translate(327.730469 0)"/>
     </g>
    </g>
   </g>
   <g id="matplotlib.axis_4">
    <g id="ytick_6">
     <g id="line2d_36">
      <path d="M 471.681323 314.413424 
L 865.19952 314.413424 
" clip-path="url(#p9a3513bb7f)" style="fill: none; stroke: #b0b0b0; stroke-opacity: 0.25; stroke-width: 0.8; stroke-linecap: square"/>
     </g>
     <g id="line2d_37">
      <g>
       <use xlink:href="#m6a093ae62f" x="471.681323" y="314.413424" style="stroke: #000000; stroke-width: 0.8"/>
      </g>
     </g>
     <g id="text_18">
      <!-- 0.3 -->
      <g transform="translate(451.958822 317.452799) scale(0.08 -0.08)">
       <defs>
        <path id="DejaVuSans-2e" d="M 684 794 
L 1344 794 
L 1344 0 
L 684 0 
L 684 794 
z
" transform="scale(0.015625)"/>
        <path id="DejaVuSans-33" d="M 2597 2516 
Q 3050 2419 3304 2112 
Q 3559 1806 3559 1356 
Q 3559 666 3084 287 
Q 2609 -91 1734 -91 
Q 1441 -91 1130 -33 
Q 819 25 488 141 
L 488 750 
Q 750 597 1062 519 
Q 1375 441 1716 441 
Q 2309 441 2620 675 
Q 2931 909 2931 1356 
Q 2931 1769 2642 2001 
Q 2353 2234 1838 2234 
L 1294 2234 
L 1294 2753 
L 1863 2753 
Q 2328 2753 2575 2939 
Q 2822 3125 2822 3475 
Q 2822 3834 2567 4026 
Q 2313 4219 1838 4219 
Q 1578 4219 1281 4162 
Q 984 4106 628 3988 
L 628 4550 
Q 988 4650 1302 4700 
Q 1616 4750 1894 4750 
Q 2613 4750 3031 4423 
Q 3450 4097 3450 3541 
Q 3450 3153 3228 2886 
Q 3006 2619 2597 2516 
z
" transform="scale(0.015625)"/>
       </defs>
       <use xlink:href="#DejaVuSans-30"/>
       <use xlink:href="#DejaVuSans-2e" transform="translate(63.623047 0)"/>
       <use xlink:href="#DejaVuSans-33" transform="translate(95.410156 0)"/>
      </g>
     </g>
    </g>
    <g id="ytick_7">
     <g id="line2d_38">
      <path d="M 471.681323 274.510666 
L 865.19952 274.510666 
" clip-path="url(#p9a3513bb7f)" style="fill: none; stroke: #b0b0b0; stroke-opacity: 0.25; stroke-width: 0.8; stroke-linecap: square"/>
     </g>
     <g id="line2d_39">
      <g>
       <use xlink:href="#m6a093ae62f" x="471.681323" y="274.510666" style="stroke: #000000; stroke-width: 0.8"/>
      </g>
     </g>
     <g id="text_19">
      <!-- 0.4 -->
      <g transform="translate(451.958822 277.550041) scale(0.08 -0.08)">
       <use xlink:href="#DejaVuSans-30"/>
       <use xlink:href="#DejaVuSans-2e" transform="translate(63.623047 0)"/>
       <use xlink:href="#DejaVuSans-34" transform="translate(95.410156 0)"/>
      </g>
     </g>
    </g>
    <g id="ytick_8">
     <g id="line2d_40">
      <path d="M 471.681323 234.607908 
L 865.19952 234.607908 
" clip-path="url(#p9a3513bb7f)" style="fill: none; stroke: #b0b0b0; stroke-opacity: 0.25; stroke-width: 0.8; stroke-linecap: square"/>
     </g>
     <g id="line2d_41">
      <g>
       <use xlink:href="#m6a093ae62f" x="471.681323" y="234.607908" style="stroke: #000000; stroke-width: 0.8"/>
      </g>
     </g>
     <g id="text_20">
      <!-- 0.5 -->
      <g transform="translate(451.958822 237.647283) scale(0.08 -0.08)">
       <defs>
        <path id="DejaVuSans-35" d="M 691 4666 
L 3169 4666 
L 3169 4134 
L 1269 4134 
L 1269 2991 
Q 1406 3038 1543 3061 
Q 1681 3084 1819 3084 
Q 2600 3084 3056 2656 
Q 3513 2228 3513 1497 
Q 3513 744 3044 326 
Q 2575 -91 1722 -91 
Q 1428 -91 1123 -41 
Q 819 9 494 109 
L 494 744 
Q 775 591 1075 516 
Q 1375 441 1709 441 
Q 2250 441 2565 725 
Q 2881 1009 2881 1497 
Q 2881 1984 2565 2268 
Q 2250 2553 1709 2553 
Q 1456 2553 1204 2497 
Q 953 2441 691 2322 
L 691 4666 
z
" transform="scale(0.015625)"/>
       </defs>
       <use xlink:href="#DejaVuSans-30"/>
       <use xlink:href="#DejaVuSans-2e" transform="translate(63.623047 0)"/>
       <use xlink:href="#DejaVuSans-35" transform="translate(95.410156 0)"/>
      </g>
     </g>
    </g>
    <g id="ytick_9">
     <g id="line2d_42">
      <path d="M 471.681323 194.70515 
L 865.19952 194.70515 
" clip-path="url(#p9a3513bb7f)" style="fill: none; stroke: #b0b0b0; stroke-opacity: 0.25; stroke-width: 0.8; stroke-linecap: square"/>
     </g>
     <g id="line2d_43">
      <g>
       <use xlink:href="#m6a093ae62f" x="471.681323" y="194.70515" style="stroke: #000000; stroke-width: 0.8"/>
      </g>
     </g>
     <g id="text_21">
      <!-- 0.6 -->
      <g transform="translate(451.958822 197.744525) scale(0.08 -0.08)">
       <use xlink:href="#DejaVuSans-30"/>
       <use xlink:href="#DejaVuSans-2e" transform="translate(63.623047 0)"/>
       <use xlink:href="#DejaVuSans-36" transform="translate(95.410156 0)"/>
      </g>
     </g>
    </g>
    <g id="ytick_10">
     <g id="line2d_44">
      <path d="M 471.681323 154.802392 
L 865.19952 154.802392 
" clip-path="url(#p9a3513bb7f)" style="fill: none; stroke: #b0b0b0; stroke-opacity: 0.25; stroke-width: 0.8; stroke-linecap: square"/>
     </g>
     <g id="line2d_45">
      <g>
       <use xlink:href="#m6a093ae62f" x="471.681323" y="154.802392" style="stroke: #000000; stroke-width: 0.8"/>
      </g>
     </g>
     <g id="text_22">
      <!-- 0.7 -->
      <g transform="translate(451.958822 157.841767) scale(0.08 -0.08)">
       <defs>
        <path id="DejaVuSans-37" d="M 525 4666 
L 3525 4666 
L 3525 4397 
L 1831 0 
L 1172 0 
L 2766 4134 
L 525 4134 
L 525 4666 
z
" transform="scale(0.015625)"/>
       </defs>
       <use xlink:href="#DejaVuSans-30"/>
       <use xlink:href="#DejaVuSans-2e" transform="translate(63.623047 0)"/>
       <use xlink:href="#DejaVuSans-37" transform="translate(95.410156 0)"/>
      </g>
     </g>
    </g>
    <g id="ytick_11">
     <g id="line2d_46">
      <path d="M 471.681323 114.899635 
L 865.19952 114.899635 
" clip-path="url(#p9a3513bb7f)" style="fill: none; stroke: #b0b0b0; stroke-opacity: 0.25; stroke-width: 0.8; stroke-linecap: square"/>
     </g>
     <g id="line2d_47">
      <g>
       <use xlink:href="#m6a093ae62f" x="471.681323" y="114.899635" style="stroke: #000000; stroke-width: 0.8"/>
      </g>
     </g>
     <g id="text_23">
      <!-- 0.8 -->
      <g transform="translate(451.958822 117.93901) scale(0.08 -0.08)">
       <use xlink:href="#DejaVuSans-30"/>
       <use xlink:href="#DejaVuSans-2e" transform="translate(63.623047 0)"/>
       <use xlink:href="#DejaVuSans-38" transform="translate(95.410156 0)"/>
      </g>
     </g>
    </g>
    <g id="ytick_12">
     <g id="line2d_48">
      <path d="M 471.681323 74.996877 
L 865.19952 74.996877 
" clip-path="url(#p9a3513bb7f)" style="fill: none; stroke: #b0b0b0; stroke-opacity: 0.25; stroke-width: 0.8; stroke-linecap: square"/>
     </g>
     <g id="line2d_49">
      <g>
       <use xlink:href="#m6a093ae62f" x="471.681323" y="74.996877" style="stroke: #000000; stroke-width: 0.8"/>
      </g>
     </g>
     <g id="text_24">
      <!-- 0.9 -->
      <g transform="translate(451.958822 78.036252) scale(0.08 -0.08)">
       <defs>
        <path id="DejaVuSans-39" d="M 703 97 
L 703 672 
Q 941 559 1184 500 
Q 1428 441 1663 441 
Q 2288 441 2617 861 
Q 2947 1281 2994 2138 
Q 2813 1869 2534 1725 
Q 2256 1581 1919 1581 
Q 1219 1581 811 2004 
Q 403 2428 403 3163 
Q 403 3881 828 4315 
Q 1253 4750 1959 4750 
Q 2769 4750 3195 4129 
Q 3622 3509 3622 2328 
Q 3622 1225 3098 567 
Q 2575 -91 1691 -91 
Q 1453 -91 1209 -44 
Q 966 3 703 97 
z
M 1959 2075 
Q 2384 2075 2632 2365 
Q 2881 2656 2881 3163 
Q 2881 3666 2632 3958 
Q 2384 4250 1959 4250 
Q 1534 4250 1286 3958 
Q 1038 3666 1038 3163 
Q 1038 2656 1286 2365 
Q 1534 2075 1959 2075 
z
" transform="scale(0.015625)"/>
       </defs>
       <use xlink:href="#DejaVuSans-30"/>
       <use xlink:href="#DejaVuSans-2e" transform="translate(63.623047 0)"/>
       <use xlink:href="#DejaVuSans-39" transform="translate(95.410156 0)"/>
      </g>
     </g>
    </g>
    <g id="ytick_13">
     <g id="line2d_50">
      <path d="M 471.681323 35.094119 
L 865.19952 35.094119 
" clip-path="url(#p9a3513bb7f)" style="fill: none; stroke: #b0b0b0; stroke-opacity: 0.25; stroke-width: 0.8; stroke-linecap: square"/>
     </g>
     <g id="line2d_51">
      <g>
       <use xlink:href="#m6a093ae62f" x="471.681323" y="35.094119" style="stroke: #000000; stroke-width: 0.8"/>
      </g>
     </g>
     <g id="text_25">
      <!-- 1.0 -->
      <g transform="translate(451.958822 38.133494) scale(0.08 -0.08)">
       <use xlink:href="#DejaVuSans-31"/>
       <use xlink:href="#DejaVuSans-2e" transform="translate(63.623047 0)"/>
       <use xlink:href="#DejaVuSans-30" transform="translate(95.410156 0)"/>
      </g>
     </g>
    </g>
    <g id="text_26">
     <!-- parallel efficiency (median runtime) -->
     <g transform="translate(446.087104 251.254916) rotate(-90) scale(0.09 -0.09)">
      <defs>
       <path id="DejaVuSans-6c" d="M 603 4863 
L 1178 4863 
L 1178 0 
L 603 0 
L 603 4863 
z
" transform="scale(0.015625)"/>
       <path id="DejaVuSans-66" d="M 2375 4863 
L 2375 4384 
L 1825 4384 
Q 1516 4384 1395 4259 
Q 1275 4134 1275 3809 
L 1275 3500 
L 2222 3500 
L 2222 3053 
L 1275 3053 
L 1275 0 
L 697 0 
L 697 3053 
L 147 3053 
L 147 3500 
L 697 3500 
L 697 3744 
Q 697 4328 969 4595 
Q 1241 4863 1831 4863 
L 2375 4863 
z
" transform="scale(0.015625)"/>
       <path id="DejaVuSans-63" d="M 3122 3366 
L 3122 2828 
Q 2878 2963 2633 3030 
Q 2388 3097 2138 3097 
Q 1578 3097 1268 2742 
Q 959 2388 959 1747 
Q 959 1106 1268 751 
Q 1578 397 2138 397 
Q 2388 397 2633 464 
Q 2878 531 3122 666 
L 3122 134 
Q 2881 22 2623 -34 
Q 2366 -91 2075 -91 
Q 1284 -91 818 406 
Q 353 903 353 1747 
Q 353 2603 823 3093 
Q 1294 3584 2113 3584 
Q 2378 3584 2631 3529 
Q 2884 3475 3122 3366 
z
" transform="scale(0.015625)"/>
       <path id="DejaVuSans-79" d="M 2059 -325 
Q 1816 -950 1584 -1140 
Q 1353 -1331 966 -1331 
L 506 -1331 
L 506 -850 
L 844 -850 
Q 1081 -850 1212 -737 
Q 1344 -625 1503 -206 
L 1606 56 
L 191 3500 
L 800 3500 
L 1894 763 
L 2988 3500 
L 3597 3500 
L 2059 -325 
z
" transform="scale(0.015625)"/>
      </defs>
      <use xlink:href="#DejaVuSans-70"/>
      <use xlink:href="#DejaVuSans-61" transform="translate(63.476562 0)"/>
      <use xlink:href="#DejaVuSans-72" transform="translate(124.755859 0)"/>
      <use xlink:href="#DejaVuSans-61" transform="translate(165.869141 0)"/>
      <use xlink:href="#DejaVuSans-6c" transform="translate(227.148438 0)"/>
      <use xlink:href="#DejaVuSans-6c" transform="translate(254.931641 0)"/>
      <use xlink:href="#DejaVuSans-65" transform="translate(282.714844 0)"/>
      <use xlink:href="#DejaVuSans-6c" transform="translate(344.238281 0)"/>
      <use xlink:href="#DejaVuSans-20" transform="translate(372.021484 0)"/>
      <use xlink:href="#DejaVuSans-65" transform="translate(403.808594 0)"/>
      <use xlink:href="#DejaVuSans-66" transform="translate(465.332031 0)"/>
      <use xlink:href="#DejaVuSans-66" transform="translate(500.537109 0)"/>
      <use xlink:href="#DejaVuSans-69" transform="translate(535.742188 0)"/>
      <use xlink:href="#DejaVuSans-63" transform="translate(563.525391 0)"/>
      <use xlink:href="#DejaVuSans-69" transform="translate(618.505859 0)"/>
      <use xlink:href="#DejaVuSans-65" transform="translate(646.289062 0)"/>
      <use xlink:href="#DejaVuSans-6e" transform="translate(707.8125 0)"/>
      <use xlink:href="#DejaVuSans-63" transform="translate(771.191406 0)"/>
      <use xlink:href="#DejaVuSans-79" transform="translate(826.171875 0)"/>
      <use xlink:href="#DejaVuSans-20" transform="translate(885.351562 0)"/>
      <use xlink:href="#DejaVuSans-28" transform="translate(917.138672 0)"/>
      <use xlink:href="#DejaVuSans-6d" transform="translate(956.152344 0)"/>
      <use xlink:href="#DejaVuSans-65" transform="translate(1053.564453 0)"/>
      <use xlink:href="#DejaVuSans-64" transform="translate(1115.087891 0)"/>
      <use xlink:href="#DejaVuSans-69" transform="translate(1178.564453 0)"/>
      <use xlink:href="#DejaVuSans-61" transform="translate(1206.347656 0)"/>
      <use xlink:href="#DejaVuSans-6e" transform="translate(1267.626953 0)"/>
      <use xlink:href="#DejaVuSans-20" transform="translate(1331.005859 0)"/>
      <use xlink:href="#DejaVuSans-72" transform="translate(1362.792969 0)"/>
      <use xlink:href="#DejaVuSans-75" transform="translate(1403.90625 0)"/>
      <use xlink:href="#DejaVuSans-6e" transform="translate(1467.285156 0)"/>
      <use xlink:href="#DejaVuSans-74" transform="translate(1530.664062 0)"/>
      <use xlink:href="#DejaVuSans-69" transform="translate(1569.873047 0)"/>
      <use xlink:href="#DejaVuSans-6d" transform="translate(1597.65625 0)"/>
      <use xlink:href="#DejaVuSans-65" transform="translate(1695.068359 0)"/>
      <use xlink:href="#DejaVuSans-29" transform="translate(1756.591797 0)"/>
     </g>
    </g>
   </g>
   <g id="line2d_52">
    <path d="M 489.568513 35.094119 
L 608.816452 53.355233 
L 767.813703 138.350341 
L 847.312329 163.057011 
" clip-path="url(#p9a3513bb7f)" style="fill: none; stroke: #f39c12; stroke-width: 1.8; stroke-linecap: square"/>
    <g clip-path="url(#p9a3513bb7f)">
     <use xlink:href="#m9f18cfc63a" x="489.568513" y="35.094119" style="fill: #f39c12; stroke: #f39c12"/>
     <use xlink:href="#m9f18cfc63a" x="608.816452" y="53.355233" style="fill: #f39c12; stroke: #f39c12"/>
     <use xlink:href="#m9f18cfc63a" x="767.813703" y="138.350341" style="fill: #f39c12; stroke: #f39c12"/>
     <use xlink:href="#m9f18cfc63a" x="847.312329" y="163.057011" style="fill: #f39c12; stroke: #f39c12"/>
    </g>
   </g>
   <g id="line2d_53">
    <path d="M 489.568513 35.094119 
L 608.816452 59.904226 
L 767.813703 142.912515 
L 847.312329 165.453105 
" clip-path="url(#p9a3513bb7f)" style="fill: none; stroke: #f6c85f; stroke-width: 1.8; stroke-linecap: square"/>
    <g clip-path="url(#p9a3513bb7f)">
     <use xlink:href="#m83a701941f" x="489.568513" y="35.094119" style="fill: #f6c85f; stroke: #f6c85f"/>
     <use xlink:href="#m83a701941f" x="608.816452" y="59.904226" style="fill: #f6c85f; stroke: #f6c85f"/>
     <use xlink:href="#m83a701941f" x="767.813703" y="142.912515" style="fill: #f6c85f; stroke: #f6c85f"/>
     <use xlink:href="#m83a701941f" x="847.312329" y="165.453105" style="fill: #f6c85f; stroke: #f6c85f"/>
    </g>
   </g>
   <g id="line2d_54">
    <path d="M 489.568513 35.094119 
L 608.816452 42.656034 
L 767.813703 134.163462 
L 847.312329 160.71587 
" clip-path="url(#p9a3513bb7f)" style="fill: none; stroke: #e67e22; stroke-width: 1.8; stroke-linecap: square"/>
    <g clip-path="url(#p9a3513bb7f)">
     <use xlink:href="#mf0aada7c26" x="489.568513" y="35.094119" style="fill: #e67e22; stroke: #e67e22"/>
     <use xlink:href="#mf0aada7c26" x="608.816452" y="42.656034" style="fill: #e67e22; stroke: #e67e22"/>
     <use xlink:href="#mf0aada7c26" x="767.813703" y="134.163462" style="fill: #e67e22; stroke: #e67e22"/>
     <use xlink:href="#mf0aada7c26" x="847.312329" y="160.71587" style="fill: #e67e22; stroke: #e67e22"/>
    </g>
   </g>
   <g id="line2d_55">
    <path d="M 489.568513 35.094119 
L 608.816452 48.95483 
L 767.813703 130.90779 
L 847.312329 163.599043 
" clip-path="url(#p9a3513bb7f)" style="fill: none; stroke: #ffb347; stroke-width: 1.8; stroke-linecap: square"/>
    <g clip-path="url(#p9a3513bb7f)">
     <use xlink:href="#m0aa2997768" x="489.568513" y="35.094119" style="fill: #ffb347; stroke: #ffb347"/>
     <use xlink:href="#m0aa2997768" x="608.816452" y="48.95483" style="fill: #ffb347; stroke: #ffb347"/>
     <use xlink:href="#m0aa2997768" x="767.813703" y="130.90779" style="fill: #ffb347; stroke: #ffb347"/>
     <use xlink:href="#m0aa2997768" x="847.312329" y="163.599043" style="fill: #ffb347; stroke: #ffb347"/>
    </g>
   </g>
   <g id="line2d_56">
    <path d="M 489.568513 35.094119 
L 608.816452 87.937976 
L 767.813703 265.76343 
L 847.312329 305.81087 
" clip-path="url(#p9a3513bb7f)" style="fill: none; stroke: #3498db; stroke-width: 1.8; stroke-linecap: square"/>
    <g clip-path="url(#p9a3513bb7f)">
     <use xlink:href="#mbb34db2aec" x="489.568513" y="35.094119" style="fill: #3498db; stroke: #3498db"/>
     <use xlink:href="#mbb34db2aec" x="608.816452" y="87.937976" style="fill: #3498db; stroke: #3498db"/>
     <use xlink:href="#mbb34db2aec" x="767.813703" y="265.76343" style="fill: #3498db; stroke: #3498db"/>
     <use xlink:href="#mbb34db2aec" x="847.312329" y="305.81087" style="fill: #3498db; stroke: #3498db"/>
    </g>
   </g>
   <g id="line2d_57">
    <path d="M 489.568513 35.094119 
L 608.816452 52.813684 
L 767.813703 188.424477 
L 847.312329 220.759999 
" clip-path="url(#p9a3513bb7f)" style="fill: none; stroke: #e74c3c; stroke-width: 1.8; stroke-linecap: square"/>
    <g clip-path="url(#p9a3513bb7f)">
     <use xlink:href="#m30eefd92f7" x="489.568513" y="35.094119" style="fill: #e74c3c; stroke: #e74c3c"/>
     <use xlink:href="#m30eefd92f7" x="608.816452" y="52.813684" style="fill: #e74c3c; stroke: #e74c3c"/>
     <use xlink:href="#m30eefd92f7" x="767.813703" y="188.424477" style="fill: #e74c3c; stroke: #e74c3c"/>
     <use xlink:href="#m30eefd92f7" x="847.312329" y="220.759999" style="fill: #e74c3c; stroke: #e74c3c"/>
    </g>
   </g>
   <g id="line2d_58">
    <path d="M 489.568513 35.094119 
L 608.816452 59.038247 
L 767.813703 149.662755 
L 847.312329 187.450169 
" clip-path="url(#p9a3513bb7f)" style="fill: none; stroke: #8e44ad; stroke-width: 1.8; stroke-linecap: square"/>
    <g clip-path="url(#p9a3513bb7f)">
     <use xlink:href="#m97f591b784" x="489.568513" y="35.094119" style="fill: #8e44ad; stroke: #8e44ad"/>
     <use xlink:href="#m97f591b784" x="608.816452" y="59.038247" style="fill: #8e44ad; stroke: #8e44ad"/>
     <use xlink:href="#m97f591b784" x="767.813703" y="149.662755" style="fill: #8e44ad; stroke: #8e44ad"/>
     <use xlink:href="#m97f591b784" x="847.312329" y="187.450169" style="fill: #8e44ad; stroke: #8e44ad"/>
    </g>
   </g>
   <g id="line2d_59">
    <path d="M 489.568513 35.094119 
L 608.816452 36.888208 
L 767.813703 140.24737 
L 847.312329 171.038591 
" clip-path="url(#p9a3513bb7f)" style="fill: none; stroke: #c39bd3; stroke-width: 1.8; stroke-linecap: square"/>
    <g clip-path="url(#p9a3513bb7f)">
     <use xlink:href="#md6f50a6e4e" x="489.568513" y="35.094119" style="fill: #c39bd3; stroke: #c39bd3"/>
     <use xlink:href="#md6f50a6e4e" x="608.816452" y="36.888208" style="fill: #c39bd3; stroke: #c39bd3"/>
     <use xlink:href="#md6f50a6e4e" x="767.813703" y="140.24737" style="fill: #c39bd3; stroke: #c39bd3"/>
     <use xlink:href="#md6f50a6e4e" x="847.312329" y="171.038591" style="fill: #c39bd3; stroke: #c39bd3"/>
    </g>
   </g>
   <g id="line2d_60">
    <path d="M 471.681323 35.094119 
L 865.19952 35.094119 
" clip-path="url(#p9a3513bb7f)" style="fill: none; stroke-dasharray: 5.55,2.4; stroke-dashoffset: 0; stroke: #4c4c4c; stroke-opacity: 0.4; stroke-width: 1.5"/>
   </g>
   <g id="patch_6">
    <path d="M 471.681323 319.346707 
L 471.681323 21.558281 
" style="fill: none; stroke: #000000; stroke-width: 0.8; stroke-linejoin: miter; stroke-linecap: square"/>
   </g>
   <g id="patch_7">
    <path d="M 471.681323 319.346707 
L 865.19952 319.346707 
" style="fill: none; stroke: #000000; stroke-width: 0.8; stroke-linejoin: miter; stroke-linecap: square"/>
   </g>
   <g id="text_27">
    <!-- Thread efficiency -->
    <g transform="translate(620.977999 15.558281) scale(0.11 -0.11)">
     <use xlink:href="#DejaVuSans-54"/>
     <use xlink:href="#DejaVuSans-68" transform="translate(61.083984 0)"/>
     <use xlink:href="#DejaVuSans-72" transform="translate(124.462891 0)"/>
     <use xlink:href="#DejaVuSans-65" transform="translate(163.326172 0)"/>
     <use xlink:href="#DejaVuSans-61" transform="translate(224.849609 0)"/>
     <use xlink:href="#DejaVuSans-64" transform="translate(286.128906 0)"/>
     <use xlink:href="#DejaVuSans-20" transform="translate(349.605469 0)"/>
     <use xlink:href="#DejaVuSans-65" transform="translate(381.392578 0)"/>
     <use xlink:href="#DejaVuSans-66" transform="translate(442.916016 0)"/>
     <use xlink:href="#DejaVuSans-66" transform="translate(478.121094 0)"/>
     <use xlink:href="#DejaVuSans-69" transform="translate(513.326172 0)"/>
     <use xlink:href="#DejaVuSans-63" transform="translate(541.109375 0)"/>
     <use xlink:href="#DejaVuSans-69" transform="translate(596.089844 0)"/>
     <use xlink:href="#DejaVuSans-65" transform="translate(623.873047 0)"/>
     <use xlink:href="#DejaVuSans-6e" transform="translate(685.396484 0)"/>
     <use xlink:href="#DejaVuSans-63" transform="translate(748.775391 0)"/>
     <use xlink:href="#DejaVuSans-79" transform="translate(803.755859 0)"/>
    </g>
   </g>
   <g id="legend_1">
    <g id="patch_8">
     <path d="M 477.281323 315.346707 
L 575.233822 315.346707 
Q 576.833822 315.346707 576.833822 313.746707 
L 576.833822 220.606707 
Q 576.833822 219.006707 575.233822 219.006707 
L 477.281323 219.006707 
Q 475.681323 219.006707 475.681323 220.606707 
L 475.681323 313.746707 
Q 475.681323 315.346707 477.281323 315.346707 
z
" style="fill: #ffffff; opacity: 0.8; stroke: #cccccc; stroke-linejoin: miter"/>
    </g>
    <g id="line2d_61">
     <path d="M 478.881323 225.485457 
L 486.881323 225.485457 
L 494.881323 225.485457 
" style="fill: none; stroke: #f39c12; stroke-width: 1.8; stroke-linecap: square"/>
     <g>
      <use xlink:href="#m9f18cfc63a" x="486.881323" y="225.485457" style="fill: #f39c12; stroke: #f39c12"/>
     </g>
    </g>
    <g id="text_28">
     <!-- zsasa f64 -->
     <g transform="translate(501.281322 228.285457) scale(0.08 -0.08)">
      <defs>
       <path id="DejaVuSans-7a" d="M 353 3500 
L 3084 3500 
L 3084 2975 
L 922 459 
L 3084 459 
L 3084 0 
L 275 0 
L 275 525 
L 2438 3041 
L 353 3041 
L 353 3500 
z
" transform="scale(0.015625)"/>
      </defs>
      <use xlink:href="#DejaVuSans-7a"/>
      <use xlink:href="#DejaVuSans-73" transform="translate(52.490234 0)"/>
      <use xlink:href="#DejaVuSans-61" transform="translate(104.589844 0)"/>
      <use xlink:href="#DejaVuSans-73" transform="translate(165.869141 0)"/>
      <use xlink:href="#DejaVuSans-61" transform="translate(217.96875 0)"/>
      <use xlink:href="#DejaVuSans-20" transform="translate(279.248047 0)"/>
      <use xlink:href="#DejaVuSans-66" transform="translate(311.035156 0)"/>
      <use xlink:href="#DejaVuSans-36" transform="translate(346.240234 0)"/>
      <use xlink:href="#DejaVuSans-34" transform="translate(409.863281 0)"/>
     </g>
    </g>
    <g id="line2d_62">
     <path d="M 478.881323 237.227957 
L 486.881323 237.227957 
L 494.881323 237.227957 
" style="fill: none; stroke: #f6c85f; stroke-width: 1.8; stroke-linecap: square"/>
     <g>
      <use xlink:href="#m83a701941f" x="486.881323" y="237.227957" style="fill: #f6c85f; stroke: #f6c85f"/>
     </g>
    </g>
    <g id="text_29">
     <!-- zsasa f32 -->
     <g transform="translate(501.281322 240.027957) scale(0.08 -0.08)">
      <use xlink:href="#DejaVuSans-7a"/>
      <use xlink:href="#DejaVuSans-73" transform="translate(52.490234 0)"/>
      <use xlink:href="#DejaVuSans-61" transform="translate(104.589844 0)"/>
      <use xlink:href="#DejaVuSans-73" transform="translate(165.869141 0)"/>
      <use xlink:href="#DejaVuSans-61" transform="translate(217.96875 0)"/>
      <use xlink:href="#DejaVuSans-20" transform="translate(279.248047 0)"/>
      <use xlink:href="#DejaVuSans-66" transform="translate(311.035156 0)"/>
      <use xlink:href="#DejaVuSans-33" transform="translate(346.240234 0)"/>
      <use xlink:href="#DejaVuSans-32" transform="translate(409.863281 0)"/>
     </g>
    </g>
    <g id="line2d_63">
     <path d="M 478.881323 248.970457 
L 486.881323 248.970457 
L 494.881323 248.970457 
" style="fill: none; stroke: #e67e22; stroke-width: 1.8; stroke-linecap: square"/>
     <g>
      <use xlink:href="#mf0aada7c26" x="486.881323" y="248.970457" style="fill: #e67e22; stroke: #e67e22"/>
     </g>
    </g>
    <g id="text_30">
     <!-- zsasa bitmask f64 -->
     <g transform="translate(501.281322 251.770457) scale(0.08 -0.08)">
      <defs>
       <path id="DejaVuSans-62" d="M 3116 1747 
Q 3116 2381 2855 2742 
Q 2594 3103 2138 3103 
Q 1681 3103 1420 2742 
Q 1159 2381 1159 1747 
Q 1159 1113 1420 752 
Q 1681 391 2138 391 
Q 2594 391 2855 752 
Q 3116 1113 3116 1747 
z
M 1159 2969 
Q 1341 3281 1617 3432 
Q 1894 3584 2278 3584 
Q 2916 3584 3314 3078 
Q 3713 2572 3713 1747 
Q 3713 922 3314 415 
Q 2916 -91 2278 -91 
Q 1894 -91 1617 61 
Q 1341 213 1159 525 
L 1159 0 
L 581 0 
L 581 4863 
L 1159 4863 
L 1159 2969 
z
" transform="scale(0.015625)"/>
       <path id="DejaVuSans-6b" d="M 581 4863 
L 1159 4863 
L 1159 1991 
L 2875 3500 
L 3609 3500 
L 1753 1863 
L 3688 0 
L 2938 0 
L 1159 1709 
L 1159 0 
L 581 0 
L 581 4863 
z
" transform="scale(0.015625)"/>
      </defs>
      <use xlink:href="#DejaVuSans-7a"/>
      <use xlink:href="#DejaVuSans-73" transform="translate(52.490234 0)"/>
      <use xlink:href="#DejaVuSans-61" transform="translate(104.589844 0)"/>
      <use xlink:href="#DejaVuSans-73" transform="translate(165.869141 0)"/>
      <use xlink:href="#DejaVuSans-61" transform="translate(217.96875 0)"/>
      <use xlink:href="#DejaVuSans-20" transform="translate(279.248047 0)"/>
      <use xlink:href="#DejaVuSans-62" transform="translate(311.035156 0)"/>
      <use xlink:href="#DejaVuSans-69" transform="translate(374.511719 0)"/>
      <use xlink:href="#DejaVuSans-74" transform="translate(402.294922 0)"/>
      <use xlink:href="#DejaVuSans-6d" transform="translate(441.503906 0)"/>
      <use xlink:href="#DejaVuSans-61" transform="translate(538.916016 0)"/>
      <use xlink:href="#DejaVuSans-73" transform="translate(600.195312 0)"/>
      <use xlink:href="#DejaVuSans-6b" transform="translate(652.294922 0)"/>
      <use xlink:href="#DejaVuSans-20" transform="translate(710.205078 0)"/>
      <use xlink:href="#DejaVuSans-66" transform="translate(741.992188 0)"/>
      <use xlink:href="#DejaVuSans-36" transform="translate(777.197266 0)"/>
      <use xlink:href="#DejaVuSans-34" transform="translate(840.820312 0)"/>
     </g>
    </g>
    <g id="line2d_64">
     <path d="M 478.881323 260.712957 
L 486.881323 260.712957 
L 494.881323 260.712957 
" style="fill: none; stroke: #ffb347; stroke-width: 1.8; stroke-linecap: square"/>
     <g>
      <use xlink:href="#m0aa2997768" x="486.881323" y="260.712957" style="fill: #ffb347; stroke: #ffb347"/>
     </g>
    </g>
    <g id="text_31">
     <!-- zsasa bitmask f32 -->
     <g transform="translate(501.281322 263.512957) scale(0.08 -0.08)">
      <use xlink:href="#DejaVuSans-7a"/>
      <use xlink:href="#DejaVuSans-73" transform="translate(52.490234 0)"/>
      <use xlink:href="#DejaVuSans-61" transform="translate(104.589844 0)"/>
      <use xlink:href="#DejaVuSans-73" transform="translate(165.869141 0)"/>
      <use xlink:href="#DejaVuSans-61" transform="translate(217.96875 0)"/>
      <use xlink:href="#DejaVuSans-20" transform="translate(279.248047 0)"/>
      <use xlink:href="#DejaVuSans-62" transform="translate(311.035156 0)"/>
      <use xlink:href="#DejaVuSans-69" transform="translate(374.511719 0)"/>
      <use xlink:href="#DejaVuSans-74" transform="translate(402.294922 0)"/>
      <use xlink:href="#DejaVuSans-6d" transform="translate(441.503906 0)"/>
      <use xlink:href="#DejaVuSans-61" transform="translate(538.916016 0)"/>
      <use xlink:href="#DejaVuSans-73" transform="translate(600.195312 0)"/>
      <use xlink:href="#DejaVuSans-6b" transform="translate(652.294922 0)"/>
      <use xlink:href="#DejaVuSans-20" transform="translate(710.205078 0)"/>
      <use xlink:href="#DejaVuSans-66" transform="translate(741.992188 0)"/>
      <use xlink:href="#DejaVuSans-33" transform="translate(777.197266 0)"/>
      <use xlink:href="#DejaVuSans-32" transform="translate(840.820312 0)"/>
     </g>
    </g>
    <g id="line2d_65">
     <path d="M 478.881323 272.455457 
L 486.881323 272.455457 
L 494.881323 272.455457 
" style="fill: none; stroke: #3498db; stroke-width: 1.8; stroke-linecap: square"/>
     <g>
      <use xlink:href="#mbb34db2aec" x="486.881323" y="272.455457" style="fill: #3498db; stroke: #3498db"/>
     </g>
    </g>
    <g id="text_32">
     <!-- FreeSASA batch -->
     <g transform="translate(501.281322 275.255457) scale(0.08 -0.08)">
      <defs>
       <path id="DejaVuSans-46" d="M 628 4666 
L 3309 4666 
L 3309 4134 
L 1259 4134 
L 1259 2759 
L 3109 2759 
L 3109 2228 
L 1259 2228 
L 1259 0 
L 628 0 
L 628 4666 
z
" transform="scale(0.015625)"/>
       <path id="DejaVuSans-53" d="M 3425 4513 
L 3425 3897 
Q 3066 4069 2747 4153 
Q 2428 4238 2131 4238 
Q 1616 4238 1336 4038 
Q 1056 3838 1056 3469 
Q 1056 3159 1242 3001 
Q 1428 2844 1947 2747 
L 2328 2669 
Q 3034 2534 3370 2195 
Q 3706 1856 3706 1288 
Q 3706 609 3251 259 
Q 2797 -91 1919 -91 
Q 1588 -91 1214 -16 
Q 841 59 441 206 
L 441 856 
Q 825 641 1194 531 
Q 1563 422 1919 422 
Q 2459 422 2753 634 
Q 3047 847 3047 1241 
Q 3047 1584 2836 1778 
Q 2625 1972 2144 2069 
L 1759 2144 
Q 1053 2284 737 2584 
Q 422 2884 422 3419 
Q 422 4038 858 4394 
Q 1294 4750 2059 4750 
Q 2388 4750 2728 4690 
Q 3069 4631 3425 4513 
z
" transform="scale(0.015625)"/>
       <path id="DejaVuSans-41" d="M 2188 4044 
L 1331 1722 
L 3047 1722 
L 2188 4044 
z
M 1831 4666 
L 2547 4666 
L 4325 0 
L 3669 0 
L 3244 1197 
L 1141 1197 
L 716 0 
L 50 0 
L 1831 4666 
z
" transform="scale(0.015625)"/>
      </defs>
      <use xlink:href="#DejaVuSans-46"/>
      <use xlink:href="#DejaVuSans-72" transform="translate(50.269531 0)"/>
      <use xlink:href="#DejaVuSans-65" transform="translate(89.132812 0)"/>
      <use xlink:href="#DejaVuSans-65" transform="translate(150.65625 0)"/>
      <use xlink:href="#DejaVuSans-53" transform="translate(212.179688 0)"/>
      <use xlink:href="#DejaVuSans-41" transform="translate(277.53125 0)"/>
      <use xlink:href="#DejaVuSans-53" transform="translate(345.939453 0)"/>
      <use xlink:href="#DejaVuSans-41" transform="translate(411.291016 0)"/>
      <use xlink:href="#DejaVuSans-20" transform="translate(479.699219 0)"/>
      <use xlink:href="#DejaVuSans-62" transform="translate(511.486328 0)"/>
      <use xlink:href="#DejaVuSans-61" transform="translate(574.962891 0)"/>
      <use xlink:href="#DejaVuSans-74" transform="translate(636.242188 0)"/>
      <use xlink:href="#DejaVuSans-63" transform="translate(675.451172 0)"/>
      <use xlink:href="#DejaVuSans-68" transform="translate(730.431641 0)"/>
     </g>
    </g>
    <g id="line2d_66">
     <path d="M 478.881323 284.197957 
L 486.881323 284.197957 
L 494.881323 284.197957 
" style="fill: none; stroke: #e74c3c; stroke-width: 1.8; stroke-linecap: square"/>
     <g>
      <use xlink:href="#m30eefd92f7" x="486.881323" y="284.197957" style="fill: #e74c3c; stroke: #e74c3c"/>
     </g>
    </g>
    <g id="text_33">
     <!-- RustSASA -->
     <g transform="translate(501.281322 286.997957) scale(0.08 -0.08)">
      <defs>
       <path id="DejaVuSans-52" d="M 2841 2188 
Q 3044 2119 3236 1894 
Q 3428 1669 3622 1275 
L 4263 0 
L 3584 0 
L 2988 1197 
Q 2756 1666 2539 1819 
Q 2322 1972 1947 1972 
L 1259 1972 
L 1259 0 
L 628 0 
L 628 4666 
L 2053 4666 
Q 2853 4666 3247 4331 
Q 3641 3997 3641 3322 
Q 3641 2881 3436 2590 
Q 3231 2300 2841 2188 
z
M 1259 4147 
L 1259 2491 
L 2053 2491 
Q 2509 2491 2742 2702 
Q 2975 2913 2975 3322 
Q 2975 3731 2742 3939 
Q 2509 4147 2053 4147 
L 1259 4147 
z
" transform="scale(0.015625)"/>
      </defs>
      <use xlink:href="#DejaVuSans-52"/>
      <use xlink:href="#DejaVuSans-75" transform="translate(64.982422 0)"/>
      <use xlink:href="#DejaVuSans-73" transform="translate(128.361328 0)"/>
      <use xlink:href="#DejaVuSans-74" transform="translate(180.460938 0)"/>
      <use xlink:href="#DejaVuSans-53" transform="translate(219.669922 0)"/>
      <use xlink:href="#DejaVuSans-41" transform="translate(285.021484 0)"/>
      <use xlink:href="#DejaVuSans-53" transform="translate(353.429688 0)"/>
      <use xlink:href="#DejaVuSans-41" transform="translate(418.78125 0)"/>
     </g>
    </g>
    <g id="line2d_67">
     <path d="M 478.881323 295.940457 
L 486.881323 295.940457 
L 494.881323 295.940457 
" style="fill: none; stroke: #8e44ad; stroke-width: 1.8; stroke-linecap: square"/>
     <g>
      <use xlink:href="#m97f591b784" x="486.881323" y="295.940457" style="fill: #8e44ad; stroke: #8e44ad"/>
     </g>
    </g>
    <g id="text_34">
     <!-- Lahuta -->
     <g transform="translate(501.281322 298.740457) scale(0.08 -0.08)">
      <defs>
       <path id="DejaVuSans-4c" d="M 628 4666 
L 1259 4666 
L 1259 531 
L 3531 531 
L 3531 0 
L 628 0 
L 628 4666 
z
" transform="scale(0.015625)"/>
      </defs>
      <use xlink:href="#DejaVuSans-4c"/>
      <use xlink:href="#DejaVuSans-61" transform="translate(55.712891 0)"/>
      <use xlink:href="#DejaVuSans-68" transform="translate(116.992188 0)"/>
      <use xlink:href="#DejaVuSans-75" transform="translate(180.371094 0)"/>
      <use xlink:href="#DejaVuSans-74" transform="translate(243.75 0)"/>
      <use xlink:href="#DejaVuSans-61" transform="translate(282.958984 0)"/>
     </g>
    </g>
    <g id="line2d_68">
     <path d="M 478.881323 307.682957 
L 486.881323 307.682957 
L 494.881323 307.682957 
" style="fill: none; stroke: #c39bd3; stroke-width: 1.8; stroke-linecap: square"/>
     <g>
      <use xlink:href="#md6f50a6e4e" x="486.881323" y="307.682957" style="fill: #c39bd3; stroke: #c39bd3"/>
     </g>
    </g>
    <g id="text_35">
     <!-- Lahuta bitmask -->
     <g transform="translate(501.281322 310.482957) scale(0.08 -0.08)">
      <use xlink:href="#DejaVuSans-4c"/>
      <use xlink:href="#DejaVuSans-61" transform="translate(55.712891 0)"/>
      <use xlink:href="#DejaVuSans-68" transform="translate(116.992188 0)"/>
      <use xlink:href="#DejaVuSans-75" transform="translate(180.371094 0)"/>
      <use xlink:href="#DejaVuSans-74" transform="translate(243.75 0)"/>
      <use xlink:href="#DejaVuSans-61" transform="translate(282.958984 0)"/>
      <use xlink:href="#DejaVuSans-20" transform="translate(344.238281 0)"/>
      <use xlink:href="#DejaVuSans-62" transform="translate(376.025391 0)"/>
      <use xlink:href="#DejaVuSans-69" transform="translate(439.501953 0)"/>
      <use xlink:href="#DejaVuSans-74" transform="translate(467.285156 0)"/>
      <use xlink:href="#DejaVuSans-6d" transform="translate(506.494141 0)"/>
      <use xlink:href="#DejaVuSans-61" transform="translate(603.90625 0)"/>
      <use xlink:href="#DejaVuSans-73" transform="translate(665.185547 0)"/>
      <use xlink:href="#DejaVuSans-6b" transform="translate(717.285156 0)"/>
     </g>
    </g>
   </g>
  </g>
 </g>
 <defs>
  <clipPath id="pf6804c7a1c">
   <rect x="37.090313" y="21.558281" width="393.518198" height="297.788426"/>
  </clipPath>
  <clipPath id="p9a3513bb7f">
   <rect x="471.681323" y="21.558281" width="393.518197" height="297.788426"/>
  </clipPath>
 </defs>
</svg>
