<?xml version="1.0" encoding="utf-8" standalone="no"?>
<!DOCTYPE svg PUBLIC "-//W3C//DTD SVG 1.1//EN"
  "http://www.w3.org/Graphics/SVG/1.1/DTD/svg11.dtd">
<svg xmlns:xlink="http://www.w3.org/1999/xlink" width="771.598077pt" height="332.39952pt" viewBox="0 0 771.598077 332.39952" xmlns="http://www.w3.org/2000/svg" version="1.1">
 <metadata>
  <rdf:RDF xmlns:dc="http://purl.org/dc/elements/1.1/" xmlns:cc="http://creativecommons.org/ns#" xmlns:rdf="http://www.w3.org/1999/02/22-rdf-syntax-ns#">
   <cc:Work>
    <dc:type rdf:resource="http://purl.org/dc/dcmitype/StillImage"/>
    <dc:date>2026-07-18T14:09:23.972804</dc:date>
    <dc:format>image/svg+xml</dc:format>
    <dc:creator>
     <cc:Agent>
      <dc:title>Matplotlib v3.10.9, https://matplotlib.org/</dc:title>
     </cc:Agent>
    </dc:creator>
   </cc:Work>
  </rdf:RDF>
 </metadata>
 <defs>
  <style type="text/css">*{stroke-linejoin: round; stroke-linecap: butt}</style>
 </defs>
 <g id="figure_1">
  <g id="patch_1">
   <path d="M 0 332.39952 
L 771.598077 332.39952 
L 771.598077 0 
L 0 0 
z
" style="fill: #ffffff"/>
  </g>
  <g id="axes_1">
   <g id="patch_2">
    <path d="M 44.899872 296.46702 
L 359.065475 296.46702 
L 359.065475 44.569305 
L 44.899872 44.569305 
z
" style="fill: #ffffff"/>
   </g>
   <g id="line2d_1">
    <path d="M 88.533984 296.46702 
L 88.533984 44.569305 
" clip-path="url(#p43fec20541)" style="fill: none; stroke-dasharray: 1.2,1.98; stroke-dashoffset: 0; stroke: #595959; stroke-width: 1.2"/>
   </g>
   <g id="matplotlib.axis_1">
    <g id="xtick_1">
     <g id="line2d_2">
      <path d="M 44.899872 296.46702 
L 44.899872 44.569305 
" clip-path="url(#p43fec20541)" style="fill: none; stroke: #b0b0b0; stroke-opacity: 0.25; stroke-width: 0.8; stroke-linecap: square"/>
     </g>
     <g id="line2d_3">
      <defs>
       <path id="m1d03ba32f6" d="M 0 0 
L 0 3.5 
" style="stroke: #000000; stroke-width: 0.8"/>
      </defs>
      <g>
       <use xlink:href="#m1d03ba32f6" x="44.899872" y="296.46702" style="stroke: #000000; stroke-width: 0.8"/>
      </g>
     </g>
     <g id="text_1">
      <!-- 0.9 -->
      <g transform="translate(38.538622 309.54577) scale(0.08 -0.08)">
       <defs>
        <path id="DejaVuSans-30" d="M 2034 4250 
Q 1547 4250 1301 3770 
Q 1056 3291 1056 2328 
Q 1056 1369 1301 889 
Q 1547 409 2034 409 
Q 2525 409 2770 889 
Q 3016 1369 3016 2328 
Q 3016 3291 2770 3770 
Q 2525 4250 2034 4250 
z
M 2034 4750 
Q 2819 4750 3233 4129 
Q 3647 3509 3647 2328 
Q 3647 1150 3233 529 
Q 2819 -91 2034 -91 
Q 1250 -91 836 529 
Q 422 1150 422 2328 
Q 422 3509 836 4129 
Q 1250 4750 2034 4750 
z
" transform="scale(0.015625)"/>
        <path id="DejaVuSans-2e" d="M 684 794 
L 1344 794 
L 1344 0 
L 684 0 
L 684 794 
z
" transform="scale(0.015625)"/>
        <path id="DejaVuSans-39" d="M 703 97 
L 703 672 
Q 941 559 1184 500 
Q 1428 441 1663 441 
Q 2288 441 2617 861 
Q 2947 1281 2994 2138 
Q 2813 1869 2534 1725 
Q 2256 1581 1919 1581 
Q 1219 1581 811 2004 
Q 403 2428 403 3163 
Q 403 3881 828 4315 
Q 1253 4750 1959 4750 
Q 2769 4750 3195 4129 
Q 3622 3509 3622 2328 
Q 3622 1225 3098 567 
Q 2575 -91 1691 -91 
Q 1453 -91 1209 -44 
Q 966 3 703 97 
z
M 1959 2075 
Q 2384 2075 2632 2365 
Q 2881 2656 2881 3163 
Q 2881 3666 2632 3958 
Q 2384 4250 1959 4250 
Q 1534 4250 1286 3958 
Q 1038 3666 1038 3163 
Q 1038 2656 1286 2365 
Q 1534 2075 1959 2075 
z
" transform="scale(0.015625)"/>
       </defs>
       <use xlink:href="#DejaVuSans-30"/>
       <use xlink:href="#DejaVuSans-2e" transform="translate(63.623047 0)"/>
       <use xlink:href="#DejaVuSans-39" transform="translate(95.410156 0)"/>
      </g>
     </g>
    </g>
    <g id="xtick_2">
     <g id="line2d_4">
      <path d="M 88.533984 296.46702 
L 88.533984 44.569305 
" clip-path="url(#p43fec20541)" style="fill: none; stroke: #b0b0b0; stroke-opacity: 0.25; stroke-width: 0.8; stroke-linecap: square"/>
     </g>
     <g id="line2d_5">
      <g>
       <use xlink:href="#m1d03ba32f6" x="88.533984" y="296.46702" style="stroke: #000000; stroke-width: 0.8"/>
      </g>
     </g>
     <g id="text_2">
      <!-- 1.0 -->
      <g transform="translate(82.172734 309.54577) scale(0.08 -0.08)">
       <defs>
        <path id="DejaVuSans-31" d="M 794 531 
L 1825 531 
L 1825 4091 
L 703 3866 
L 703 4441 
L 1819 4666 
L 2450 4666 
L 2450 531 
L 3481 531 
L 3481 0 
L 794 0 
L 794 531 
z
" transform="scale(0.015625)"/>
       </defs>
       <use xlink:href="#DejaVuSans-31"/>
       <use xlink:href="#DejaVuSans-2e" transform="translate(63.623047 0)"/>
       <use xlink:href="#DejaVuSans-30" transform="translate(95.410156 0)"/>
      </g>
     </g>
    </g>
    <g id="xtick_3">
     <g id="line2d_6">
      <path d="M 132.168095 296.46702 
L 132.168095 44.569305 
" clip-path="url(#p43fec20541)" style="fill: none; stroke: #b0b0b0; stroke-opacity: 0.25; stroke-width: 0.8; stroke-linecap: square"/>
     </g>
     <g id="line2d_7">
      <g>
       <use xlink:href="#m1d03ba32f6" x="132.168095" y="296.46702" style="stroke: #000000; stroke-width: 0.8"/>
      </g>
     </g>
     <g id="text_3">
      <!-- 1.1 -->
      <g transform="translate(125.806845 309.54577) scale(0.08 -0.08)">
       <use xlink:href="#DejaVuSans-31"/>
       <use xlink:href="#DejaVuSans-2e" transform="translate(63.623047 0)"/>
       <use xlink:href="#DejaVuSans-31" transform="translate(95.410156 0)"/>
      </g>
     </g>
    </g>
    <g id="xtick_4">
     <g id="line2d_8">
      <path d="M 175.802207 296.46702 
L 175.802207 44.569305 
" clip-path="url(#p43fec20541)" style="fill: none; stroke: #b0b0b0; stroke-opacity: 0.25; stroke-width: 0.8; stroke-linecap: square"/>
     </g>
     <g id="line2d_9">
      <g>
       <use xlink:href="#m1d03ba32f6" x="175.802207" y="296.46702" style="stroke: #000000; stroke-width: 0.8"/>
      </g>
     </g>
     <g id="text_4">
      <!-- 1.2 -->
      <g transform="translate(169.440957 309.54577) scale(0.08 -0.08)">
       <defs>
        <path id="DejaVuSans-32" d="M 1228 531 
L 3431 531 
L 3431 0 
L 469 0 
L 469 531 
Q 828 903 1448 1529 
Q 2069 2156 2228 2338 
Q 2531 2678 2651 2914 
Q 2772 3150 2772 3378 
Q 2772 3750 2511 3984 
Q 2250 4219 1831 4219 
Q 1534 4219 1204 4116 
Q 875 4013 500 3803 
L 500 4441 
Q 881 4594 1212 4672 
Q 1544 4750 1819 4750 
Q 2544 4750 2975 4387 
Q 3406 4025 3406 3419 
Q 3406 3131 3298 2873 
Q 3191 2616 2906 2266 
Q 2828 2175 2409 1742 
Q 1991 1309 1228 531 
z
" transform="scale(0.015625)"/>
       </defs>
       <use xlink:href="#DejaVuSans-31"/>
       <use xlink:href="#DejaVuSans-2e" transform="translate(63.623047 0)"/>
       <use xlink:href="#DejaVuSans-32" transform="translate(95.410156 0)"/>
      </g>
     </g>
    </g>
    <g id="xtick_5">
     <g id="line2d_10">
      <path d="M 219.436318 296.46702 
L 219.436318 44.569305 
" clip-path="url(#p43fec20541)" style="fill: none; stroke: #b0b0b0; stroke-opacity: 0.25; stroke-width: 0.8; stroke-linecap: square"/>
     </g>
     <g id="line2d_11">
      <g>
       <use xlink:href="#m1d03ba32f6" x="219.436318" y="296.46702" style="stroke: #000000; stroke-width: 0.8"/>
      </g>
     </g>
     <g id="text_5">
      <!-- 1.3 -->
      <g transform="translate(213.075068 309.54577) scale(0.08 -0.08)">
       <defs>
        <path id="DejaVuSans-33" d="M 2597 2516 
Q 3050 2419 3304 2112 
Q 3559 1806 3559 1356 
Q 3559 666 3084 287 
Q 2609 -91 1734 -91 
Q 1441 -91 1130 -33 
Q 819 25 488 141 
L 488 750 
Q 750 597 1062 519 
Q 1375 441 1716 441 
Q 2309 441 2620 675 
Q 2931 909 2931 1356 
Q 2931 1769 2642 2001 
Q 2353 2234 1838 2234 
L 1294 2234 
L 1294 2753 
L 1863 2753 
Q 2328 2753 2575 2939 
Q 2822 3125 2822 3475 
Q 2822 3834 2567 4026 
Q 2313 4219 1838 4219 
Q 1578 4219 1281 4162 
Q 984 4106 628 3988 
L 628 4550 
Q 988 4650 1302 4700 
Q 1616 4750 1894 4750 
Q 2613 4750 3031 4423 
Q 3450 4097 3450 3541 
Q 3450 3153 3228 2886 
Q 3006 2619 2597 2516 
z
" transform="scale(0.015625)"/>
       </defs>
       <use xlink:href="#DejaVuSans-31"/>
       <use xlink:href="#DejaVuSans-2e" transform="translate(63.623047 0)"/>
       <use xlink:href="#DejaVuSans-33" transform="translate(95.410156 0)"/>
      </g>
     </g>
    </g>
    <g id="xtick_6">
     <g id="line2d_12">
      <path d="M 263.07043 296.46702 
L 263.07043 44.569305 
" clip-path="url(#p43fec20541)" style="fill: none; stroke: #b0b0b0; stroke-opacity: 0.25; stroke-width: 0.8; stroke-linecap: square"/>
     </g>
     <g id="line2d_13">
      <g>
       <use xlink:href="#m1d03ba32f6" x="263.07043" y="296.46702" style="stroke: #000000; stroke-width: 0.8"/>
      </g>
     </g>
     <g id="text_6">
      <!-- 1.4 -->
      <g transform="translate(256.70918 309.54577) scale(0.08 -0.08)">
       <defs>
        <path id="DejaVuSans-34" d="M 2419 4116 
L 825 1625 
L 2419 1625 
L 2419 4116 
z
M 2253 4666 
L 3047 4666 
L 3047 1625 
L 3713 1625 
L 3713 1100 
L 3047 1100 
L 3047 0 
L 2419 0 
L 2419 1100 
L 313 1100 
L 313 1709 
L 2253 4666 
z
" transform="scale(0.015625)"/>
       </defs>
       <use xlink:href="#DejaVuSans-31"/>
       <use xlink:href="#DejaVuSans-2e" transform="translate(63.623047 0)"/>
       <use xlink:href="#DejaVuSans-34" transform="translate(95.410156 0)"/>
      </g>
     </g>
    </g>
    <g id="xtick_7">
     <g id="line2d_14">
      <path d="M 306.704541 296.46702 
L 306.704541 44.569305 
" clip-path="url(#p43fec20541)" style="fill: none; stroke: #b0b0b0; stroke-opacity: 0.25; stroke-width: 0.8; stroke-linecap: square"/>
     </g>
     <g id="line2d_15">
      <g>
       <use xlink:href="#m1d03ba32f6" x="306.704541" y="296.46702" style="stroke: #000000; stroke-width: 0.8"/>
      </g>
     </g>
     <g id="text_7">
      <!-- 1.5 -->
      <g transform="translate(300.343291 309.54577) scale(0.08 -0.08)">
       <defs>
        <path id="DejaVuSans-35" d="M 691 4666 
L 3169 4666 
L 3169 4134 
L 1269 4134 
L 1269 2991 
Q 1406 3038 1543 3061 
Q 1681 3084 1819 3084 
Q 2600 3084 3056 2656 
Q 3513 2228 3513 1497 
Q 3513 744 3044 326 
Q 2575 -91 1722 -91 
Q 1428 -91 1123 -41 
Q 819 9 494 109 
L 494 744 
Q 775 591 1075 516 
Q 1375 441 1709 441 
Q 2250 441 2565 725 
Q 2881 1009 2881 1497 
Q 2881 1984 2565 2268 
Q 2250 2553 1709 2553 
Q 1456 2553 1204 2497 
Q 953 2441 691 2322 
L 691 4666 
z
" transform="scale(0.015625)"/>
       </defs>
       <use xlink:href="#DejaVuSans-31"/>
       <use xlink:href="#DejaVuSans-2e" transform="translate(63.623047 0)"/>
       <use xlink:href="#DejaVuSans-35" transform="translate(95.410156 0)"/>
      </g>
     </g>
    </g>
    <g id="xtick_8">
     <g id="line2d_16">
      <path d="M 350.338652 296.46702 
L 350.338652 44.569305 
" clip-path="url(#p43fec20541)" style="fill: none; stroke: #b0b0b0; stroke-opacity: 0.25; stroke-width: 0.8; stroke-linecap: square"/>
     </g>
     <g id="line2d_17">
      <g>
       <use xlink:href="#m1d03ba32f6" x="350.338652" y="296.46702" style="stroke: #000000; stroke-width: 0.8"/>
      </g>
     </g>
     <g id="text_8">
      <!-- 1.6 -->
      <g transform="translate(343.977402 309.54577) scale(0.08 -0.08)">
       <defs>
        <path id="DejaVuSans-36" d="M 2113 2584 
Q 1688 2584 1439 2293 
Q 1191 2003 1191 1497 
Q 1191 994 1439 701 
Q 1688 409 2113 409 
Q 2538 409 2786 701 
Q 3034 994 3034 1497 
Q 3034 2003 2786 2293 
Q 2538 2584 2113 2584 
z
M 3366 4563 
L 3366 3988 
Q 3128 4100 2886 4159 
Q 2644 4219 2406 4219 
Q 1781 4219 1451 3797 
Q 1122 3375 1075 2522 
Q 1259 2794 1537 2939 
Q 1816 3084 2150 3084 
Q 2853 3084 3261 2657 
Q 3669 2231 3669 1497 
Q 3669 778 3244 343 
Q 2819 -91 2113 -91 
Q 1303 -91 875 529 
Q 447 1150 447 2328 
Q 447 3434 972 4092 
Q 1497 4750 2381 4750 
Q 2619 4750 2861 4703 
Q 3103 4656 3366 4563 
z
" transform="scale(0.015625)"/>
       </defs>
       <use xlink:href="#DejaVuSans-31"/>
       <use xlink:href="#DejaVuSans-2e" transform="translate(63.623047 0)"/>
       <use xlink:href="#DejaVuSans-36" transform="translate(95.410156 0)"/>
      </g>
     </g>
    </g>
    <g id="text_9">
     <!-- Throughput ratio (zsasa / Lahuta) -->
     <g transform="translate(126.667439 322.048114) scale(0.09 -0.09)">
      <defs>
       <path id="DejaVuSans-54" d="M -19 4666 
L 3928 4666 
L 3928 4134 
L 2272 4134 
L 2272 0 
L 1638 0 
L 1638 4134 
L -19 4134 
L -19 4666 
z
" transform="scale(0.015625)"/>
       <path id="DejaVuSans-68" d="M 3513 2113 
L 3513 0 
L 2938 0 
L 2938 2094 
Q 2938 2591 2744 2837 
Q 2550 3084 2163 3084 
Q 1697 3084 1428 2787 
Q 1159 2491 1159 1978 
L 1159 0 
L 581 0 
L 581 4863 
L 1159 4863 
L 1159 2956 
Q 1366 3272 1645 3428 
Q 1925 3584 2291 3584 
Q 2894 3584 3203 3211 
Q 3513 2838 3513 2113 
z
" transform="scale(0.015625)"/>
       <path id="DejaVuSans-72" d="M 2631 2963 
Q 2534 3019 2420 3045 
Q 2306 3072 2169 3072 
Q 1681 3072 1420 2755 
Q 1159 2438 1159 1844 
L 1159 0 
L 581 0 
L 581 3500 
L 1159 3500 
L 1159 2956 
Q 1341 3275 1631 3429 
Q 1922 3584 2338 3584 
Q 2397 3584 2469 3576 
Q 2541 3569 2628 3553 
L 2631 2963 
z
" transform="scale(0.015625)"/>
       <path id="DejaVuSans-6f" d="M 1959 3097 
Q 1497 3097 1228 2736 
Q 959 2375 959 1747 
Q 959 1119 1226 758 
Q 1494 397 1959 397 
Q 2419 397 2687 759 
Q 2956 1122 2956 1747 
Q 2956 2369 2687 2733 
Q 2419 3097 1959 3097 
z
M 1959 3584 
Q 2709 3584 3137 3096 
Q 3566 2609 3566 1747 
Q 3566 888 3137 398 
Q 2709 -91 1959 -91 
Q 1206 -91 779 398 
Q 353 888 353 1747 
Q 353 2609 779 3096 
Q 1206 3584 1959 3584 
z
" transform="scale(0.015625)"/>
       <path id="DejaVuSans-75" d="M 544 1381 
L 544 3500 
L 1119 3500 
L 1119 1403 
Q 1119 906 1312 657 
Q 1506 409 1894 409 
Q 2359 409 2629 706 
Q 2900 1003 2900 1516 
L 2900 3500 
L 3475 3500 
L 3475 0 
L 2900 0 
L 2900 538 
Q 2691 219 2414 64 
Q 2138 -91 1772 -91 
Q 1169 -91 856 284 
Q 544 659 544 1381 
z
M 1991 3584 
L 1991 3584 
z
" transform="scale(0.015625)"/>
       <path id="DejaVuSans-67" d="M 2906 1791 
Q 2906 2416 2648 2759 
Q 2391 3103 1925 3103 
Q 1463 3103 1205 2759 
Q 947 2416 947 1791 
Q 947 1169 1205 825 
Q 1463 481 1925 481 
Q 2391 481 2648 825 
Q 2906 1169 2906 1791 
z
M 3481 434 
Q 3481 -459 3084 -895 
Q 2688 -1331 1869 -1331 
Q 1566 -1331 1297 -1286 
Q 1028 -1241 775 -1147 
L 775 -588 
Q 1028 -725 1275 -790 
Q 1522 -856 1778 -856 
Q 2344 -856 2625 -561 
Q 2906 -266 2906 331 
L 2906 616 
Q 2728 306 2450 153 
Q 2172 0 1784 0 
Q 1141 0 747 490 
Q 353 981 353 1791 
Q 353 2603 747 3093 
Q 1141 3584 1784 3584 
Q 2172 3584 2450 3431 
Q 2728 3278 2906 2969 
L 2906 3500 
L 3481 3500 
L 3481 434 
z
" transform="scale(0.015625)"/>
       <path id="DejaVuSans-70" d="M 1159 525 
L 1159 -1331 
L 581 -1331 
L 581 3500 
L 1159 3500 
L 1159 2969 
Q 1341 3281 1617 3432 
Q 1894 3584 2278 3584 
Q 2916 3584 3314 3078 
Q 3713 2572 3713 1747 
Q 3713 922 3314 415 
Q 2916 -91 2278 -91 
Q 1894 -91 1617 61 
Q 1341 213 1159 525 
z
M 3116 1747 
Q 3116 2381 2855 2742 
Q 2594 3103 2138 3103 
Q 1681 3103 1420 2742 
Q 1159 2381 1159 1747 
Q 1159 1113 1420 752 
Q 1681 391 2138 391 
Q 2594 391 2855 752 
Q 3116 1113 3116 1747 
z
" transform="scale(0.015625)"/>
       <path id="DejaVuSans-74" d="M 1172 4494 
L 1172 3500 
L 2356 3500 
L 2356 3053 
L 1172 3053 
L 1172 1153 
Q 1172 725 1289 603 
Q 1406 481 1766 481 
L 2356 481 
L 2356 0 
L 1766 0 
Q 1100 0 847 248 
Q 594 497 594 1153 
L 594 3053 
L 172 3053 
L 172 3500 
L 594 3500 
L 594 4494 
L 1172 4494 
z
" transform="scale(0.015625)"/>
       <path id="DejaVuSans-20" transform="scale(0.015625)"/>
       <path id="DejaVuSans-61" d="M 2194 1759 
Q 1497 1759 1228 1600 
Q 959 1441 959 1056 
Q 959 750 1161 570 
Q 1363 391 1709 391 
Q 2188 391 2477 730 
Q 2766 1069 2766 1631 
L 2766 1759 
L 2194 1759 
z
M 3341 1997 
L 3341 0 
L 2766 0 
L 2766 531 
Q 2569 213 2275 61 
Q 1981 -91 1556 -91 
Q 1019 -91 701 211 
Q 384 513 384 1019 
Q 384 1609 779 1909 
Q 1175 2209 1959 2209 
L 2766 2209 
L 2766 2266 
Q 2766 2663 2505 2880 
Q 2244 3097 1772 3097 
Q 1472 3097 1187 3025 
Q 903 2953 641 2809 
L 641 3341 
Q 956 3463 1253 3523 
Q 1550 3584 1831 3584 
Q 2591 3584 2966 3190 
Q 3341 2797 3341 1997 
z
" transform="scale(0.015625)"/>
       <path id="DejaVuSans-69" d="M 603 3500 
L 1178 3500 
L 1178 0 
L 603 0 
L 603 3500 
z
M 603 4863 
L 1178 4863 
L 1178 4134 
L 603 4134 
L 603 4863 
z
" transform="scale(0.015625)"/>
       <path id="DejaVuSans-28" d="M 1984 4856 
Q 1566 4138 1362 3434 
Q 1159 2731 1159 2009 
Q 1159 1288 1364 580 
Q 1569 -128 1984 -844 
L 1484 -844 
Q 1016 -109 783 600 
Q 550 1309 550 2009 
Q 550 2706 781 3412 
Q 1013 4119 1484 4856 
L 1984 4856 
z
" transform="scale(0.015625)"/>
       <path id="DejaVuSans-7a" d="M 353 3500 
L 3084 3500 
L 3084 2975 
L 922 459 
L 3084 459 
L 3084 0 
L 275 0 
L 275 525 
L 2438 3041 
L 353 3041 
L 353 3500 
z
" transform="scale(0.015625)"/>
       <path id="DejaVuSans-73" d="M 2834 3397 
L 2834 2853 
Q 2591 2978 2328 3040 
Q 2066 3103 1784 3103 
Q 1356 3103 1142 2972 
Q 928 2841 928 2578 
Q 928 2378 1081 2264 
Q 1234 2150 1697 2047 
L 1894 2003 
Q 2506 1872 2764 1633 
Q 3022 1394 3022 966 
Q 3022 478 2636 193 
Q 2250 -91 1575 -91 
Q 1294 -91 989 -36 
Q 684 19 347 128 
L 347 722 
Q 666 556 975 473 
Q 1284 391 1588 391 
Q 1994 391 2212 530 
Q 2431 669 2431 922 
Q 2431 1156 2273 1281 
Q 2116 1406 1581 1522 
L 1381 1569 
Q 847 1681 609 1914 
Q 372 2147 372 2553 
Q 372 3047 722 3315 
Q 1072 3584 1716 3584 
Q 2034 3584 2315 3537 
Q 2597 3491 2834 3397 
z
" transform="scale(0.015625)"/>
       <path id="DejaVuSans-2f" d="M 1625 4666 
L 2156 4666 
L 531 -594 
L 0 -594 
L 1625 4666 
z
" transform="scale(0.015625)"/>
       <path id="DejaVuSans-4c" d="M 628 4666 
L 1259 4666 
L 1259 531 
L 3531 531 
L 3531 0 
L 628 0 
L 628 4666 
z
" transform="scale(0.015625)"/>
       <path id="DejaVuSans-29" d="M 513 4856 
L 1013 4856 
Q 1481 4119 1714 3412 
Q 1947 2706 1947 2009 
Q 1947 1309 1714 600 
Q 1481 -109 1013 -844 
L 513 -844 
Q 928 -128 1133 580 
Q 1338 1288 1338 2009 
Q 1338 2731 1133 3434 
Q 928 4138 513 4856 
z
" transform="scale(0.015625)"/>
      </defs>
      <use xlink:href="#DejaVuSans-54"/>
      <use xlink:href="#DejaVuSans-68" transform="translate(61.083984 0)"/>
      <use xlink:href="#DejaVuSans-72" transform="translate(124.462891 0)"/>
      <use xlink:href="#DejaVuSans-6f" transform="translate(163.326172 0)"/>
      <use xlink:href="#DejaVuSans-75" transform="translate(224.507812 0)"/>
      <use xlink:href="#DejaVuSans-67" transform="translate(287.886719 0)"/>
      <use xlink:href="#DejaVuSans-68" transform="translate(351.363281 0)"/>
      <use xlink:href="#DejaVuSans-70" transform="translate(414.742188 0)"/>
      <use xlink:href="#DejaVuSans-75" transform="translate(478.21875 0)"/>
      <use xlink:href="#DejaVuSans-74" transform="translate(541.597656 0)"/>
      <use xlink:href="#DejaVuSans-20" transform="translate(580.806641 0)"/>
      <use xlink:href="#DejaVuSans-72" transform="translate(612.59375 0)"/>
      <use xlink:href="#DejaVuSans-61" transform="translate(653.707031 0)"/>
      <use xlink:href="#DejaVuSans-74" transform="translate(714.986328 0)"/>
      <use xlink:href="#DejaVuSans-69" transform="translate(754.195312 0)"/>
      <use xlink:href="#DejaVuSans-6f" transform="translate(781.978516 0)"/>
      <use xlink:href="#DejaVuSans-20" transform="translate(843.160156 0)"/>
      <use xlink:href="#DejaVuSans-28" transform="translate(874.947266 0)"/>
      <use xlink:href="#DejaVuSans-7a" transform="translate(913.960938 0)"/>
      <use xlink:href="#DejaVuSans-73" transform="translate(966.451172 0)"/>
      <use xlink:href="#DejaVuSans-61" transform="translate(1018.550781 0)"/>
      <use xlink:href="#DejaVuSans-73" transform="translate(1079.830078 0)"/>
      <use xlink:href="#DejaVuSans-61" transform="translate(1131.929688 0)"/>
      <use xlink:href="#DejaVuSans-20" transform="translate(1193.208984 0)"/>
      <use xlink:href="#DejaVuSans-2f" transform="translate(1224.996094 0)"/>
      <use xlink:href="#DejaVuSans-20" transform="translate(1258.6875 0)"/>
      <use xlink:href="#DejaVuSans-4c" transform="translate(1290.474609 0)"/>
      <use xlink:href="#DejaVuSans-61" transform="translate(1346.1875 0)"/>
      <use xlink:href="#DejaVuSans-68" transform="translate(1407.466797 0)"/>
      <use xlink:href="#DejaVuSans-75" transform="translate(1470.845703 0)"/>
      <use xlink:href="#DejaVuSans-74" transform="translate(1534.224609 0)"/>
      <use xlink:href="#DejaVuSans-61" transform="translate(1573.433594 0)"/>
      <use xlink:href="#DejaVuSans-29" transform="translate(1634.712891 0)"/>
     </g>
    </g>
   </g>
   <g id="matplotlib.axis_2">
    <g id="ytick_1">
     <g id="line2d_18">
      <defs>
       <path id="m7a2e0c7d72" d="M 0 0 
L -3.5 0 
" style="stroke: #000000; stroke-width: 0.8"/>
      </defs>
      <g>
       <use xlink:href="#m7a2e0c7d72" x="44.899872" y="110.542516" style="stroke: #000000; stroke-width: 0.8"/>
      </g>
     </g>
     <g id="text_10">
      <!-- PDB -->
      <g transform="translate(21.427372 113.581891) scale(0.08 -0.08)">
       <defs>
        <path id="DejaVuSans-50" d="M 1259 4147 
L 1259 2394 
L 2053 2394 
Q 2494 2394 2734 2622 
Q 2975 2850 2975 3272 
Q 2975 3691 2734 3919 
Q 2494 4147 2053 4147 
L 1259 4147 
z
M 628 4666 
L 2053 4666 
Q 2838 4666 3239 4311 
Q 3641 3956 3641 3272 
Q 3641 2581 3239 2228 
Q 2838 1875 2053 1875 
L 1259 1875 
L 1259 0 
L 628 0 
L 628 4666 
z
" transform="scale(0.015625)"/>
        <path id="DejaVuSans-44" d="M 1259 4147 
L 1259 519 
L 2022 519 
Q 2988 519 3436 956 
Q 3884 1394 3884 2338 
Q 3884 3275 3436 3711 
Q 2988 4147 2022 4147 
L 1259 4147 
z
M 628 4666 
L 1925 4666 
Q 3281 4666 3915 4102 
Q 4550 3538 4550 2338 
Q 4550 1131 3912 565 
Q 3275 0 1925 0 
L 628 0 
L 628 4666 
z
" transform="scale(0.015625)"/>
        <path id="DejaVuSans-42" d="M 1259 2228 
L 1259 519 
L 2272 519 
Q 2781 519 3026 730 
Q 3272 941 3272 1375 
Q 3272 1813 3026 2020 
Q 2781 2228 2272 2228 
L 1259 2228 
z
M 1259 4147 
L 1259 2741 
L 2194 2741 
Q 2656 2741 2882 2914 
Q 3109 3088 3109 3444 
Q 3109 3797 2882 3972 
Q 2656 4147 2194 4147 
L 1259 4147 
z
M 628 4666 
L 2241 4666 
Q 2963 4666 3353 4366 
Q 3744 4066 3744 3513 
Q 3744 3084 3544 2831 
Q 3344 2578 2956 2516 
Q 3422 2416 3680 2098 
Q 3938 1781 3938 1306 
Q 3938 681 3513 340 
Q 3088 0 2303 0 
L 628 0 
L 628 4666 
z
" transform="scale(0.015625)"/>
       </defs>
       <use xlink:href="#DejaVuSans-50"/>
       <use xlink:href="#DejaVuSans-44" transform="translate(60.302734 0)"/>
       <use xlink:href="#DejaVuSans-42" transform="translate(137.304688 0)"/>
      </g>
     </g>
    </g>
    <g id="ytick_2">
     <g id="line2d_19">
      <g>
       <use xlink:href="#m7a2e0c7d72" x="44.899872" y="230.493809" style="stroke: #000000; stroke-width: 0.8"/>
      </g>
     </g>
     <g id="text_11">
      <!-- mmCIF -->
      <g transform="translate(9.767372 233.533184) scale(0.08 -0.08)">
       <defs>
        <path id="DejaVuSans-6d" d="M 3328 2828 
Q 3544 3216 3844 3400 
Q 4144 3584 4550 3584 
Q 5097 3584 5394 3201 
Q 5691 2819 5691 2113 
L 5691 0 
L 5113 0 
L 5113 2094 
Q 5113 2597 4934 2840 
Q 4756 3084 4391 3084 
Q 3944 3084 3684 2787 
Q 3425 2491 3425 1978 
L 3425 0 
L 2847 0 
L 2847 2094 
Q 2847 2600 2669 2842 
Q 2491 3084 2119 3084 
Q 1678 3084 1418 2786 
Q 1159 2488 1159 1978 
L 1159 0 
L 581 0 
L 581 3500 
L 1159 3500 
L 1159 2956 
Q 1356 3278 1631 3431 
Q 1906 3584 2284 3584 
Q 2666 3584 2933 3390 
Q 3200 3197 3328 2828 
z
" transform="scale(0.015625)"/>
        <path id="DejaVuSans-43" d="M 4122 4306 
L 4122 3641 
Q 3803 3938 3442 4084 
Q 3081 4231 2675 4231 
Q 1875 4231 1450 3742 
Q 1025 3253 1025 2328 
Q 1025 1406 1450 917 
Q 1875 428 2675 428 
Q 3081 428 3442 575 
Q 3803 722 4122 1019 
L 4122 359 
Q 3791 134 3420 21 
Q 3050 -91 2638 -91 
Q 1578 -91 968 557 
Q 359 1206 359 2328 
Q 359 3453 968 4101 
Q 1578 4750 2638 4750 
Q 3056 4750 3426 4639 
Q 3797 4528 4122 4306 
z
" transform="scale(0.015625)"/>
        <path id="DejaVuSans-49" d="M 628 4666 
L 1259 4666 
L 1259 0 
L 628 0 
L 628 4666 
z
" transform="scale(0.015625)"/>
        <path id="DejaVuSans-46" d="M 628 4666 
L 3309 4666 
L 3309 4134 
L 1259 4134 
L 1259 2759 
L 3109 2759 
L 3109 2228 
L 1259 2228 
L 1259 0 
L 628 0 
L 628 4666 
z
" transform="scale(0.015625)"/>
       </defs>
       <use xlink:href="#DejaVuSans-6d"/>
       <use xlink:href="#DejaVuSans-6d" transform="translate(97.412109 0)"/>
       <use xlink:href="#DejaVuSans-43" transform="translate(194.824219 0)"/>
       <use xlink:href="#DejaVuSans-49" transform="translate(264.648438 0)"/>
       <use xlink:href="#DejaVuSans-46" transform="translate(294.140625 0)"/>
      </g>
     </g>
    </g>
   </g>
   <g id="LineCollection_1">
    <path d="M 301.94109 110.542516 
L 308.731823 110.542516 
" clip-path="url(#p43fec20541)" style="fill: none; stroke: #e67e22; stroke-width: 1.5"/>
   </g>
   <g id="line2d_20">
    <defs>
     <path id="ma55d9662a2" d="M 0 3 
L 0 -3 
" style="stroke: #e67e22"/>
    </defs>
    <g clip-path="url(#p43fec20541)">
     <use xlink:href="#ma55d9662a2" x="301.94109" y="110.542516" style="fill: #e67e22; stroke: #e67e22"/>
    </g>
   </g>
   <g id="line2d_21">
    <g clip-path="url(#p43fec20541)">
     <use xlink:href="#ma55d9662a2" x="308.731823" y="110.542516" style="fill: #e67e22; stroke: #e67e22"/>
    </g>
   </g>
   <g id="LineCollection_2">
    <path d="M 70.493092 230.493809 
L 86.464968 230.493809 
" clip-path="url(#p43fec20541)" style="fill: none; stroke: #c39bd3; stroke-width: 1.5"/>
   </g>
   <g id="line2d_22">
    <defs>
     <path id="mc629ab0a45" d="M 0 3 
L 0 -3 
" style="stroke: #c39bd3"/>
    </defs>
    <g clip-path="url(#p43fec20541)">
     <use xlink:href="#mc629ab0a45" x="70.493092" y="230.493809" style="fill: #c39bd3; stroke: #c39bd3"/>
    </g>
   </g>
   <g id="line2d_23">
    <g clip-path="url(#p43fec20541)">
     <use xlink:href="#mc629ab0a45" x="86.464968" y="230.493809" style="fill: #c39bd3; stroke: #c39bd3"/>
    </g>
   </g>
   <g id="line2d_24">
    <path d="M 305.336456 110.542516 
" clip-path="url(#p43fec20541)" style="fill: none; stroke: #e67e22; stroke-width: 1.5; stroke-linecap: square"/>
    <defs>
     <path id="m610fbd61f8" d="M 0 4.5 
C 1.193414 4.5 2.338109 4.025852 3.181981 3.181981 
C 4.025852 2.338109 4.5 1.193414 4.5 0 
C 4.5 -1.193414 4.025852 -2.338109 3.181981 -3.181981 
C 2.338109 -4.025852 1.193414 -4.5 0 -4.5 
C -1.193414 -4.5 -2.338109 -4.025852 -3.181981 -3.181981 
C -4.025852 -2.338109 -4.5 -1.193414 -4.5 0 
C -4.5 1.193414 -4.025852 2.338109 -3.181981 3.181981 
C -2.338109 4.025852 -1.193414 4.5 0 4.5 
z
" style="stroke: #e67e22"/>
    </defs>
    <g clip-path="url(#p43fec20541)">
     <use xlink:href="#m610fbd61f8" x="305.336456" y="110.542516" style="fill: #e67e22; stroke: #e67e22"/>
    </g>
   </g>
   <g id="line2d_25">
    <path d="M 78.47903 230.493809 
" clip-path="url(#p43fec20541)" style="fill: none; stroke: #c39bd3; stroke-width: 1.5; stroke-linecap: square"/>
    <defs>
     <path id="mae54bf9b1a" d="M -1.5 4.5 
L 1.5 4.5 
L 1.5 1.5 
L 4.5 1.5 
L 4.5 -1.5 
L 1.5 -1.5 
L 1.5 -4.5 
L -1.5 -4.5 
L -1.5 -1.5 
L -4.5 -1.5 
L -4.5 1.5 
L -1.5 1.5 
z
" style="stroke: #c39bd3; stroke-linejoin: miter"/>
    </defs>
    <g clip-path="url(#p43fec20541)">
     <use xlink:href="#mae54bf9b1a" x="78.47903" y="230.493809" style="fill: #c39bd3; stroke: #c39bd3; stroke-linejoin: miter"/>
    </g>
   </g>
   <g id="patch_3">
    <path d="M 44.899872 296.46702 
L 44.899872 44.569305 
" style="fill: none; stroke: #000000; stroke-width: 0.8; stroke-linejoin: miter; stroke-linecap: square"/>
   </g>
   <g id="patch_4">
    <path d="M 44.899872 296.46702 
L 359.065475 296.46702 
" style="fill: none; stroke: #000000; stroke-width: 0.8; stroke-linejoin: miter; stroke-linecap: square"/>
   </g>
   <g id="text_12">
    <!-- 1.50× -->
    <g style="fill: #e67e22" transform="translate(313.336456 113.025953) scale(0.09 -0.09)">
     <defs>
      <path id="DejaVuSans-Bold-31" d="M 750 831 
L 1813 831 
L 1813 3847 
L 722 3622 
L 722 4441 
L 1806 4666 
L 2950 4666 
L 2950 831 
L 4013 831 
L 4013 0 
L 750 0 
L 750 831 
z
" transform="scale(0.015625)"/>
      <path id="DejaVuSans-Bold-2e" d="M 653 1209 
L 1778 1209 
L 1778 0 
L 653 0 
L 653 1209 
z
" transform="scale(0.015625)"/>
      <path id="DejaVuSans-Bold-35" d="M 678 4666 
L 3669 4666 
L 3669 3781 
L 1638 3781 
L 1638 3059 
Q 1775 3097 1914 3117 
Q 2053 3138 2203 3138 
Q 3056 3138 3531 2711 
Q 4006 2284 4006 1522 
Q 4006 766 3489 337 
Q 2972 -91 2053 -91 
Q 1656 -91 1267 -14 
Q 878 63 494 219 
L 494 1166 
Q 875 947 1217 837 
Q 1559 728 1863 728 
Q 2300 728 2551 942 
Q 2803 1156 2803 1522 
Q 2803 1891 2551 2103 
Q 2300 2316 1863 2316 
Q 1603 2316 1309 2248 
Q 1016 2181 678 2041 
L 678 4666 
z
" transform="scale(0.015625)"/>
      <path id="DejaVuSans-Bold-30" d="M 2944 2338 
Q 2944 3213 2780 3570 
Q 2616 3928 2228 3928 
Q 1841 3928 1675 3570 
Q 1509 3213 1509 2338 
Q 1509 1453 1675 1090 
Q 1841 728 2228 728 
Q 2613 728 2778 1090 
Q 2944 1453 2944 2338 
z
M 4147 2328 
Q 4147 1169 3647 539 
Q 3147 -91 2228 -91 
Q 1306 -91 806 539 
Q 306 1169 306 2328 
Q 306 3491 806 4120 
Q 1306 4750 2228 4750 
Q 3147 4750 3647 4120 
Q 4147 3491 4147 2328 
z
" transform="scale(0.015625)"/>
      <path id="DejaVuSans-Bold-d7" d="M 4563 3359 
L 3206 2003 
L 4563 653 
L 4038 128 
L 2681 1478 
L 1325 128 
L 800 653 
L 2156 2003 
L 800 3359 
L 1325 3884 
L 2681 2528 
L 4038 3884 
L 4563 3359 
z
" transform="scale(0.015625)"/>
     </defs>
     <use xlink:href="#DejaVuSans-Bold-31"/>
     <use xlink:href="#DejaVuSans-Bold-2e" transform="translate(69.580078 0)"/>
     <use xlink:href="#DejaVuSans-Bold-35" transform="translate(107.568359 0)"/>
     <use xlink:href="#DejaVuSans-Bold-30" transform="translate(177.148438 0)"/>
     <use xlink:href="#DejaVuSans-Bold-d7" transform="translate(246.728516 0)"/>
    </g>
   </g>
   <g id="text_13">
    <!-- 0.98× -->
    <g style="fill: #c39bd3" transform="translate(63.605827 248.977246) scale(0.09 -0.09)">
     <defs>
      <path id="DejaVuSans-Bold-39" d="M 641 103 
L 641 966 
Q 928 831 1190 764 
Q 1453 697 1709 697 
Q 2247 697 2547 995 
Q 2847 1294 2900 1881 
Q 2688 1725 2447 1647 
Q 2206 1569 1925 1569 
Q 1209 1569 770 1986 
Q 331 2403 331 3084 
Q 331 3838 820 4291 
Q 1309 4744 2131 4744 
Q 3044 4744 3544 4128 
Q 4044 3513 4044 2388 
Q 4044 1231 3459 570 
Q 2875 -91 1856 -91 
Q 1528 -91 1228 -42 
Q 928 6 641 103 
z
M 2125 2350 
Q 2441 2350 2600 2554 
Q 2759 2759 2759 3169 
Q 2759 3575 2600 3781 
Q 2441 3988 2125 3988 
Q 1809 3988 1650 3781 
Q 1491 3575 1491 3169 
Q 1491 2759 1650 2554 
Q 1809 2350 2125 2350 
z
" transform="scale(0.015625)"/>
      <path id="DejaVuSans-Bold-38" d="M 2228 2088 
Q 1891 2088 1709 1903 
Q 1528 1719 1528 1375 
Q 1528 1031 1709 848 
Q 1891 666 2228 666 
Q 2563 666 2741 848 
Q 2919 1031 2919 1375 
Q 2919 1722 2741 1905 
Q 2563 2088 2228 2088 
z
M 1350 2484 
Q 925 2613 709 2878 
Q 494 3144 494 3541 
Q 494 4131 934 4440 
Q 1375 4750 2228 4750 
Q 3075 4750 3515 4442 
Q 3956 4134 3956 3541 
Q 3956 3144 3739 2878 
Q 3522 2613 3097 2484 
Q 3572 2353 3814 2058 
Q 4056 1763 4056 1313 
Q 4056 619 3595 264 
Q 3134 -91 2228 -91 
Q 1319 -91 855 264 
Q 391 619 391 1313 
Q 391 1763 633 2058 
Q 875 2353 1350 2484 
z
M 1631 3419 
Q 1631 3141 1786 2991 
Q 1941 2841 2228 2841 
Q 2509 2841 2662 2991 
Q 2816 3141 2816 3419 
Q 2816 3697 2662 3845 
Q 2509 3994 2228 3994 
Q 1941 3994 1786 3844 
Q 1631 3694 1631 3419 
z
" transform="scale(0.015625)"/>
     </defs>
     <use xlink:href="#DejaVuSans-Bold-30"/>
     <use xlink:href="#DejaVuSans-Bold-2e" transform="translate(69.580078 0)"/>
     <use xlink:href="#DejaVuSans-Bold-39" transform="translate(107.568359 0)"/>
     <use xlink:href="#DejaVuSans-Bold-38" transform="translate(177.148438 0)"/>
     <use xlink:href="#DejaVuSans-Bold-d7" transform="translate(246.728516 0)"/>
    </g>
   </g>
   <g id="text_14">
    <!-- (a) -->
    <g transform="translate(7.2 32.20574) scale(0.11 -0.11)">
     <defs>
      <path id="DejaVuSans-Bold-28" d="M 2413 -844 
L 1484 -844 
Q 1006 -72 778 623 
Q 550 1319 550 2003 
Q 550 2688 779 3389 
Q 1009 4091 1484 4856 
L 2413 4856 
Q 2013 4116 1813 3408 
Q 1613 2700 1613 2009 
Q 1613 1319 1811 609 
Q 2009 -100 2413 -844 
z
" transform="scale(0.015625)"/>
      <path id="DejaVuSans-Bold-61" d="M 2106 1575 
Q 1756 1575 1579 1456 
Q 1403 1338 1403 1106 
Q 1403 894 1545 773 
Q 1688 653 1941 653 
Q 2256 653 2472 879 
Q 2688 1106 2688 1447 
L 2688 1575 
L 2106 1575 
z
M 3816 1997 
L 3816 0 
L 2688 0 
L 2688 519 
Q 2463 200 2181 54 
Q 1900 -91 1497 -91 
Q 953 -91 614 226 
Q 275 544 275 1050 
Q 275 1666 698 1953 
Q 1122 2241 2028 2241 
L 2688 2241 
L 2688 2328 
Q 2688 2594 2478 2717 
Q 2269 2841 1825 2841 
Q 1466 2841 1156 2769 
Q 847 2697 581 2553 
L 581 3406 
Q 941 3494 1303 3539 
Q 1666 3584 2028 3584 
Q 2975 3584 3395 3211 
Q 3816 2838 3816 1997 
z
" transform="scale(0.015625)"/>
      <path id="DejaVuSans-Bold-29" d="M 513 -844 
Q 913 -100 1113 609 
Q 1313 1319 1313 2009 
Q 1313 2700 1113 3408 
Q 913 4116 513 4856 
L 1441 4856 
Q 1916 4091 2145 3389 
Q 2375 2688 2375 2003 
Q 2375 1319 2147 623 
Q 1919 -72 1441 -844 
L 513 -844 
z
" transform="scale(0.015625)"/>
     </defs>
     <use xlink:href="#DejaVuSans-Bold-28"/>
     <use xlink:href="#DejaVuSans-Bold-61" transform="translate(45.703125 0)"/>
     <use xlink:href="#DejaVuSans-Bold-29" transform="translate(113.183594 0)"/>
    </g>
   </g>
   <g id="text_15">
    <!-- Observed mean ranking -->
    <g transform="translate(135.619158 38.569305) scale(0.11 -0.11)">
     <defs>
      <path id="DejaVuSans-4f" d="M 2522 4238 
Q 1834 4238 1429 3725 
Q 1025 3213 1025 2328 
Q 1025 1447 1429 934 
Q 1834 422 2522 422 
Q 3209 422 3611 934 
Q 4013 1447 4013 2328 
Q 4013 3213 3611 3725 
Q 3209 4238 2522 4238 
z
M 2522 4750 
Q 3503 4750 4090 4092 
Q 4678 3434 4678 2328 
Q 4678 1225 4090 567 
Q 3503 -91 2522 -91 
Q 1538 -91 948 565 
Q 359 1222 359 2328 
Q 359 3434 948 4092 
Q 1538 4750 2522 4750 
z
" transform="scale(0.015625)"/>
      <path id="DejaVuSans-62" d="M 3116 1747 
Q 3116 2381 2855 2742 
Q 2594 3103 2138 3103 
Q 1681 3103 1420 2742 
Q 1159 2381 1159 1747 
Q 1159 1113 1420 752 
Q 1681 391 2138 391 
Q 2594 391 2855 752 
Q 3116 1113 3116 1747 
z
M 1159 2969 
Q 1341 3281 1617 3432 
Q 1894 3584 2278 3584 
Q 2916 3584 3314 3078 
Q 3713 2572 3713 1747 
Q 3713 922 3314 415 
Q 2916 -91 2278 -91 
Q 1894 -91 1617 61 
Q 1341 213 1159 525 
L 1159 0 
L 581 0 
L 581 4863 
L 1159 4863 
L 1159 2969 
z
" transform="scale(0.015625)"/>
      <path id="DejaVuSans-65" d="M 3597 1894 
L 3597 1613 
L 953 1613 
Q 991 1019 1311 708 
Q 1631 397 2203 397 
Q 2534 397 2845 478 
Q 3156 559 3463 722 
L 3463 178 
Q 3153 47 2828 -22 
Q 2503 -91 2169 -91 
Q 1331 -91 842 396 
Q 353 884 353 1716 
Q 353 2575 817 3079 
Q 1281 3584 2069 3584 
Q 2775 3584 3186 3129 
Q 3597 2675 3597 1894 
z
M 3022 2063 
Q 3016 2534 2758 2815 
Q 2500 3097 2075 3097 
Q 1594 3097 1305 2825 
Q 1016 2553 972 2059 
L 3022 2063 
z
" transform="scale(0.015625)"/>
      <path id="DejaVuSans-76" d="M 191 3500 
L 800 3500 
L 1894 563 
L 2988 3500 
L 3597 3500 
L 2284 0 
L 1503 0 
L 191 3500 
z
" transform="scale(0.015625)"/>
      <path id="DejaVuSans-64" d="M 2906 2969 
L 2906 4863 
L 3481 4863 
L 3481 0 
L 2906 0 
L 2906 525 
Q 2725 213 2448 61 
Q 2172 -91 1784 -91 
Q 1150 -91 751 415 
Q 353 922 353 1747 
Q 353 2572 751 3078 
Q 1150 3584 1784 3584 
Q 2172 3584 2448 3432 
Q 2725 3281 2906 2969 
z
M 947 1747 
Q 947 1113 1208 752 
Q 1469 391 1925 391 
Q 2381 391 2643 752 
Q 2906 1113 2906 1747 
Q 2906 2381 2643 2742 
Q 2381 3103 1925 3103 
Q 1469 3103 1208 2742 
Q 947 2381 947 1747 
z
" transform="scale(0.015625)"/>
      <path id="DejaVuSans-6e" d="M 3513 2113 
L 3513 0 
L 2938 0 
L 2938 2094 
Q 2938 2591 2744 2837 
Q 2550 3084 2163 3084 
Q 1697 3084 1428 2787 
Q 1159 2491 1159 1978 
L 1159 0 
L 581 0 
L 581 3500 
L 1159 3500 
L 1159 2956 
Q 1366 3272 1645 3428 
Q 1925 3584 2291 3584 
Q 2894 3584 3203 3211 
Q 3513 2838 3513 2113 
z
" transform="scale(0.015625)"/>
      <path id="DejaVuSans-6b" d="M 581 4863 
L 1159 4863 
L 1159 1991 
L 2875 3500 
L 3609 3500 
L 1753 1863 
L 3688 0 
L 2938 0 
L 1159 1709 
L 1159 0 
L 581 0 
L 581 4863 
z
" transform="scale(0.015625)"/>
     </defs>
     <use xlink:href="#DejaVuSans-4f"/>
     <use xlink:href="#DejaVuSans-62" transform="translate(78.710938 0)"/>
     <use xlink:href="#DejaVuSans-73" transform="translate(142.1875 0)"/>
     <use xlink:href="#DejaVuSans-65" transform="translate(194.287109 0)"/>
     <use xlink:href="#DejaVuSans-72" transform="translate(255.810547 0)"/>
     <use xlink:href="#DejaVuSans-76" transform="translate(296.923828 0)"/>
     <use xlink:href="#DejaVuSans-65" transform="translate(356.103516 0)"/>
     <use xlink:href="#DejaVuSans-64" transform="translate(417.626953 0)"/>
     <use xlink:href="#DejaVuSans-20" transform="translate(481.103516 0)"/>
     <use xlink:href="#DejaVuSans-6d" transform="translate(512.890625 0)"/>
     <use xlink:href="#DejaVuSans-65" transform="translate(610.302734 0)"/>
     <use xlink:href="#DejaVuSans-61" transform="translate(671.826172 0)"/>
     <use xlink:href="#DejaVuSans-6e" transform="translate(733.105469 0)"/>
     <use xlink:href="#DejaVuSans-20" transform="translate(796.484375 0)"/>
     <use xlink:href="#DejaVuSans-72" transform="translate(828.271484 0)"/>
     <use xlink:href="#DejaVuSans-61" transform="translate(869.384766 0)"/>
     <use xlink:href="#DejaVuSans-6e" transform="translate(930.664062 0)"/>
     <use xlink:href="#DejaVuSans-6b" transform="translate(994.042969 0)"/>
     <use xlink:href="#DejaVuSans-69" transform="translate(1051.953125 0)"/>
     <use xlink:href="#DejaVuSans-6e" transform="translate(1079.736328 0)"/>
     <use xlink:href="#DejaVuSans-67" transform="translate(1143.115234 0)"/>
    </g>
   </g>
  </g>
  <g id="axes_2">
   <g id="patch_5">
    <path d="M 440.052475 296.46702 
L 754.218077 296.46702 
L 754.218077 44.569305 
L 440.052475 44.569305 
z
" style="fill: #ffffff"/>
   </g>
   <g id="patch_6">
    <path d="M 440.052475 170.518162 
L 754.218077 170.518162 
L 754.218077 44.569305 
L 440.052475 44.569305 
z
" clip-path="url(#p08bbf16671)" style="fill: #f6c85f; opacity: 0.07; stroke: #f6c85f; stroke-linejoin: miter"/>
   </g>
   <g id="patch_7">
    <path d="M 440.052475 296.46702 
L 754.218077 296.46702 
L 754.218077 170.518162 
L 440.052475 170.518162 
z
" clip-path="url(#p08bbf16671)" style="fill: #e67e22; opacity: 0.05; stroke: #e67e22; stroke-linejoin: miter"/>
   </g>
   <g id="line2d_26">
    <path d="M 530.246419 296.46702 
L 530.246419 44.569305 
" clip-path="url(#p08bbf16671)" style="fill: none; stroke-dasharray: 2,3.3; stroke-dashoffset: 0; stroke: #c39bd3; stroke-width: 2"/>
   </g>
   <g id="matplotlib.axis_3">
    <g id="xtick_9">
     <g id="line2d_27">
      <path d="M 463.324001 296.46702 
L 463.324001 44.569305 
" clip-path="url(#p08bbf16671)" style="fill: none; stroke: #b0b0b0; stroke-opacity: 0.25; stroke-width: 0.8; stroke-linecap: square"/>
     </g>
     <g id="line2d_28">
      <g>
       <use xlink:href="#m1d03ba32f6" x="463.324001" y="296.46702" style="stroke: #000000; stroke-width: 0.8"/>
      </g>
     </g>
     <g id="text_16">
      <!-- 1400 -->
      <g transform="translate(453.144001 309.54577) scale(0.08 -0.08)">
       <use xlink:href="#DejaVuSans-31"/>
       <use xlink:href="#DejaVuSans-34" transform="translate(63.623047 0)"/>
       <use xlink:href="#DejaVuSans-30" transform="translate(127.246094 0)"/>
       <use xlink:href="#DejaVuSans-30" transform="translate(190.869141 0)"/>
      </g>
     </g>
    </g>
    <g id="xtick_10">
     <g id="line2d_29">
      <path d="M 521.502816 296.46702 
L 521.502816 44.569305 
" clip-path="url(#p08bbf16671)" style="fill: none; stroke: #b0b0b0; stroke-opacity: 0.25; stroke-width: 0.8; stroke-linecap: square"/>
     </g>
     <g id="line2d_30">
      <g>
       <use xlink:href="#m1d03ba32f6" x="521.502816" y="296.46702" style="stroke: #000000; stroke-width: 0.8"/>
      </g>
     </g>
     <g id="text_17">
      <!-- 1450 -->
      <g transform="translate(511.322816 309.54577) scale(0.08 -0.08)">
       <use xlink:href="#DejaVuSans-31"/>
       <use xlink:href="#DejaVuSans-34" transform="translate(63.623047 0)"/>
       <use xlink:href="#DejaVuSans-35" transform="translate(127.246094 0)"/>
       <use xlink:href="#DejaVuSans-30" transform="translate(190.869141 0)"/>
      </g>
     </g>
    </g>
    <g id="xtick_11">
     <g id="line2d_31">
      <path d="M 579.681631 296.46702 
L 579.681631 44.569305 
" clip-path="url(#p08bbf16671)" style="fill: none; stroke: #b0b0b0; stroke-opacity: 0.25; stroke-width: 0.8; stroke-linecap: square"/>
     </g>
     <g id="line2d_32">
      <g>
       <use xlink:href="#m1d03ba32f6" x="579.681631" y="296.46702" style="stroke: #000000; stroke-width: 0.8"/>
      </g>
     </g>
     <g id="text_18">
      <!-- 1500 -->
      <g transform="translate(569.501631 309.54577) scale(0.08 -0.08)">
       <use xlink:href="#DejaVuSans-31"/>
       <use xlink:href="#DejaVuSans-35" transform="translate(63.623047 0)"/>
       <use xlink:href="#DejaVuSans-30" transform="translate(127.246094 0)"/>
       <use xlink:href="#DejaVuSans-30" transform="translate(190.869141 0)"/>
      </g>
     </g>
    </g>
    <g id="xtick_12">
     <g id="line2d_33">
      <path d="M 637.860447 296.46702 
L 637.860447 44.569305 
" clip-path="url(#p08bbf16671)" style="fill: none; stroke: #b0b0b0; stroke-opacity: 0.25; stroke-width: 0.8; stroke-linecap: square"/>
     </g>
     <g id="line2d_34">
      <g>
       <use xlink:href="#m1d03ba32f6" x="637.860447" y="296.46702" style="stroke: #000000; stroke-width: 0.8"/>
      </g>
     </g>
     <g id="text_19">
      <!-- 1550 -->
      <g transform="translate(627.680447 309.54577) scale(0.08 -0.08)">
       <use xlink:href="#DejaVuSans-31"/>
       <use xlink:href="#DejaVuSans-35" transform="translate(63.623047 0)"/>
       <use xlink:href="#DejaVuSans-35" transform="translate(127.246094 0)"/>
       <use xlink:href="#DejaVuSans-30" transform="translate(190.869141 0)"/>
      </g>
     </g>
    </g>
    <g id="xtick_13">
     <g id="line2d_35">
      <path d="M 696.039262 296.46702 
L 696.039262 44.569305 
" clip-path="url(#p08bbf16671)" style="fill: none; stroke: #b0b0b0; stroke-opacity: 0.25; stroke-width: 0.8; stroke-linecap: square"/>
     </g>
     <g id="line2d_36">
      <g>
       <use xlink:href="#m1d03ba32f6" x="696.039262" y="296.46702" style="stroke: #000000; stroke-width: 0.8"/>
      </g>
     </g>
     <g id="text_20">
      <!-- 1600 -->
      <g transform="translate(685.859262 309.54577) scale(0.08 -0.08)">
       <use xlink:href="#DejaVuSans-31"/>
       <use xlink:href="#DejaVuSans-36" transform="translate(63.623047 0)"/>
       <use xlink:href="#DejaVuSans-30" transform="translate(127.246094 0)"/>
       <use xlink:href="#DejaVuSans-30" transform="translate(190.869141 0)"/>
      </g>
     </g>
    </g>
    <g id="xtick_14">
     <g id="line2d_37">
      <path d="M 754.218077 296.46702 
L 754.218077 44.569305 
" clip-path="url(#p08bbf16671)" style="fill: none; stroke: #b0b0b0; stroke-opacity: 0.25; stroke-width: 0.8; stroke-linecap: square"/>
     </g>
     <g id="line2d_38">
      <g>
       <use xlink:href="#m1d03ba32f6" x="754.218077" y="296.46702" style="stroke: #000000; stroke-width: 0.8"/>
      </g>
     </g>
     <g id="text_21">
      <!-- 1650 -->
      <g transform="translate(744.038077 309.54577) scale(0.08 -0.08)">
       <use xlink:href="#DejaVuSans-31"/>
       <use xlink:href="#DejaVuSans-36" transform="translate(63.623047 0)"/>
       <use xlink:href="#DejaVuSans-35" transform="translate(127.246094 0)"/>
       <use xlink:href="#DejaVuSans-30" transform="translate(190.869141 0)"/>
      </g>
     </g>
    </g>
    <g id="text_22">
     <!-- Throughput (structures s$^{-1}$) -->
     <g transform="translate(534.495276 323.30952) scale(0.09 -0.09)">
      <defs>
       <path id="DejaVuSans-63" d="M 3122 3366 
L 3122 2828 
Q 2878 2963 2633 3030 
Q 2388 3097 2138 3097 
Q 1578 3097 1268 2742 
Q 959 2388 959 1747 
Q 959 1106 1268 751 
Q 1578 397 2138 397 
Q 2388 397 2633 464 
Q 2878 531 3122 666 
L 3122 134 
Q 2881 22 2623 -34 
Q 2366 -91 2075 -91 
Q 1284 -91 818 406 
Q 353 903 353 1747 
Q 353 2603 823 3093 
Q 1294 3584 2113 3584 
Q 2378 3584 2631 3529 
Q 2884 3475 3122 3366 
z
" transform="scale(0.015625)"/>
       <path id="DejaVuSans-2212" d="M 678 2272 
L 4684 2272 
L 4684 1741 
L 678 1741 
L 678 2272 
z
" transform="scale(0.015625)"/>
      </defs>
      <use xlink:href="#DejaVuSans-54" transform="translate(0 0.684375)"/>
      <use xlink:href="#DejaVuSans-68" transform="translate(61.083984 0.684375)"/>
      <use xlink:href="#DejaVuSans-72" transform="translate(124.462891 0.684375)"/>
      <use xlink:href="#DejaVuSans-6f" transform="translate(165.576172 0.684375)"/>
      <use xlink:href="#DejaVuSans-75" transform="translate(226.757812 0.684375)"/>
      <use xlink:href="#DejaVuSans-67" transform="translate(290.136719 0.684375)"/>
      <use xlink:href="#DejaVuSans-68" transform="translate(353.613281 0.684375)"/>
      <use xlink:href="#DejaVuSans-70" transform="translate(416.992188 0.684375)"/>
      <use xlink:href="#DejaVuSans-75" transform="translate(480.46875 0.684375)"/>
      <use xlink:href="#DejaVuSans-74" transform="translate(543.847656 0.684375)"/>
      <use xlink:href="#DejaVuSans-20" transform="translate(583.056641 0.684375)"/>
      <use xlink:href="#DejaVuSans-28" transform="translate(614.84375 0.684375)"/>
      <use xlink:href="#DejaVuSans-73" transform="translate(653.857422 0.684375)"/>
      <use xlink:href="#DejaVuSans-74" transform="translate(705.957031 0.684375)"/>
      <use xlink:href="#DejaVuSans-72" transform="translate(745.166016 0.684375)"/>
      <use xlink:href="#DejaVuSans-75" transform="translate(786.279297 0.684375)"/>
      <use xlink:href="#DejaVuSans-63" transform="translate(849.658203 0.684375)"/>
      <use xlink:href="#DejaVuSans-74" transform="translate(904.638672 0.684375)"/>
      <use xlink:href="#DejaVuSans-75" transform="translate(943.847656 0.684375)"/>
      <use xlink:href="#DejaVuSans-72" transform="translate(1007.226562 0.684375)"/>
      <use xlink:href="#DejaVuSans-65" transform="translate(1048.339844 0.684375)"/>
      <use xlink:href="#DejaVuSans-73" transform="translate(1109.863281 0.684375)"/>
      <use xlink:href="#DejaVuSans-20" transform="translate(1161.962891 0.684375)"/>
      <use xlink:href="#DejaVuSans-73" transform="translate(1193.75 0.684375)"/>
      <use xlink:href="#DejaVuSans-2212" transform="translate(1246.806641 38.965625) scale(0.7)"/>
      <use xlink:href="#DejaVuSans-31" transform="translate(1305.458984 38.965625) scale(0.7)"/>
      <use xlink:href="#DejaVuSans-29" transform="translate(1352.729492 0.684375)"/>
     </g>
    </g>
   </g>
   <g id="matplotlib.axis_4">
    <g id="ytick_3">
     <g id="line2d_39">
      <g>
       <use xlink:href="#m7a2e0c7d72" x="440.052475" y="76.056519" style="stroke: #000000; stroke-width: 0.8"/>
      </g>
     </g>
     <g id="text_23">
      <!-- Generic, mmap -->
      <g transform="translate(371.377475 79.095894) scale(0.08 -0.08)">
       <defs>
        <path id="DejaVuSans-47" d="M 3809 666 
L 3809 1919 
L 2778 1919 
L 2778 2438 
L 4434 2438 
L 4434 434 
Q 4069 175 3628 42 
Q 3188 -91 2688 -91 
Q 1594 -91 976 548 
Q 359 1188 359 2328 
Q 359 3472 976 4111 
Q 1594 4750 2688 4750 
Q 3144 4750 3555 4637 
Q 3966 4525 4313 4306 
L 4313 3634 
Q 3963 3931 3569 4081 
Q 3175 4231 2741 4231 
Q 1884 4231 1454 3753 
Q 1025 3275 1025 2328 
Q 1025 1384 1454 906 
Q 1884 428 2741 428 
Q 3075 428 3337 486 
Q 3600 544 3809 666 
z
" transform="scale(0.015625)"/>
        <path id="DejaVuSans-2c" d="M 750 794 
L 1409 794 
L 1409 256 
L 897 -744 
L 494 -744 
L 750 256 
L 750 794 
z
" transform="scale(0.015625)"/>
       </defs>
       <use xlink:href="#DejaVuSans-47"/>
       <use xlink:href="#DejaVuSans-65" transform="translate(77.490234 0)"/>
       <use xlink:href="#DejaVuSans-6e" transform="translate(139.013672 0)"/>
       <use xlink:href="#DejaVuSans-65" transform="translate(202.392578 0)"/>
       <use xlink:href="#DejaVuSans-72" transform="translate(263.916016 0)"/>
       <use xlink:href="#DejaVuSans-69" transform="translate(305.029297 0)"/>
       <use xlink:href="#DejaVuSans-63" transform="translate(332.8125 0)"/>
       <use xlink:href="#DejaVuSans-2c" transform="translate(387.792969 0)"/>
       <use xlink:href="#DejaVuSans-20" transform="translate(419.580078 0)"/>
       <use xlink:href="#DejaVuSans-6d" transform="translate(451.367188 0)"/>
       <use xlink:href="#DejaVuSans-6d" transform="translate(548.779297 0)"/>
       <use xlink:href="#DejaVuSans-61" transform="translate(646.191406 0)"/>
       <use xlink:href="#DejaVuSans-70" transform="translate(707.470703 0)"/>
      </g>
     </g>
    </g>
    <g id="ytick_4">
     <g id="line2d_40">
      <g>
       <use xlink:href="#m7a2e0c7d72" x="440.052475" y="139.030948" style="stroke: #000000; stroke-width: 0.8"/>
      </g>
     </g>
     <g id="text_24">
      <!-- Generic, read-all -->
      <g transform="translate(366.697475 142.070323) scale(0.08 -0.08)">
       <defs>
        <path id="DejaVuSans-2d" d="M 313 2009 
L 1997 2009 
L 1997 1497 
L 313 1497 
L 313 2009 
z
" transform="scale(0.015625)"/>
        <path id="DejaVuSans-6c" d="M 603 4863 
L 1178 4863 
L 1178 0 
L 603 0 
L 603 4863 
z
" transform="scale(0.015625)"/>
       </defs>
       <use xlink:href="#DejaVuSans-47"/>
       <use xlink:href="#DejaVuSans-65" transform="translate(77.490234 0)"/>
       <use xlink:href="#DejaVuSans-6e" transform="translate(139.013672 0)"/>
       <use xlink:href="#DejaVuSans-65" transform="translate(202.392578 0)"/>
       <use xlink:href="#DejaVuSans-72" transform="translate(263.916016 0)"/>
       <use xlink:href="#DejaVuSans-69" transform="translate(305.029297 0)"/>
       <use xlink:href="#DejaVuSans-63" transform="translate(332.8125 0)"/>
       <use xlink:href="#DejaVuSans-2c" transform="translate(387.792969 0)"/>
       <use xlink:href="#DejaVuSans-20" transform="translate(419.580078 0)"/>
       <use xlink:href="#DejaVuSans-72" transform="translate(451.367188 0)"/>
       <use xlink:href="#DejaVuSans-65" transform="translate(490.230469 0)"/>
       <use xlink:href="#DejaVuSans-61" transform="translate(551.753906 0)"/>
       <use xlink:href="#DejaVuSans-64" transform="translate(613.033203 0)"/>
       <use xlink:href="#DejaVuSans-2d" transform="translate(676.509766 0)"/>
       <use xlink:href="#DejaVuSans-61" transform="translate(712.59375 0)"/>
       <use xlink:href="#DejaVuSans-6c" transform="translate(773.873047 0)"/>
       <use xlink:href="#DejaVuSans-6c" transform="translate(801.65625 0)"/>
      </g>
     </g>
    </g>
    <g id="ytick_5">
     <g id="line2d_41">
      <g>
       <use xlink:href="#m7a2e0c7d72" x="440.052475" y="202.005377" style="stroke: #000000; stroke-width: 0.8"/>
      </g>
     </g>
     <g id="text_25">
      <!-- AF-fast, mmap -->
      <g transform="translate(374.418725 205.044752) scale(0.08 -0.08)">
       <defs>
        <path id="DejaVuSans-41" d="M 2188 4044 
L 1331 1722 
L 3047 1722 
L 2188 4044 
z
M 1831 4666 
L 2547 4666 
L 4325 0 
L 3669 0 
L 3244 1197 
L 1141 1197 
L 716 0 
L 50 0 
L 1831 4666 
z
" transform="scale(0.015625)"/>
        <path id="DejaVuSans-66" d="M 2375 4863 
L 2375 4384 
L 1825 4384 
Q 1516 4384 1395 4259 
Q 1275 4134 1275 3809 
L 1275 3500 
L 2222 3500 
L 2222 3053 
L 1275 3053 
L 1275 0 
L 697 0 
L 697 3053 
L 147 3053 
L 147 3500 
L 697 3500 
L 697 3744 
Q 697 4328 969 4595 
Q 1241 4863 1831 4863 
L 2375 4863 
z
" transform="scale(0.015625)"/>
       </defs>
       <use xlink:href="#DejaVuSans-41"/>
       <use xlink:href="#DejaVuSans-46" transform="translate(68.408203 0)"/>
       <use xlink:href="#DejaVuSans-2d" transform="translate(125.927734 0)"/>
       <use xlink:href="#DejaVuSans-66" transform="translate(162.011719 0)"/>
       <use xlink:href="#DejaVuSans-61" transform="translate(197.216797 0)"/>
       <use xlink:href="#DejaVuSans-73" transform="translate(258.496094 0)"/>
       <use xlink:href="#DejaVuSans-74" transform="translate(310.595703 0)"/>
       <use xlink:href="#DejaVuSans-2c" transform="translate(349.804688 0)"/>
       <use xlink:href="#DejaVuSans-20" transform="translate(381.591797 0)"/>
       <use xlink:href="#DejaVuSans-6d" transform="translate(413.378906 0)"/>
       <use xlink:href="#DejaVuSans-6d" transform="translate(510.791016 0)"/>
       <use xlink:href="#DejaVuSans-61" transform="translate(608.203125 0)"/>
       <use xlink:href="#DejaVuSans-70" transform="translate(669.482422 0)"/>
      </g>
     </g>
    </g>
    <g id="ytick_6">
     <g id="line2d_42">
      <g>
       <use xlink:href="#m7a2e0c7d72" x="440.052475" y="264.979806" style="stroke: #000000; stroke-width: 0.8"/>
      </g>
     </g>
     <g id="text_26">
      <!-- AF-fast, read-all -->
      <g transform="translate(369.738725 268.019181) scale(0.08 -0.08)">
       <use xlink:href="#DejaVuSans-41"/>
       <use xlink:href="#DejaVuSans-46" transform="translate(68.408203 0)"/>
       <use xlink:href="#DejaVuSans-2d" transform="translate(125.927734 0)"/>
       <use xlink:href="#DejaVuSans-66" transform="translate(162.011719 0)"/>
       <use xlink:href="#DejaVuSans-61" transform="translate(197.216797 0)"/>
       <use xlink:href="#DejaVuSans-73" transform="translate(258.496094 0)"/>
       <use xlink:href="#DejaVuSans-74" transform="translate(310.595703 0)"/>
       <use xlink:href="#DejaVuSans-2c" transform="translate(349.804688 0)"/>
       <use xlink:href="#DejaVuSans-20" transform="translate(381.591797 0)"/>
       <use xlink:href="#DejaVuSans-72" transform="translate(413.378906 0)"/>
       <use xlink:href="#DejaVuSans-65" transform="translate(452.242188 0)"/>
       <use xlink:href="#DejaVuSans-61" transform="translate(513.765625 0)"/>
       <use xlink:href="#DejaVuSans-64" transform="translate(575.044922 0)"/>
       <use xlink:href="#DejaVuSans-2d" transform="translate(638.521484 0)"/>
       <use xlink:href="#DejaVuSans-61" transform="translate(674.605469 0)"/>
       <use xlink:href="#DejaVuSans-6c" transform="translate(735.884766 0)"/>
       <use xlink:href="#DejaVuSans-6c" transform="translate(763.667969 0)"/>
      </g>
     </g>
    </g>
   </g>
   <g id="LineCollection_3">
    <path d="M 460.989761 76.056519 
L 521.341798 76.056519 
" clip-path="url(#p08bbf16671)" style="fill: none; stroke: #f6c85f; stroke-width: 1.5"/>
   </g>
   <g id="line2d_43">
    <defs>
     <path id="m3fc1096fe8" d="M 0 3 
L 0 -3 
" style="stroke: #f6c85f; stroke-width: 1.5"/>
    </defs>
    <g clip-path="url(#p08bbf16671)">
     <use xlink:href="#m3fc1096fe8" x="460.989761" y="76.056519" style="fill: #f6c85f; stroke: #f6c85f; stroke-width: 1.5"/>
    </g>
   </g>
   <g id="line2d_44">
    <g clip-path="url(#p08bbf16671)">
     <use xlink:href="#m3fc1096fe8" x="521.341798" y="76.056519" style="fill: #f6c85f; stroke: #f6c85f; stroke-width: 1.5"/>
    </g>
   </g>
   <g id="LineCollection_4">
    <path d="M 525.51987 139.030948 
L 534.699921 139.030948 
" clip-path="url(#p08bbf16671)" style="fill: none; stroke: #f6c85f; stroke-width: 1.5"/>
   </g>
   <g id="line2d_45">
    <g clip-path="url(#p08bbf16671)">
     <use xlink:href="#m3fc1096fe8" x="525.51987" y="139.030948" style="fill: #f6c85f; stroke: #f6c85f; stroke-width: 1.5"/>
    </g>
   </g>
   <g id="line2d_46">
    <g clip-path="url(#p08bbf16671)">
     <use xlink:href="#m3fc1096fe8" x="534.699921" y="139.030948" style="fill: #f6c85f; stroke: #f6c85f; stroke-width: 1.5"/>
    </g>
   </g>
   <g id="LineCollection_5">
    <path d="M 570.319901 202.005377 
L 619.053671 202.005377 
" clip-path="url(#p08bbf16671)" style="fill: none; stroke: #e67e22; stroke-width: 1.5"/>
   </g>
   <g id="line2d_47">
    <defs>
     <path id="m8da48d50ad" d="M 0 3 
L 0 -3 
" style="stroke: #e67e22; stroke-width: 1.5"/>
    </defs>
    <g clip-path="url(#p08bbf16671)">
     <use xlink:href="#m8da48d50ad" x="570.319901" y="202.005377" style="fill: #e67e22; stroke: #e67e22; stroke-width: 1.5"/>
    </g>
   </g>
   <g id="line2d_48">
    <g clip-path="url(#p08bbf16671)">
     <use xlink:href="#m8da48d50ad" x="619.053671" y="202.005377" style="fill: #e67e22; stroke: #e67e22; stroke-width: 1.5"/>
    </g>
   </g>
   <g id="LineCollection_6">
    <path d="M 703.04957 264.979806 
L 714.590341 264.979806 
" clip-path="url(#p08bbf16671)" style="fill: none; stroke: #e67e22; stroke-width: 1.5"/>
   </g>
   <g id="line2d_49">
    <g clip-path="url(#p08bbf16671)">
     <use xlink:href="#m8da48d50ad" x="703.04957" y="264.979806" style="fill: #e67e22; stroke: #e67e22; stroke-width: 1.5"/>
    </g>
   </g>
   <g id="line2d_50">
    <g clip-path="url(#p08bbf16671)">
     <use xlink:href="#m8da48d50ad" x="714.590341" y="264.979806" style="fill: #e67e22; stroke: #e67e22; stroke-width: 1.5"/>
    </g>
   </g>
   <g id="line2d_51">
    <path d="M 491.165779 76.056519 
" clip-path="url(#p08bbf16671)" style="fill: none; stroke: #f6c85f; stroke-width: 1.5; stroke-linecap: square"/>
    <defs>
     <path id="mbb96a63b0a" d="M -4 4 
L 4 4 
L 4 -4 
L -4 -4 
z
" style="stroke: #f6c85f; stroke-width: 1.5; stroke-linejoin: miter"/>
    </defs>
    <g clip-path="url(#p08bbf16671)">
     <use xlink:href="#mbb96a63b0a" x="491.165779" y="76.056519" style="fill: #ffffff; stroke: #f6c85f; stroke-width: 1.5; stroke-linejoin: miter"/>
    </g>
   </g>
   <g id="line2d_52">
    <path d="M 530.109895 139.030948 
" clip-path="url(#p08bbf16671)" style="fill: none; stroke: #f6c85f; stroke-width: 1.5; stroke-linecap: square"/>
    <defs>
     <path id="ma4ec3c0341" d="M 0 4 
C 1.060812 4 2.078319 3.578535 2.828427 2.828427 
C 3.578535 2.078319 4 1.060812 4 0 
C 4 -1.060812 3.578535 -2.078319 2.828427 -2.828427 
C 2.078319 -3.578535 1.060812 -4 0 -4 
C -1.060812 -4 -2.078319 -3.578535 -2.828427 -2.828427 
C -3.578535 -2.078319 -4 -1.060812 -4 0 
C -4 1.060812 -3.578535 2.078319 -2.828427 2.828427 
C -2.078319 3.578535 -1.060812 4 0 4 
z
" style="stroke: #f6c85f; stroke-width: 1.5"/>
    </defs>
    <g clip-path="url(#p08bbf16671)">
     <use xlink:href="#ma4ec3c0341" x="530.109895" y="139.030948" style="fill: #f6c85f; stroke: #f6c85f; stroke-width: 1.5"/>
    </g>
   </g>
   <g id="line2d_53">
    <path d="M 594.686786 202.005377 
" clip-path="url(#p08bbf16671)" style="fill: none; stroke: #e67e22; stroke-width: 1.5; stroke-linecap: square"/>
    <defs>
     <path id="m70b9f8f4cd" d="M -4 4 
L 4 4 
L 4 -4 
L -4 -4 
z
" style="stroke: #e67e22; stroke-width: 1.5; stroke-linejoin: miter"/>
    </defs>
    <g clip-path="url(#p08bbf16671)">
     <use xlink:href="#m70b9f8f4cd" x="594.686786" y="202.005377" style="fill: #ffffff; stroke: #e67e22; stroke-width: 1.5; stroke-linejoin: miter"/>
    </g>
   </g>
   <g id="line2d_54">
    <path d="M 708.819955 264.979806 
" clip-path="url(#p08bbf16671)" style="fill: none; stroke: #e67e22; stroke-width: 1.5; stroke-linecap: square"/>
    <defs>
     <path id="mbae1e5ec2a" d="M 0 4 
C 1.060812 4 2.078319 3.578535 2.828427 2.828427 
C 3.578535 2.078319 4 1.060812 4 0 
C 4 -1.060812 3.578535 -2.078319 2.828427 -2.828427 
C 2.078319 -3.578535 1.060812 -4 0 -4 
C -1.060812 -4 -2.078319 -3.578535 -2.828427 -2.828427 
C -3.578535 -2.078319 -4 -1.060812 -4 0 
C -4 1.060812 -3.578535 2.078319 -2.828427 2.828427 
C -2.078319 3.578535 -1.060812 4 0 4 
z
" style="stroke: #e67e22; stroke-width: 1.5"/>
    </defs>
    <g clip-path="url(#p08bbf16671)">
     <use xlink:href="#mbae1e5ec2a" x="708.819955" y="264.979806" style="fill: #e67e22; stroke: #e67e22; stroke-width: 1.5"/>
    </g>
   </g>
   <g id="patch_8">
    <path d="M 440.052475 296.46702 
L 440.052475 44.569305 
" style="fill: none; stroke: #000000; stroke-width: 0.8; stroke-linejoin: miter; stroke-linecap: square"/>
   </g>
   <g id="patch_9">
    <path d="M 440.052475 296.46702 
L 754.218077 296.46702 
" style="fill: none; stroke: #000000; stroke-width: 0.8; stroke-linejoin: miter; stroke-linecap: square"/>
   </g>
   <g id="text_27">
    <!-- 1,424 -->
    <g transform="translate(479.714529 65.392769) scale(0.08 -0.08)">
     <use xlink:href="#DejaVuSans-31"/>
     <use xlink:href="#DejaVuSans-2c" transform="translate(63.623047 0)"/>
     <use xlink:href="#DejaVuSans-34" transform="translate(95.410156 0)"/>
     <use xlink:href="#DejaVuSans-32" transform="translate(159.033203 0)"/>
     <use xlink:href="#DejaVuSans-34" transform="translate(222.65625 0)"/>
    </g>
   </g>
   <g id="text_28">
    <!-- 1,457 -->
    <g transform="translate(538.109895 141.238448) scale(0.08 -0.08)">
     <defs>
      <path id="DejaVuSans-37" d="M 525 4666 
L 3525 4666 
L 3525 4397 
L 1831 0 
L 1172 0 
L 2766 4134 
L 525 4134 
L 525 4666 
z
" transform="scale(0.015625)"/>
     </defs>
     <use xlink:href="#DejaVuSans-31"/>
     <use xlink:href="#DejaVuSans-2c" transform="translate(63.623047 0)"/>
     <use xlink:href="#DejaVuSans-34" transform="translate(95.410156 0)"/>
     <use xlink:href="#DejaVuSans-35" transform="translate(159.033203 0)"/>
     <use xlink:href="#DejaVuSans-37" transform="translate(222.65625 0)"/>
    </g>
   </g>
   <g id="text_29">
    <!-- 1,513 -->
    <g transform="translate(583.235536 191.341627) scale(0.08 -0.08)">
     <use xlink:href="#DejaVuSans-31"/>
     <use xlink:href="#DejaVuSans-2c" transform="translate(63.623047 0)"/>
     <use xlink:href="#DejaVuSans-35" transform="translate(95.410156 0)"/>
     <use xlink:href="#DejaVuSans-31" transform="translate(159.033203 0)"/>
     <use xlink:href="#DejaVuSans-33" transform="translate(222.65625 0)"/>
    </g>
   </g>
   <g id="text_30">
    <!-- 1,611 -->
    <g transform="translate(697.368705 254.316056) scale(0.08 -0.08)">
     <use xlink:href="#DejaVuSans-31"/>
     <use xlink:href="#DejaVuSans-2c" transform="translate(63.623047 0)"/>
     <use xlink:href="#DejaVuSans-36" transform="translate(95.410156 0)"/>
     <use xlink:href="#DejaVuSans-31" transform="translate(159.033203 0)"/>
     <use xlink:href="#DejaVuSans-31" transform="translate(222.65625 0)"/>
    </g>
   </g>
   <g id="text_31">
    <!-- Lahuta  1,458 -->
    <g style="fill: #75408a" transform="translate(533.737148 58.204986) scale(0.08 -0.08)">
     <defs>
      <path id="DejaVuSans-Bold-4c" d="M 588 4666 
L 1791 4666 
L 1791 909 
L 3903 909 
L 3903 0 
L 588 0 
L 588 4666 
z
" transform="scale(0.015625)"/>
      <path id="DejaVuSans-Bold-68" d="M 4056 2131 
L 4056 0 
L 2931 0 
L 2931 347 
L 2931 1625 
Q 2931 2084 2911 2256 
Q 2891 2428 2841 2509 
Q 2775 2619 2662 2680 
Q 2550 2741 2406 2741 
Q 2056 2741 1856 2470 
Q 1656 2200 1656 1722 
L 1656 0 
L 538 0 
L 538 4863 
L 1656 4863 
L 1656 2988 
Q 1909 3294 2193 3439 
Q 2478 3584 2822 3584 
Q 3428 3584 3742 3212 
Q 4056 2841 4056 2131 
z
" transform="scale(0.015625)"/>
      <path id="DejaVuSans-Bold-75" d="M 500 1363 
L 500 3500 
L 1625 3500 
L 1625 3150 
Q 1625 2866 1622 2436 
Q 1619 2006 1619 1863 
Q 1619 1441 1641 1255 
Q 1663 1069 1716 984 
Q 1784 875 1895 815 
Q 2006 756 2150 756 
Q 2500 756 2700 1025 
Q 2900 1294 2900 1772 
L 2900 3500 
L 4019 3500 
L 4019 0 
L 2900 0 
L 2900 506 
Q 2647 200 2364 54 
Q 2081 -91 1741 -91 
Q 1134 -91 817 281 
Q 500 653 500 1363 
z
" transform="scale(0.015625)"/>
      <path id="DejaVuSans-Bold-74" d="M 1759 4494 
L 1759 3500 
L 2913 3500 
L 2913 2700 
L 1759 2700 
L 1759 1216 
Q 1759 972 1856 886 
Q 1953 800 2241 800 
L 2816 800 
L 2816 0 
L 1856 0 
Q 1194 0 917 276 
Q 641 553 641 1216 
L 641 2700 
L 84 2700 
L 84 3500 
L 641 3500 
L 641 4494 
L 1759 4494 
z
" transform="scale(0.015625)"/>
      <path id="DejaVuSans-Bold-20" transform="scale(0.015625)"/>
      <path id="DejaVuSans-Bold-2c" d="M 653 1209 
L 1778 1209 
L 1778 256 
L 1006 -909 
L 341 -909 
L 653 256 
L 653 1209 
z
" transform="scale(0.015625)"/>
      <path id="DejaVuSans-Bold-34" d="M 2356 3675 
L 1038 1722 
L 2356 1722 
L 2356 3675 
z
M 2156 4666 
L 3494 4666 
L 3494 1722 
L 4159 1722 
L 4159 850 
L 3494 850 
L 3494 0 
L 2356 0 
L 2356 850 
L 288 850 
L 288 1881 
L 2156 4666 
z
" transform="scale(0.015625)"/>
     </defs>
     <use xlink:href="#DejaVuSans-Bold-4c"/>
     <use xlink:href="#DejaVuSans-Bold-61" transform="translate(63.720703 0)"/>
     <use xlink:href="#DejaVuSans-Bold-68" transform="translate(131.201172 0)"/>
     <use xlink:href="#DejaVuSans-Bold-75" transform="translate(202.392578 0)"/>
     <use xlink:href="#DejaVuSans-Bold-74" transform="translate(273.583984 0)"/>
     <use xlink:href="#DejaVuSans-Bold-61" transform="translate(321.386719 0)"/>
     <use xlink:href="#DejaVuSans-Bold-20" transform="translate(388.867188 0)"/>
     <use xlink:href="#DejaVuSans-Bold-20" transform="translate(423.681641 0)"/>
     <use xlink:href="#DejaVuSans-Bold-31" transform="translate(458.496094 0)"/>
     <use xlink:href="#DejaVuSans-Bold-2c" transform="translate(528.076172 0)"/>
     <use xlink:href="#DejaVuSans-Bold-34" transform="translate(566.064453 0)"/>
     <use xlink:href="#DejaVuSans-Bold-35" transform="translate(635.644531 0)"/>
     <use xlink:href="#DejaVuSans-Bold-38" transform="translate(705.224609 0)"/>
    </g>
   </g>
   <g id="text_32">
    <!-- (b) -->
    <g transform="translate(402.352602 32.20574) scale(0.11 -0.11)">
     <defs>
      <path id="DejaVuSans-Bold-62" d="M 2400 722 
Q 2759 722 2948 984 
Q 3138 1247 3138 1747 
Q 3138 2247 2948 2509 
Q 2759 2772 2400 2772 
Q 2041 2772 1848 2508 
Q 1656 2244 1656 1747 
Q 1656 1250 1848 986 
Q 2041 722 2400 722 
z
M 1656 2988 
Q 1888 3294 2169 3439 
Q 2450 3584 2816 3584 
Q 3463 3584 3878 3070 
Q 4294 2556 4294 1747 
Q 4294 938 3878 423 
Q 3463 -91 2816 -91 
Q 2450 -91 2169 54 
Q 1888 200 1656 506 
L 1656 0 
L 538 0 
L 538 4863 
L 1656 4863 
L 1656 2988 
z
" transform="scale(0.015625)"/>
     </defs>
     <use xlink:href="#DejaVuSans-Bold-28"/>
     <use xlink:href="#DejaVuSans-Bold-62" transform="translate(45.703125 0)"/>
     <use xlink:href="#DejaVuSans-Bold-29" transform="translate(117.285156 0)"/>
    </g>
   </g>
   <g id="text_33">
    <!-- mmCIF recovery -->
    <g transform="translate(551.979417 38.569305) scale(0.11 -0.11)">
     <defs>
      <path id="DejaVuSans-79" d="M 2059 -325 
Q 1816 -950 1584 -1140 
Q 1353 -1331 966 -1331 
L 506 -1331 
L 506 -850 
L 844 -850 
Q 1081 -850 1212 -737 
Q 1344 -625 1503 -206 
L 1606 56 
L 191 3500 
L 800 3500 
L 1894 763 
L 2988 3500 
L 3597 3500 
L 2059 -325 
z
" transform="scale(0.015625)"/>
     </defs>
     <use xlink:href="#DejaVuSans-6d"/>
     <use xlink:href="#DejaVuSans-6d" transform="translate(97.412109 0)"/>
     <use xlink:href="#DejaVuSans-43" transform="translate(194.824219 0)"/>
     <use xlink:href="#DejaVuSans-49" transform="translate(264.648438 0)"/>
     <use xlink:href="#DejaVuSans-46" transform="translate(294.140625 0)"/>
     <use xlink:href="#DejaVuSans-20" transform="translate(351.660156 0)"/>
     <use xlink:href="#DejaVuSans-72" transform="translate(383.447266 0)"/>
     <use xlink:href="#DejaVuSans-65" transform="translate(422.310547 0)"/>
     <use xlink:href="#DejaVuSans-63" transform="translate(483.833984 0)"/>
     <use xlink:href="#DejaVuSans-6f" transform="translate(538.814453 0)"/>
     <use xlink:href="#DejaVuSans-76" transform="translate(599.996094 0)"/>
     <use xlink:href="#DejaVuSans-65" transform="translate(659.175781 0)"/>
     <use xlink:href="#DejaVuSans-72" transform="translate(720.699219 0)"/>
     <use xlink:href="#DejaVuSans-79" transform="translate(761.8125 0)"/>
    </g>
   </g>
  </g>
  <g id="text_34">
   <!-- Human AFDB ranking and mmCIF performance recovery -->
   <g transform="translate(230.753317 15.558281) scale(0.11 -0.11)">
    <defs>
     <path id="DejaVuSans-48" d="M 628 4666 
L 1259 4666 
L 1259 2753 
L 3553 2753 
L 3553 4666 
L 4184 4666 
L 4184 0 
L 3553 0 
L 3553 2222 
L 1259 2222 
L 1259 0 
L 628 0 
L 628 4666 
z
" transform="scale(0.015625)"/>
    </defs>
    <use xlink:href="#DejaVuSans-48"/>
    <use xlink:href="#DejaVuSans-75" transform="translate(75.195312 0)"/>
    <use xlink:href="#DejaVuSans-6d" transform="translate(138.574219 0)"/>
    <use xlink:href="#DejaVuSans-61" transform="translate(235.986328 0)"/>
    <use xlink:href="#DejaVuSans-6e" transform="translate(297.265625 0)"/>
    <use xlink:href="#DejaVuSans-20" transform="translate(360.644531 0)"/>
    <use xlink:href="#DejaVuSans-41" transform="translate(392.431641 0)"/>
    <use xlink:href="#DejaVuSans-46" transform="translate(460.839844 0)"/>
    <use xlink:href="#DejaVuSans-44" transform="translate(518.359375 0)"/>
    <use xlink:href="#DejaVuSans-42" transform="translate(595.361328 0)"/>
    <use xlink:href="#DejaVuSans-20" transform="translate(663.964844 0)"/>
    <use xlink:href="#DejaVuSans-72" transform="translate(695.751953 0)"/>
    <use xlink:href="#DejaVuSans-61" transform="translate(736.865234 0)"/>
    <use xlink:href="#DejaVuSans-6e" transform="translate(798.144531 0)"/>
    <use xlink:href="#DejaVuSans-6b" transform="translate(861.523438 0)"/>
    <use xlink:href="#DejaVuSans-69" transform="translate(919.433594 0)"/>
    <use xlink:href="#DejaVuSans-6e" transform="translate(947.216797 0)"/>
    <use xlink:href="#DejaVuSans-67" transform="translate(1010.595703 0)"/>
    <use xlink:href="#DejaVuSans-20" transform="translate(1074.072266 0)"/>
    <use xlink:href="#DejaVuSans-61" transform="translate(1105.859375 0)"/>
    <use xlink:href="#DejaVuSans-6e" transform="translate(1167.138672 0)"/>
    <use xlink:href="#DejaVuSans-64" transform="translate(1230.517578 0)"/>
    <use xlink:href="#DejaVuSans-20" transform="translate(1293.994141 0)"/>
    <use xlink:href="#DejaVuSans-6d" transform="translate(1325.78125 0)"/>
    <use xlink:href="#DejaVuSans-6d" transform="translate(1423.193359 0)"/>
    <use xlink:href="#DejaVuSans-43" transform="translate(1520.605469 0)"/>
    <use xlink:href="#DejaVuSans-49" transform="translate(1590.429688 0)"/>
    <use xlink:href="#DejaVuSans-46" transform="translate(1619.921875 0)"/>
    <use xlink:href="#DejaVuSans-20" transform="translate(1677.441406 0)"/>
    <use xlink:href="#DejaVuSans-70" transform="translate(1709.228516 0)"/>
    <use xlink:href="#DejaVuSans-65" transform="translate(1772.705078 0)"/>
    <use xlink:href="#DejaVuSans-72" transform="translate(1834.228516 0)"/>
    <use xlink:href="#DejaVuSans-66" transform="translate(1875.341797 0)"/>
    <use xlink:href="#DejaVuSans-6f" transform="translate(1910.546875 0)"/>
    <use xlink:href="#DejaVuSans-72" transform="translate(1971.728516 0)"/>
    <use xlink:href="#DejaVuSans-6d" transform="translate(2011.091797 0)"/>
    <use xlink:href="#DejaVuSans-61" transform="translate(2108.503906 0)"/>
    <use xlink:href="#DejaVuSans-6e" transform="translate(2169.783203 0)"/>
    <use xlink:href="#DejaVuSans-63" transform="translate(2233.162109 0)"/>
    <use xlink:href="#DejaVuSans-65" transform="translate(2288.142578 0)"/>
    <use xlink:href="#DejaVuSans-20" transform="translate(2349.666016 0)"/>
    <use xlink:href="#DejaVuSans-72" transform="translate(2381.453125 0)"/>
    <use xlink:href="#DejaVuSans-65" transform="translate(2420.316406 0)"/>
    <use xlink:href="#DejaVuSans-63" transform="translate(2481.839844 0)"/>
    <use xlink:href="#DejaVuSans-6f" transform="translate(2536.820312 0)"/>
    <use xlink:href="#DejaVuSans-76" transform="translate(2598.001953 0)"/>
    <use xlink:href="#DejaVuSans-65" transform="translate(2657.181641 0)"/>
    <use xlink:href="#DejaVuSans-72" transform="translate(2718.705078 0)"/>
    <use xlink:href="#DejaVuSans-79" transform="translate(2759.818359 0)"/>
   </g>
  </g>
 </g>
 <defs>
  <clipPath id="p43fec20541">
   <rect x="44.899872" y="44.569305" width="314.165602" height="251.897715"/>
  </clipPath>
  <clipPath id="p08bbf16671">
   <rect x="440.052475" y="44.569305" width="314.165602" height="251.897715"/>
  </clipPath>
 </defs>
</svg>
