<?xml version="1.0" encoding="utf-8" standalone="no"?>
<!DOCTYPE svg PUBLIC "-//W3C//DTD SVG 1.1//EN"
  "http://www.w3.org/Graphics/SVG/1.1/DTD/svg11.dtd">
<svg xmlns:xlink="http://www.w3.org/1999/xlink" width="656.39952pt" height="404.39952pt" viewBox="0 0 656.39952 404.39952" xmlns="http://www.w3.org/2000/svg" version="1.1">
 <metadata>
  <rdf:RDF xmlns:dc="http://purl.org/dc/elements/1.1/" xmlns:cc="http://creativecommons.org/ns#" xmlns:rdf="http://www.w3.org/1999/02/22-rdf-syntax-ns#">
   <cc:Work>
    <dc:type rdf:resource="http://purl.org/dc/dcmitype/StillImage"/>
    <dc:date>2026-05-25T00:44:24.800315</dc:date>
    <dc:format>image/svg+xml</dc:format>
    <dc:creator>
     <cc:Agent>
      <dc:title>Matplotlib v3.10.9, https://matplotlib.org/</dc:title>
     </cc:Agent>
    </dc:creator>
   </cc:Work>
  </rdf:RDF>
 </metadata>
 <defs>
  <style type="text/css">*{stroke-linejoin: round; stroke-linecap: butt}</style>
 </defs>
 <g id="figure_1">
  <g id="patch_1">
   <path d="M 0 404.39952 
L 656.39952 404.39952 
L 656.39952 0 
L 0 0 
z
" style="fill: #ffffff"/>
  </g>
  <g id="axes_1">
   <g id="patch_2">
    <path d="M 45.710313 369.746707 
L 649.19952 369.746707 
L 649.19952 20.798437 
L 45.710313 20.798437 
z
" style="fill: #ffffff"/>
   </g>
   <g id="matplotlib.axis_1">
    <g id="xtick_1">
     <g id="line2d_1">
      <path d="M 65.132867 369.746707 
L 65.132867 20.798437 
" clip-path="url(#pe25966ddc2)" style="fill: none; stroke: #b0b0b0; stroke-opacity: 0.25; stroke-width: 0.8; stroke-linecap: square"/>
     </g>
     <g id="line2d_2">
      <defs>
       <path id="mce8ca25a8a" d="M 0 0 
L 0 3.5 
" style="stroke: #000000; stroke-width: 0.8"/>
      </defs>
      <g>
       <use xlink:href="#mce8ca25a8a" x="65.132867" y="369.746707" style="stroke: #000000; stroke-width: 0.8"/>
      </g>
     </g>
     <g id="text_1">
      <!-- $\mathdefault{10^{4}}$ -->
      <g transform="translate(58.092867 382.825457) scale(0.08 -0.08)">
       <defs>
        <path id="DejaVuSans-31" d="M 794 531 
L 1825 531 
L 1825 4091 
L 703 3866 
L 703 4441 
L 1819 4666 
L 2450 4666 
L 2450 531 
L 3481 531 
L 3481 0 
L 794 0 
L 794 531 
z
" transform="scale(0.015625)"/>
        <path id="DejaVuSans-30" d="M 2034 4250 
Q 1547 4250 1301 3770 
Q 1056 3291 1056 2328 
Q 1056 1369 1301 889 
Q 1547 409 2034 409 
Q 2525 409 2770 889 
Q 3016 1369 3016 2328 
Q 3016 3291 2770 3770 
Q 2525 4250 2034 4250 
z
M 2034 4750 
Q 2819 4750 3233 4129 
Q 3647 3509 3647 2328 
Q 3647 1150 3233 529 
Q 2819 -91 2034 -91 
Q 1250 -91 836 529 
Q 422 1150 422 2328 
Q 422 3509 836 4129 
Q 1250 4750 2034 4750 
z
" transform="scale(0.015625)"/>
        <path id="DejaVuSans-34" d="M 2419 4116 
L 825 1625 
L 2419 1625 
L 2419 4116 
z
M 2253 4666 
L 3047 4666 
L 3047 1625 
L 3713 1625 
L 3713 1100 
L 3047 1100 
L 3047 0 
L 2419 0 
L 2419 1100 
L 313 1100 
L 313 1709 
L 2253 4666 
z
" transform="scale(0.015625)"/>
       </defs>
       <use xlink:href="#DejaVuSans-31" transform="translate(0 0.684375)"/>
       <use xlink:href="#DejaVuSans-30" transform="translate(63.623047 0.684375)"/>
       <use xlink:href="#DejaVuSans-34" transform="translate(128.203125 38.965625) scale(0.7)"/>
      </g>
     </g>
    </g>
    <g id="xtick_2">
     <g id="line2d_3">
      <path d="M 274.880687 369.746707 
L 274.880687 20.798437 
" clip-path="url(#pe25966ddc2)" style="fill: none; stroke: #b0b0b0; stroke-opacity: 0.25; stroke-width: 0.8; stroke-linecap: square"/>
     </g>
     <g id="line2d_4">
      <g>
       <use xlink:href="#mce8ca25a8a" x="274.880687" y="369.746707" style="stroke: #000000; stroke-width: 0.8"/>
      </g>
     </g>
     <g id="text_2">
      <!-- $\mathdefault{10^{5}}$ -->
      <g transform="translate(267.840687 382.825457) scale(0.08 -0.08)">
       <defs>
        <path id="DejaVuSans-35" d="M 691 4666 
L 3169 4666 
L 3169 4134 
L 1269 4134 
L 1269 2991 
Q 1406 3038 1543 3061 
Q 1681 3084 1819 3084 
Q 2600 3084 3056 2656 
Q 3513 2228 3513 1497 
Q 3513 744 3044 326 
Q 2575 -91 1722 -91 
Q 1428 -91 1123 -41 
Q 819 9 494 109 
L 494 744 
Q 775 591 1075 516 
Q 1375 441 1709 441 
Q 2250 441 2565 725 
Q 2881 1009 2881 1497 
Q 2881 1984 2565 2268 
Q 2250 2553 1709 2553 
Q 1456 2553 1204 2497 
Q 953 2441 691 2322 
L 691 4666 
z
" transform="scale(0.015625)"/>
       </defs>
       <use xlink:href="#DejaVuSans-31" transform="translate(0 0.684375)"/>
       <use xlink:href="#DejaVuSans-30" transform="translate(63.623047 0.684375)"/>
       <use xlink:href="#DejaVuSans-35" transform="translate(128.203125 38.965625) scale(0.7)"/>
      </g>
     </g>
    </g>
    <g id="xtick_3">
     <g id="line2d_5">
      <path d="M 484.628507 369.746707 
L 484.628507 20.798437 
" clip-path="url(#pe25966ddc2)" style="fill: none; stroke: #b0b0b0; stroke-opacity: 0.25; stroke-width: 0.8; stroke-linecap: square"/>
     </g>
     <g id="line2d_6">
      <g>
       <use xlink:href="#mce8ca25a8a" x="484.628507" y="369.746707" style="stroke: #000000; stroke-width: 0.8"/>
      </g>
     </g>
     <g id="text_3">
      <!-- $\mathdefault{10^{6}}$ -->
      <g transform="translate(477.588507 382.825457) scale(0.08 -0.08)">
       <defs>
        <path id="DejaVuSans-36" d="M 2113 2584 
Q 1688 2584 1439 2293 
Q 1191 2003 1191 1497 
Q 1191 994 1439 701 
Q 1688 409 2113 409 
Q 2538 409 2786 701 
Q 3034 994 3034 1497 
Q 3034 2003 2786 2293 
Q 2538 2584 2113 2584 
z
M 3366 4563 
L 3366 3988 
Q 3128 4100 2886 4159 
Q 2644 4219 2406 4219 
Q 1781 4219 1451 3797 
Q 1122 3375 1075 2522 
Q 1259 2794 1537 2939 
Q 1816 3084 2150 3084 
Q 2853 3084 3261 2657 
Q 3669 2231 3669 1497 
Q 3669 778 3244 343 
Q 2819 -91 2113 -91 
Q 1303 -91 875 529 
Q 447 1150 447 2328 
Q 447 3434 972 4092 
Q 1497 4750 2381 4750 
Q 2619 4750 2861 4703 
Q 3103 4656 3366 4563 
z
" transform="scale(0.015625)"/>
       </defs>
       <use xlink:href="#DejaVuSans-31" transform="translate(0 0.765625)"/>
       <use xlink:href="#DejaVuSans-30" transform="translate(63.623047 0.765625)"/>
       <use xlink:href="#DejaVuSans-36" transform="translate(128.203125 39.046875) scale(0.7)"/>
      </g>
     </g>
    </g>
    <g id="xtick_4">
     <g id="line2d_7">
      <defs>
       <path id="m7a82ba4a7f" d="M 0 0 
L 0 2 
" style="stroke: #000000; stroke-width: 0.6"/>
      </defs>
      <g>
       <use xlink:href="#m7a82ba4a7f" x="55.535333" y="369.746707" style="stroke: #000000; stroke-width: 0.6"/>
      </g>
     </g>
    </g>
    <g id="xtick_5">
     <g id="line2d_8">
      <g>
       <use xlink:href="#m7a82ba4a7f" x="128.273253" y="369.746707" style="stroke: #000000; stroke-width: 0.6"/>
      </g>
     </g>
    </g>
    <g id="xtick_6">
     <g id="line2d_9">
      <g>
       <use xlink:href="#m7a82ba4a7f" x="165.20801" y="369.746707" style="stroke: #000000; stroke-width: 0.6"/>
      </g>
     </g>
    </g>
    <g id="xtick_7">
     <g id="line2d_10">
      <g>
       <use xlink:href="#m7a82ba4a7f" x="191.413638" y="369.746707" style="stroke: #000000; stroke-width: 0.6"/>
      </g>
     </g>
    </g>
    <g id="xtick_8">
     <g id="line2d_11">
      <g>
       <use xlink:href="#m7a82ba4a7f" x="211.740302" y="369.746707" style="stroke: #000000; stroke-width: 0.6"/>
      </g>
     </g>
    </g>
    <g id="xtick_9">
     <g id="line2d_12">
      <g>
       <use xlink:href="#m7a82ba4a7f" x="228.348395" y="369.746707" style="stroke: #000000; stroke-width: 0.6"/>
      </g>
     </g>
    </g>
    <g id="xtick_10">
     <g id="line2d_13">
      <g>
       <use xlink:href="#m7a82ba4a7f" x="242.390339" y="369.746707" style="stroke: #000000; stroke-width: 0.6"/>
      </g>
     </g>
    </g>
    <g id="xtick_11">
     <g id="line2d_14">
      <g>
       <use xlink:href="#m7a82ba4a7f" x="254.554023" y="369.746707" style="stroke: #000000; stroke-width: 0.6"/>
      </g>
     </g>
    </g>
    <g id="xtick_12">
     <g id="line2d_15">
      <g>
       <use xlink:href="#m7a82ba4a7f" x="265.283153" y="369.746707" style="stroke: #000000; stroke-width: 0.6"/>
      </g>
     </g>
    </g>
    <g id="xtick_13">
     <g id="line2d_16">
      <g>
       <use xlink:href="#m7a82ba4a7f" x="338.021072" y="369.746707" style="stroke: #000000; stroke-width: 0.6"/>
      </g>
     </g>
    </g>
    <g id="xtick_14">
     <g id="line2d_17">
      <g>
       <use xlink:href="#m7a82ba4a7f" x="374.95583" y="369.746707" style="stroke: #000000; stroke-width: 0.6"/>
      </g>
     </g>
    </g>
    <g id="xtick_15">
     <g id="line2d_18">
      <g>
       <use xlink:href="#m7a82ba4a7f" x="401.161458" y="369.746707" style="stroke: #000000; stroke-width: 0.6"/>
      </g>
     </g>
    </g>
    <g id="xtick_16">
     <g id="line2d_19">
      <g>
       <use xlink:href="#m7a82ba4a7f" x="421.488122" y="369.746707" style="stroke: #000000; stroke-width: 0.6"/>
      </g>
     </g>
    </g>
    <g id="xtick_17">
     <g id="line2d_20">
      <g>
       <use xlink:href="#m7a82ba4a7f" x="438.096215" y="369.746707" style="stroke: #000000; stroke-width: 0.6"/>
      </g>
     </g>
    </g>
    <g id="xtick_18">
     <g id="line2d_21">
      <g>
       <use xlink:href="#m7a82ba4a7f" x="452.138158" y="369.746707" style="stroke: #000000; stroke-width: 0.6"/>
      </g>
     </g>
    </g>
    <g id="xtick_19">
     <g id="line2d_22">
      <g>
       <use xlink:href="#m7a82ba4a7f" x="464.301843" y="369.746707" style="stroke: #000000; stroke-width: 0.6"/>
      </g>
     </g>
    </g>
    <g id="xtick_20">
     <g id="line2d_23">
      <g>
       <use xlink:href="#m7a82ba4a7f" x="475.030973" y="369.746707" style="stroke: #000000; stroke-width: 0.6"/>
      </g>
     </g>
    </g>
    <g id="xtick_21">
     <g id="line2d_24">
      <g>
       <use xlink:href="#m7a82ba4a7f" x="547.768892" y="369.746707" style="stroke: #000000; stroke-width: 0.6"/>
      </g>
     </g>
    </g>
    <g id="xtick_22">
     <g id="line2d_25">
      <g>
       <use xlink:href="#m7a82ba4a7f" x="584.70365" y="369.746707" style="stroke: #000000; stroke-width: 0.6"/>
      </g>
     </g>
    </g>
    <g id="xtick_23">
     <g id="line2d_26">
      <g>
       <use xlink:href="#m7a82ba4a7f" x="610.909277" y="369.746707" style="stroke: #000000; stroke-width: 0.6"/>
      </g>
     </g>
    </g>
    <g id="xtick_24">
     <g id="line2d_27">
      <g>
       <use xlink:href="#m7a82ba4a7f" x="631.235941" y="369.746707" style="stroke: #000000; stroke-width: 0.6"/>
      </g>
     </g>
    </g>
    <g id="xtick_25">
     <g id="line2d_28">
      <g>
       <use xlink:href="#m7a82ba4a7f" x="647.844035" y="369.746707" style="stroke: #000000; stroke-width: 0.6"/>
      </g>
     </g>
    </g>
    <g id="text_4">
     <!-- atoms -->
     <g transform="translate(333.452182 395.327801) scale(0.09 -0.09)">
      <defs>
       <path id="DejaVuSans-61" d="M 2194 1759 
Q 1497 1759 1228 1600 
Q 959 1441 959 1056 
Q 959 750 1161 570 
Q 1363 391 1709 391 
Q 2188 391 2477 730 
Q 2766 1069 2766 1631 
L 2766 1759 
L 2194 1759 
z
M 3341 1997 
L 3341 0 
L 2766 0 
L 2766 531 
Q 2569 213 2275 61 
Q 1981 -91 1556 -91 
Q 1019 -91 701 211 
Q 384 513 384 1019 
Q 384 1609 779 1909 
Q 1175 2209 1959 2209 
L 2766 2209 
L 2766 2266 
Q 2766 2663 2505 2880 
Q 2244 3097 1772 3097 
Q 1472 3097 1187 3025 
Q 903 2953 641 2809 
L 641 3341 
Q 956 3463 1253 3523 
Q 1550 3584 1831 3584 
Q 2591 3584 2966 3190 
Q 3341 2797 3341 1997 
z
" transform="scale(0.015625)"/>
       <path id="DejaVuSans-74" d="M 1172 4494 
L 1172 3500 
L 2356 3500 
L 2356 3053 
L 1172 3053 
L 1172 1153 
Q 1172 725 1289 603 
Q 1406 481 1766 481 
L 2356 481 
L 2356 0 
L 1766 0 
Q 1100 0 847 248 
Q 594 497 594 1153 
L 594 3053 
L 172 3053 
L 172 3500 
L 594 3500 
L 594 4494 
L 1172 4494 
z
" transform="scale(0.015625)"/>
       <path id="DejaVuSans-6f" d="M 1959 3097 
Q 1497 3097 1228 2736 
Q 959 2375 959 1747 
Q 959 1119 1226 758 
Q 1494 397 1959 397 
Q 2419 397 2687 759 
Q 2956 1122 2956 1747 
Q 2956 2369 2687 2733 
Q 2419 3097 1959 3097 
z
M 1959 3584 
Q 2709 3584 3137 3096 
Q 3566 2609 3566 1747 
Q 3566 888 3137 398 
Q 2709 -91 1959 -91 
Q 1206 -91 779 398 
Q 353 888 353 1747 
Q 353 2609 779 3096 
Q 1206 3584 1959 3584 
z
" transform="scale(0.015625)"/>
       <path id="DejaVuSans-6d" d="M 3328 2828 
Q 3544 3216 3844 3400 
Q 4144 3584 4550 3584 
Q 5097 3584 5394 3201 
Q 5691 2819 5691 2113 
L 5691 0 
L 5113 0 
L 5113 2094 
Q 5113 2597 4934 2840 
Q 4756 3084 4391 3084 
Q 3944 3084 3684 2787 
Q 3425 2491 3425 1978 
L 3425 0 
L 2847 0 
L 2847 2094 
Q 2847 2600 2669 2842 
Q 2491 3084 2119 3084 
Q 1678 3084 1418 2786 
Q 1159 2488 1159 1978 
L 1159 0 
L 581 0 
L 581 3500 
L 1159 3500 
L 1159 2956 
Q 1356 3278 1631 3431 
Q 1906 3584 2284 3584 
Q 2666 3584 2933 3390 
Q 3200 3197 3328 2828 
z
" transform="scale(0.015625)"/>
       <path id="DejaVuSans-73" d="M 2834 3397 
L 2834 2853 
Q 2591 2978 2328 3040 
Q 2066 3103 1784 3103 
Q 1356 3103 1142 2972 
Q 928 2841 928 2578 
Q 928 2378 1081 2264 
Q 1234 2150 1697 2047 
L 1894 2003 
Q 2506 1872 2764 1633 
Q 3022 1394 3022 966 
Q 3022 478 2636 193 
Q 2250 -91 1575 -91 
Q 1294 -91 989 -36 
Q 684 19 347 128 
L 347 722 
Q 666 556 975 473 
Q 1284 391 1588 391 
Q 1994 391 2212 530 
Q 2431 669 2431 922 
Q 2431 1156 2273 1281 
Q 2116 1406 1581 1522 
L 1381 1569 
Q 847 1681 609 1914 
Q 372 2147 372 2553 
Q 372 3047 722 3315 
Q 1072 3584 1716 3584 
Q 2034 3584 2315 3537 
Q 2597 3491 2834 3397 
z
" transform="scale(0.015625)"/>
      </defs>
      <use xlink:href="#DejaVuSans-61"/>
      <use xlink:href="#DejaVuSans-74" transform="translate(61.279297 0)"/>
      <use xlink:href="#DejaVuSans-6f" transform="translate(100.488281 0)"/>
      <use xlink:href="#DejaVuSans-6d" transform="translate(161.669922 0)"/>
      <use xlink:href="#DejaVuSans-73" transform="translate(259.082031 0)"/>
     </g>
    </g>
   </g>
   <g id="matplotlib.axis_2">
    <g id="ytick_1">
     <g id="line2d_29">
      <path d="M 45.710313 366.599474 
L 649.19952 366.599474 
" clip-path="url(#pe25966ddc2)" style="fill: none; stroke: #b0b0b0; stroke-opacity: 0.25; stroke-width: 0.8; stroke-linecap: square"/>
     </g>
     <g id="line2d_30">
      <defs>
       <path id="mae6ec51784" d="M 0 0 
L -3.5 0 
" style="stroke: #000000; stroke-width: 0.8"/>
      </defs>
      <g>
       <use xlink:href="#mae6ec51784" x="45.710313" y="366.599474" style="stroke: #000000; stroke-width: 0.8"/>
      </g>
     </g>
     <g id="text_5">
      <!-- $\mathdefault{10^{-2}}$ -->
      <g transform="translate(19.910312 369.638849) scale(0.08 -0.08)">
       <defs>
        <path id="DejaVuSans-2212" d="M 678 2272 
L 4684 2272 
L 4684 1741 
L 678 1741 
L 678 2272 
z
" transform="scale(0.015625)"/>
        <path id="DejaVuSans-32" d="M 1228 531 
L 3431 531 
L 3431 0 
L 469 0 
L 469 531 
Q 828 903 1448 1529 
Q 2069 2156 2228 2338 
Q 2531 2678 2651 2914 
Q 2772 3150 2772 3378 
Q 2772 3750 2511 3984 
Q 2250 4219 1831 4219 
Q 1534 4219 1204 4116 
Q 875 4013 500 3803 
L 500 4441 
Q 881 4594 1212 4672 
Q 1544 4750 1819 4750 
Q 2544 4750 2975 4387 
Q 3406 4025 3406 3419 
Q 3406 3131 3298 2873 
Q 3191 2616 2906 2266 
Q 2828 2175 2409 1742 
Q 1991 1309 1228 531 
z
" transform="scale(0.015625)"/>
       </defs>
       <use xlink:href="#DejaVuSans-31" transform="translate(0 0.765625)"/>
       <use xlink:href="#DejaVuSans-30" transform="translate(63.623047 0.765625)"/>
       <use xlink:href="#DejaVuSans-2212" transform="translate(128.203125 39.046875) scale(0.7)"/>
       <use xlink:href="#DejaVuSans-32" transform="translate(186.855469 39.046875) scale(0.7)"/>
      </g>
     </g>
    </g>
    <g id="ytick_2">
     <g id="line2d_31">
      <path d="M 45.710313 289.565104 
L 649.19952 289.565104 
" clip-path="url(#pe25966ddc2)" style="fill: none; stroke: #b0b0b0; stroke-opacity: 0.25; stroke-width: 0.8; stroke-linecap: square"/>
     </g>
     <g id="line2d_32">
      <g>
       <use xlink:href="#mae6ec51784" x="45.710313" y="289.565104" style="stroke: #000000; stroke-width: 0.8"/>
      </g>
     </g>
     <g id="text_6">
      <!-- $\mathdefault{10^{-1}}$ -->
      <g transform="translate(19.910312 292.604479) scale(0.08 -0.08)">
       <use xlink:href="#DejaVuSans-31" transform="translate(0 0.684375)"/>
       <use xlink:href="#DejaVuSans-30" transform="translate(63.623047 0.684375)"/>
       <use xlink:href="#DejaVuSans-2212" transform="translate(128.203125 38.965625) scale(0.7)"/>
       <use xlink:href="#DejaVuSans-31" transform="translate(186.855469 38.965625) scale(0.7)"/>
      </g>
     </g>
    </g>
    <g id="ytick_3">
     <g id="line2d_33">
      <path d="M 45.710313 212.530735 
L 649.19952 212.530735 
" clip-path="url(#pe25966ddc2)" style="fill: none; stroke: #b0b0b0; stroke-opacity: 0.25; stroke-width: 0.8; stroke-linecap: square"/>
     </g>
     <g id="line2d_34">
      <g>
       <use xlink:href="#mae6ec51784" x="45.710313" y="212.530735" style="stroke: #000000; stroke-width: 0.8"/>
      </g>
     </g>
     <g id="text_7">
      <!-- $\mathdefault{10^{0}}$ -->
      <g transform="translate(24.630313 215.57011) scale(0.08 -0.08)">
       <use xlink:href="#DejaVuSans-31" transform="translate(0 0.765625)"/>
       <use xlink:href="#DejaVuSans-30" transform="translate(63.623047 0.765625)"/>
       <use xlink:href="#DejaVuSans-30" transform="translate(128.203125 39.046875) scale(0.7)"/>
      </g>
     </g>
    </g>
    <g id="ytick_4">
     <g id="line2d_35">
      <path d="M 45.710313 135.496365 
L 649.19952 135.496365 
" clip-path="url(#pe25966ddc2)" style="fill: none; stroke: #b0b0b0; stroke-opacity: 0.25; stroke-width: 0.8; stroke-linecap: square"/>
     </g>
     <g id="line2d_36">
      <g>
       <use xlink:href="#mae6ec51784" x="45.710313" y="135.496365" style="stroke: #000000; stroke-width: 0.8"/>
      </g>
     </g>
     <g id="text_8">
      <!-- $\mathdefault{10^{1}}$ -->
      <g transform="translate(24.630313 138.53574) scale(0.08 -0.08)">
       <use xlink:href="#DejaVuSans-31" transform="translate(0 0.684375)"/>
       <use xlink:href="#DejaVuSans-30" transform="translate(63.623047 0.684375)"/>
       <use xlink:href="#DejaVuSans-31" transform="translate(128.203125 38.965625) scale(0.7)"/>
      </g>
     </g>
    </g>
    <g id="ytick_5">
     <g id="line2d_37">
      <path d="M 45.710313 58.461995 
L 649.19952 58.461995 
" clip-path="url(#pe25966ddc2)" style="fill: none; stroke: #b0b0b0; stroke-opacity: 0.25; stroke-width: 0.8; stroke-linecap: square"/>
     </g>
     <g id="line2d_38">
      <g>
       <use xlink:href="#mae6ec51784" x="45.710313" y="58.461995" style="stroke: #000000; stroke-width: 0.8"/>
      </g>
     </g>
     <g id="text_9">
      <!-- $\mathdefault{10^{2}}$ -->
      <g transform="translate(24.630313 61.50137) scale(0.08 -0.08)">
       <use xlink:href="#DejaVuSans-31" transform="translate(0 0.765625)"/>
       <use xlink:href="#DejaVuSans-30" transform="translate(63.623047 0.765625)"/>
       <use xlink:href="#DejaVuSans-32" transform="translate(128.203125 39.046875) scale(0.7)"/>
      </g>
     </g>
    </g>
    <g id="ytick_6">
     <g id="line2d_39">
      <defs>
       <path id="mae37102167" d="M 0 0 
L -2 0 
" style="stroke: #000000; stroke-width: 0.6"/>
      </defs>
      <g>
       <use xlink:href="#mae37102167" x="45.710313" y="343.409818" style="stroke: #000000; stroke-width: 0.6"/>
      </g>
     </g>
    </g>
    <g id="ytick_7">
     <g id="line2d_40">
      <g>
       <use xlink:href="#mae37102167" x="45.710313" y="329.844739" style="stroke: #000000; stroke-width: 0.6"/>
      </g>
     </g>
    </g>
    <g id="ytick_8">
     <g id="line2d_41">
      <g>
       <use xlink:href="#mae37102167" x="45.710313" y="320.220162" style="stroke: #000000; stroke-width: 0.6"/>
      </g>
     </g>
    </g>
    <g id="ytick_9">
     <g id="line2d_42">
      <g>
       <use xlink:href="#mae37102167" x="45.710313" y="312.75476" style="stroke: #000000; stroke-width: 0.6"/>
      </g>
     </g>
    </g>
    <g id="ytick_10">
     <g id="line2d_43">
      <g>
       <use xlink:href="#mae37102167" x="45.710313" y="306.655083" style="stroke: #000000; stroke-width: 0.6"/>
      </g>
     </g>
    </g>
    <g id="ytick_11">
     <g id="line2d_44">
      <g>
       <use xlink:href="#mae37102167" x="45.710313" y="301.497879" style="stroke: #000000; stroke-width: 0.6"/>
      </g>
     </g>
    </g>
    <g id="ytick_12">
     <g id="line2d_45">
      <g>
       <use xlink:href="#mae37102167" x="45.710313" y="297.030506" style="stroke: #000000; stroke-width: 0.6"/>
      </g>
     </g>
    </g>
    <g id="ytick_13">
     <g id="line2d_46">
      <g>
       <use xlink:href="#mae37102167" x="45.710313" y="293.090004" style="stroke: #000000; stroke-width: 0.6"/>
      </g>
     </g>
    </g>
    <g id="ytick_14">
     <g id="line2d_47">
      <g>
       <use xlink:href="#mae37102167" x="45.710313" y="266.375449" style="stroke: #000000; stroke-width: 0.6"/>
      </g>
     </g>
    </g>
    <g id="ytick_15">
     <g id="line2d_48">
      <g>
       <use xlink:href="#mae37102167" x="45.710313" y="252.810369" style="stroke: #000000; stroke-width: 0.6"/>
      </g>
     </g>
    </g>
    <g id="ytick_16">
     <g id="line2d_49">
      <g>
       <use xlink:href="#mae37102167" x="45.710313" y="243.185793" style="stroke: #000000; stroke-width: 0.6"/>
      </g>
     </g>
    </g>
    <g id="ytick_17">
     <g id="line2d_50">
      <g>
       <use xlink:href="#mae37102167" x="45.710313" y="235.720391" style="stroke: #000000; stroke-width: 0.6"/>
      </g>
     </g>
    </g>
    <g id="ytick_18">
     <g id="line2d_51">
      <g>
       <use xlink:href="#mae37102167" x="45.710313" y="229.620713" style="stroke: #000000; stroke-width: 0.6"/>
      </g>
     </g>
    </g>
    <g id="ytick_19">
     <g id="line2d_52">
      <g>
       <use xlink:href="#mae37102167" x="45.710313" y="224.46351" style="stroke: #000000; stroke-width: 0.6"/>
      </g>
     </g>
    </g>
    <g id="ytick_20">
     <g id="line2d_53">
      <g>
       <use xlink:href="#mae37102167" x="45.710313" y="219.996137" style="stroke: #000000; stroke-width: 0.6"/>
      </g>
     </g>
    </g>
    <g id="ytick_21">
     <g id="line2d_54">
      <g>
       <use xlink:href="#mae37102167" x="45.710313" y="216.055634" style="stroke: #000000; stroke-width: 0.6"/>
      </g>
     </g>
    </g>
    <g id="ytick_22">
     <g id="line2d_55">
      <g>
       <use xlink:href="#mae37102167" x="45.710313" y="189.341079" style="stroke: #000000; stroke-width: 0.6"/>
      </g>
     </g>
    </g>
    <g id="ytick_23">
     <g id="line2d_56">
      <g>
       <use xlink:href="#mae37102167" x="45.710313" y="175.776" style="stroke: #000000; stroke-width: 0.6"/>
      </g>
     </g>
    </g>
    <g id="ytick_24">
     <g id="line2d_57">
      <g>
       <use xlink:href="#mae37102167" x="45.710313" y="166.151423" style="stroke: #000000; stroke-width: 0.6"/>
      </g>
     </g>
    </g>
    <g id="ytick_25">
     <g id="line2d_58">
      <g>
       <use xlink:href="#mae37102167" x="45.710313" y="158.686021" style="stroke: #000000; stroke-width: 0.6"/>
      </g>
     </g>
    </g>
    <g id="ytick_26">
     <g id="line2d_59">
      <g>
       <use xlink:href="#mae37102167" x="45.710313" y="152.586344" style="stroke: #000000; stroke-width: 0.6"/>
      </g>
     </g>
    </g>
    <g id="ytick_27">
     <g id="line2d_60">
      <g>
       <use xlink:href="#mae37102167" x="45.710313" y="147.42914" style="stroke: #000000; stroke-width: 0.6"/>
      </g>
     </g>
    </g>
    <g id="ytick_28">
     <g id="line2d_61">
      <g>
       <use xlink:href="#mae37102167" x="45.710313" y="142.961767" style="stroke: #000000; stroke-width: 0.6"/>
      </g>
     </g>
    </g>
    <g id="ytick_29">
     <g id="line2d_62">
      <g>
       <use xlink:href="#mae37102167" x="45.710313" y="139.021265" style="stroke: #000000; stroke-width: 0.6"/>
      </g>
     </g>
    </g>
    <g id="ytick_30">
     <g id="line2d_63">
      <g>
       <use xlink:href="#mae37102167" x="45.710313" y="112.306709" style="stroke: #000000; stroke-width: 0.6"/>
      </g>
     </g>
    </g>
    <g id="ytick_31">
     <g id="line2d_64">
      <g>
       <use xlink:href="#mae37102167" x="45.710313" y="98.74163" style="stroke: #000000; stroke-width: 0.6"/>
      </g>
     </g>
    </g>
    <g id="ytick_32">
     <g id="line2d_65">
      <g>
       <use xlink:href="#mae37102167" x="45.710313" y="89.117053" style="stroke: #000000; stroke-width: 0.6"/>
      </g>
     </g>
    </g>
    <g id="ytick_33">
     <g id="line2d_66">
      <g>
       <use xlink:href="#mae37102167" x="45.710313" y="81.651651" style="stroke: #000000; stroke-width: 0.6"/>
      </g>
     </g>
    </g>
    <g id="ytick_34">
     <g id="line2d_67">
      <g>
       <use xlink:href="#mae37102167" x="45.710313" y="75.551974" style="stroke: #000000; stroke-width: 0.6"/>
      </g>
     </g>
    </g>
    <g id="ytick_35">
     <g id="line2d_68">
      <g>
       <use xlink:href="#mae37102167" x="45.710313" y="70.39477" style="stroke: #000000; stroke-width: 0.6"/>
      </g>
     </g>
    </g>
    <g id="ytick_36">
     <g id="line2d_69">
      <g>
       <use xlink:href="#mae37102167" x="45.710313" y="65.927397" style="stroke: #000000; stroke-width: 0.6"/>
      </g>
     </g>
    </g>
    <g id="ytick_37">
     <g id="line2d_70">
      <g>
       <use xlink:href="#mae37102167" x="45.710313" y="61.986895" style="stroke: #000000; stroke-width: 0.6"/>
      </g>
     </g>
    </g>
    <g id="ytick_38">
     <g id="line2d_71">
      <g>
       <use xlink:href="#mae37102167" x="45.710313" y="35.272339" style="stroke: #000000; stroke-width: 0.6"/>
      </g>
     </g>
    </g>
    <g id="ytick_39">
     <g id="line2d_72">
      <g>
       <use xlink:href="#mae37102167" x="45.710313" y="21.70726" style="stroke: #000000; stroke-width: 0.6"/>
      </g>
     </g>
    </g>
    <g id="text_10">
     <!-- runtime (s), lower is better -->
     <g transform="translate(14.038594 255.668901) rotate(-90) scale(0.09 -0.09)">
      <defs>
       <path id="DejaVuSans-72" d="M 2631 2963 
Q 2534 3019 2420 3045 
Q 2306 3072 2169 3072 
Q 1681 3072 1420 2755 
Q 1159 2438 1159 1844 
L 1159 0 
L 581 0 
L 581 3500 
L 1159 3500 
L 1159 2956 
Q 1341 3275 1631 3429 
Q 1922 3584 2338 3584 
Q 2397 3584 2469 3576 
Q 2541 3569 2628 3553 
L 2631 2963 
z
" transform="scale(0.015625)"/>
       <path id="DejaVuSans-75" d="M 544 1381 
L 544 3500 
L 1119 3500 
L 1119 1403 
Q 1119 906 1312 657 
Q 1506 409 1894 409 
Q 2359 409 2629 706 
Q 2900 1003 2900 1516 
L 2900 3500 
L 3475 3500 
L 3475 0 
L 2900 0 
L 2900 538 
Q 2691 219 2414 64 
Q 2138 -91 1772 -91 
Q 1169 -91 856 284 
Q 544 659 544 1381 
z
M 1991 3584 
L 1991 3584 
z
" transform="scale(0.015625)"/>
       <path id="DejaVuSans-6e" d="M 3513 2113 
L 3513 0 
L 2938 0 
L 2938 2094 
Q 2938 2591 2744 2837 
Q 2550 3084 2163 3084 
Q 1697 3084 1428 2787 
Q 1159 2491 1159 1978 
L 1159 0 
L 581 0 
L 581 3500 
L 1159 3500 
L 1159 2956 
Q 1366 3272 1645 3428 
Q 1925 3584 2291 3584 
Q 2894 3584 3203 3211 
Q 3513 2838 3513 2113 
z
" transform="scale(0.015625)"/>
       <path id="DejaVuSans-69" d="M 603 3500 
L 1178 3500 
L 1178 0 
L 603 0 
L 603 3500 
z
M 603 4863 
L 1178 4863 
L 1178 4134 
L 603 4134 
L 603 4863 
z
" transform="scale(0.015625)"/>
       <path id="DejaVuSans-65" d="M 3597 1894 
L 3597 1613 
L 953 1613 
Q 991 1019 1311 708 
Q 1631 397 2203 397 
Q 2534 397 2845 478 
Q 3156 559 3463 722 
L 3463 178 
Q 3153 47 2828 -22 
Q 2503 -91 2169 -91 
Q 1331 -91 842 396 
Q 353 884 353 1716 
Q 353 2575 817 3079 
Q 1281 3584 2069 3584 
Q 2775 3584 3186 3129 
Q 3597 2675 3597 1894 
z
M 3022 2063 
Q 3016 2534 2758 2815 
Q 2500 3097 2075 3097 
Q 1594 3097 1305 2825 
Q 1016 2553 972 2059 
L 3022 2063 
z
" transform="scale(0.015625)"/>
       <path id="DejaVuSans-20" transform="scale(0.015625)"/>
       <path id="DejaVuSans-28" d="M 1984 4856 
Q 1566 4138 1362 3434 
Q 1159 2731 1159 2009 
Q 1159 1288 1364 580 
Q 1569 -128 1984 -844 
L 1484 -844 
Q 1016 -109 783 600 
Q 550 1309 550 2009 
Q 550 2706 781 3412 
Q 1013 4119 1484 4856 
L 1984 4856 
z
" transform="scale(0.015625)"/>
       <path id="DejaVuSans-29" d="M 513 4856 
L 1013 4856 
Q 1481 4119 1714 3412 
Q 1947 2706 1947 2009 
Q 1947 1309 1714 600 
Q 1481 -109 1013 -844 
L 513 -844 
Q 928 -128 1133 580 
Q 1338 1288 1338 2009 
Q 1338 2731 1133 3434 
Q 928 4138 513 4856 
z
" transform="scale(0.015625)"/>
       <path id="DejaVuSans-2c" d="M 750 794 
L 1409 794 
L 1409 256 
L 897 -744 
L 494 -744 
L 750 256 
L 750 794 
z
" transform="scale(0.015625)"/>
       <path id="DejaVuSans-6c" d="M 603 4863 
L 1178 4863 
L 1178 0 
L 603 0 
L 603 4863 
z
" transform="scale(0.015625)"/>
       <path id="DejaVuSans-77" d="M 269 3500 
L 844 3500 
L 1563 769 
L 2278 3500 
L 2956 3500 
L 3675 769 
L 4391 3500 
L 4966 3500 
L 4050 0 
L 3372 0 
L 2619 2869 
L 1863 0 
L 1184 0 
L 269 3500 
z
" transform="scale(0.015625)"/>
       <path id="DejaVuSans-62" d="M 3116 1747 
Q 3116 2381 2855 2742 
Q 2594 3103 2138 3103 
Q 1681 3103 1420 2742 
Q 1159 2381 1159 1747 
Q 1159 1113 1420 752 
Q 1681 391 2138 391 
Q 2594 391 2855 752 
Q 3116 1113 3116 1747 
z
M 1159 2969 
Q 1341 3281 1617 3432 
Q 1894 3584 2278 3584 
Q 2916 3584 3314 3078 
Q 3713 2572 3713 1747 
Q 3713 922 3314 415 
Q 2916 -91 2278 -91 
Q 1894 -91 1617 61 
Q 1341 213 1159 525 
L 1159 0 
L 581 0 
L 581 4863 
L 1159 4863 
L 1159 2969 
z
" transform="scale(0.015625)"/>
      </defs>
      <use xlink:href="#DejaVuSans-72"/>
      <use xlink:href="#DejaVuSans-75" transform="translate(41.113281 0)"/>
      <use xlink:href="#DejaVuSans-6e" transform="translate(104.492188 0)"/>
      <use xlink:href="#DejaVuSans-74" transform="translate(167.871094 0)"/>
      <use xlink:href="#DejaVuSans-69" transform="translate(207.080078 0)"/>
      <use xlink:href="#DejaVuSans-6d" transform="translate(234.863281 0)"/>
      <use xlink:href="#DejaVuSans-65" transform="translate(332.275391 0)"/>
      <use xlink:href="#DejaVuSans-20" transform="translate(393.798828 0)"/>
      <use xlink:href="#DejaVuSans-28" transform="translate(425.585938 0)"/>
      <use xlink:href="#DejaVuSans-73" transform="translate(464.599609 0)"/>
      <use xlink:href="#DejaVuSans-29" transform="translate(516.699219 0)"/>
      <use xlink:href="#DejaVuSans-2c" transform="translate(555.712891 0)"/>
      <use xlink:href="#DejaVuSans-20" transform="translate(587.5 0)"/>
      <use xlink:href="#DejaVuSans-6c" transform="translate(619.287109 0)"/>
      <use xlink:href="#DejaVuSans-6f" transform="translate(647.070312 0)"/>
      <use xlink:href="#DejaVuSans-77" transform="translate(708.251953 0)"/>
      <use xlink:href="#DejaVuSans-65" transform="translate(790.039062 0)"/>
      <use xlink:href="#DejaVuSans-72" transform="translate(851.5625 0)"/>
      <use xlink:href="#DejaVuSans-20" transform="translate(892.675781 0)"/>
      <use xlink:href="#DejaVuSans-69" transform="translate(924.462891 0)"/>
      <use xlink:href="#DejaVuSans-73" transform="translate(952.246094 0)"/>
      <use xlink:href="#DejaVuSans-20" transform="translate(1004.345703 0)"/>
      <use xlink:href="#DejaVuSans-62" transform="translate(1036.132812 0)"/>
      <use xlink:href="#DejaVuSans-65" transform="translate(1099.609375 0)"/>
      <use xlink:href="#DejaVuSans-74" transform="translate(1161.132812 0)"/>
      <use xlink:href="#DejaVuSans-74" transform="translate(1200.341797 0)"/>
      <use xlink:href="#DejaVuSans-65" transform="translate(1239.550781 0)"/>
      <use xlink:href="#DejaVuSans-72" transform="translate(1301.074219 0)"/>
     </g>
    </g>
   </g>
   <g id="line2d_73">
    <path d="M 73.14164 353.885422 
L 99.717757 343.827618 
L 135.33019 334.32821 
L 145.411174 330.908692 
L 281.468544 297.417132 
L 320.279139 283.976263 
L 358.044075 260.59535 
L 621.768192 160.784545 
" clip-path="url(#pe25966ddc2)" style="fill: none; stroke: #f39c12; stroke-width: 1.4; stroke-linecap: square"/>
    <defs>
     <path id="m8baadd69d9" d="M 0 2.75 
C 0.729309 2.75 1.428845 2.460243 1.944544 1.944544 
C 2.460243 1.428845 2.75 0.729309 2.75 0 
C 2.75 -0.729309 2.460243 -1.428845 1.944544 -1.944544 
C 1.428845 -2.460243 0.729309 -2.75 0 -2.75 
C -0.729309 -2.75 -1.428845 -2.460243 -1.944544 -1.944544 
C -2.460243 -1.428845 -2.75 -0.729309 -2.75 0 
C -2.75 0.729309 -2.460243 1.428845 -1.944544 1.944544 
C -1.428845 2.460243 -0.729309 2.75 0 2.75 
z
" style="stroke: #f39c12"/>
    </defs>
    <g clip-path="url(#pe25966ddc2)">
     <use xlink:href="#m8baadd69d9" x="73.14164" y="353.885422" style="fill: #f39c12; stroke: #f39c12"/>
     <use xlink:href="#m8baadd69d9" x="99.717757" y="343.827618" style="fill: #f39c12; stroke: #f39c12"/>
     <use xlink:href="#m8baadd69d9" x="135.33019" y="334.32821" style="fill: #f39c12; stroke: #f39c12"/>
     <use xlink:href="#m8baadd69d9" x="145.411174" y="330.908692" style="fill: #f39c12; stroke: #f39c12"/>
     <use xlink:href="#m8baadd69d9" x="281.468544" y="297.417132" style="fill: #f39c12; stroke: #f39c12"/>
     <use xlink:href="#m8baadd69d9" x="320.279139" y="283.976263" style="fill: #f39c12; stroke: #f39c12"/>
     <use xlink:href="#m8baadd69d9" x="358.044075" y="260.59535" style="fill: #f39c12; stroke: #f39c12"/>
     <use xlink:href="#m8baadd69d9" x="621.768192" y="160.784545" style="fill: #f39c12; stroke: #f39c12"/>
    </g>
   </g>
   <g id="line2d_74">
    <path d="M 73.14164 352.872188 
L 99.717757 321.293086 
L 135.33019 336.550133 
L 145.411174 330.867037 
L 281.468544 297.17738 
L 320.279139 284.3223 
L 358.044075 260.938604 
L 621.768192 160.933341 
" clip-path="url(#pe25966ddc2)" style="fill: none; stroke: #f6c85f; stroke-width: 1.4; stroke-linecap: square"/>
    <defs>
     <path id="mff0c2817b3" d="M 0 2.75 
C 0.729309 2.75 1.428845 2.460243 1.944544 1.944544 
C 2.460243 1.428845 2.75 0.729309 2.75 0 
C 2.75 -0.729309 2.460243 -1.428845 1.944544 -1.944544 
C 1.428845 -2.460243 0.729309 -2.75 0 -2.75 
C -0.729309 -2.75 -1.428845 -2.460243 -1.944544 -1.944544 
C -2.460243 -1.428845 -2.75 -0.729309 -2.75 0 
C -2.75 0.729309 -2.460243 1.428845 -1.944544 1.944544 
C -1.428845 2.460243 -0.729309 2.75 0 2.75 
z
" style="stroke: #f6c85f"/>
    </defs>
    <g clip-path="url(#pe25966ddc2)">
     <use xlink:href="#mff0c2817b3" x="73.14164" y="352.872188" style="fill: #f6c85f; stroke: #f6c85f"/>
     <use xlink:href="#mff0c2817b3" x="99.717757" y="321.293086" style="fill: #f6c85f; stroke: #f6c85f"/>
     <use xlink:href="#mff0c2817b3" x="135.33019" y="336.550133" style="fill: #f6c85f; stroke: #f6c85f"/>
     <use xlink:href="#mff0c2817b3" x="145.411174" y="330.867037" style="fill: #f6c85f; stroke: #f6c85f"/>
     <use xlink:href="#mff0c2817b3" x="281.468544" y="297.17738" style="fill: #f6c85f; stroke: #f6c85f"/>
     <use xlink:href="#mff0c2817b3" x="320.279139" y="284.3223" style="fill: #f6c85f; stroke: #f6c85f"/>
     <use xlink:href="#mff0c2817b3" x="358.044075" y="260.938604" style="fill: #f6c85f; stroke: #f6c85f"/>
     <use xlink:href="#mff0c2817b3" x="621.768192" y="160.933341" style="fill: #f6c85f; stroke: #f6c85f"/>
    </g>
   </g>
   <g id="line2d_75">
    <path d="M 73.14164 296.621224 
L 99.717757 321.797021 
L 135.33019 325.762452 
L 145.411174 322.148799 
L 281.468544 300.227879 
L 320.279139 288.355705 
L 358.044075 266.836639 
L 621.768192 167.970481 
" clip-path="url(#pe25966ddc2)" style="fill: none; stroke: #e67e22; stroke-width: 1.4; stroke-linecap: square"/>
    <defs>
     <path id="m057a710738" d="M 0 2.75 
C 0.729309 2.75 1.428845 2.460243 1.944544 1.944544 
C 2.460243 1.428845 2.75 0.729309 2.75 0 
C 2.75 -0.729309 2.460243 -1.428845 1.944544 -1.944544 
C 1.428845 -2.460243 0.729309 -2.75 0 -2.75 
C -0.729309 -2.75 -1.428845 -2.460243 -1.944544 -1.944544 
C -2.460243 -1.428845 -2.75 -0.729309 -2.75 0 
C -2.75 0.729309 -2.460243 1.428845 -1.944544 1.944544 
C -1.428845 2.460243 -0.729309 2.75 0 2.75 
z
" style="stroke: #e67e22"/>
    </defs>
    <g clip-path="url(#pe25966ddc2)">
     <use xlink:href="#m057a710738" x="73.14164" y="296.621224" style="fill: #e67e22; stroke: #e67e22"/>
     <use xlink:href="#m057a710738" x="99.717757" y="321.797021" style="fill: #e67e22; stroke: #e67e22"/>
     <use xlink:href="#m057a710738" x="135.33019" y="325.762452" style="fill: #e67e22; stroke: #e67e22"/>
     <use xlink:href="#m057a710738" x="145.411174" y="322.148799" style="fill: #e67e22; stroke: #e67e22"/>
     <use xlink:href="#m057a710738" x="281.468544" y="300.227879" style="fill: #e67e22; stroke: #e67e22"/>
     <use xlink:href="#m057a710738" x="320.279139" y="288.355705" style="fill: #e67e22; stroke: #e67e22"/>
     <use xlink:href="#m057a710738" x="358.044075" y="266.836639" style="fill: #e67e22; stroke: #e67e22"/>
     <use xlink:href="#m057a710738" x="621.768192" y="167.970481" style="fill: #e67e22; stroke: #e67e22"/>
    </g>
   </g>
   <g id="line2d_76">
    <path d="M 73.14164 334.143314 
L 99.717757 330.092638 
L 135.33019 327.016249 
L 145.411174 321.717809 
L 281.468544 300.646209 
L 320.279139 288.845756 
L 358.044075 266.630439 
L 621.768192 167.909285 
" clip-path="url(#pe25966ddc2)" style="fill: none; stroke: #ffb347; stroke-width: 1.4; stroke-linecap: square"/>
    <defs>
     <path id="mb21112178b" d="M 0 2.75 
C 0.729309 2.75 1.428845 2.460243 1.944544 1.944544 
C 2.460243 1.428845 2.75 0.729309 2.75 0 
C 2.75 -0.729309 2.460243 -1.428845 1.944544 -1.944544 
C 1.428845 -2.460243 0.729309 -2.75 0 -2.75 
C -0.729309 -2.75 -1.428845 -2.460243 -1.944544 -1.944544 
C -2.460243 -1.428845 -2.75 -0.729309 -2.75 0 
C -2.75 0.729309 -2.460243 1.428845 -1.944544 1.944544 
C -1.428845 2.460243 -0.729309 2.75 0 2.75 
z
" style="stroke: #ffb347"/>
    </defs>
    <g clip-path="url(#pe25966ddc2)">
     <use xlink:href="#mb21112178b" x="73.14164" y="334.143314" style="fill: #ffb347; stroke: #ffb347"/>
     <use xlink:href="#mb21112178b" x="99.717757" y="330.092638" style="fill: #ffb347; stroke: #ffb347"/>
     <use xlink:href="#mb21112178b" x="135.33019" y="327.016249" style="fill: #ffb347; stroke: #ffb347"/>
     <use xlink:href="#mb21112178b" x="145.411174" y="321.717809" style="fill: #ffb347; stroke: #ffb347"/>
     <use xlink:href="#mb21112178b" x="281.468544" y="300.646209" style="fill: #ffb347; stroke: #ffb347"/>
     <use xlink:href="#mb21112178b" x="320.279139" y="288.845756" style="fill: #ffb347; stroke: #ffb347"/>
     <use xlink:href="#mb21112178b" x="358.044075" y="266.630439" style="fill: #ffb347; stroke: #ffb347"/>
     <use xlink:href="#mb21112178b" x="621.768192" y="167.909285" style="fill: #ffb347; stroke: #ffb347"/>
    </g>
   </g>
   <g id="line2d_77">
    <path d="M 73.14164 315.557133 
L 99.717757 323.26998 
L 135.33019 311.345707 
L 145.411174 305.696005 
L 281.468544 262.826582 
L 320.279139 123.882543 
L 358.044075 233.243089 
L 621.768192 36.659722 
" clip-path="url(#pe25966ddc2)" style="fill: none; stroke: #3498db; stroke-width: 1.4; stroke-linecap: square"/>
    <defs>
     <path id="mac83562755" d="M 0 -2.75 
L -2.75 2.75 
L 2.75 2.75 
z
" style="stroke: #3498db; stroke-linejoin: miter"/>
    </defs>
    <g clip-path="url(#pe25966ddc2)">
     <use xlink:href="#mac83562755" x="73.14164" y="315.557133" style="fill: #3498db; stroke: #3498db; stroke-linejoin: miter"/>
     <use xlink:href="#mac83562755" x="99.717757" y="323.26998" style="fill: #3498db; stroke: #3498db; stroke-linejoin: miter"/>
     <use xlink:href="#mac83562755" x="135.33019" y="311.345707" style="fill: #3498db; stroke: #3498db; stroke-linejoin: miter"/>
     <use xlink:href="#mac83562755" x="145.411174" y="305.696005" style="fill: #3498db; stroke: #3498db; stroke-linejoin: miter"/>
     <use xlink:href="#mac83562755" x="281.468544" y="262.826582" style="fill: #3498db; stroke: #3498db; stroke-linejoin: miter"/>
     <use xlink:href="#mac83562755" x="320.279139" y="123.882543" style="fill: #3498db; stroke: #3498db; stroke-linejoin: miter"/>
     <use xlink:href="#mac83562755" x="358.044075" y="233.243089" style="fill: #3498db; stroke: #3498db; stroke-linejoin: miter"/>
     <use xlink:href="#mac83562755" x="621.768192" y="36.659722" style="fill: #3498db; stroke: #3498db; stroke-linejoin: miter"/>
    </g>
   </g>
   <g id="line2d_78">
    <path d="M 73.14164 339.55157 
L 99.717757 326.181098 
L 135.33019 316.783295 
L 145.411174 312.376919 
L 281.468544 274.653602 
L 320.279139 261.231472 
L 358.044075 128.217793 
L 621.768192 140.036564 
" clip-path="url(#pe25966ddc2)" style="fill: none; stroke: #e74c3c; stroke-width: 1.4; stroke-linecap: square"/>
    <defs>
     <path id="m73901a17f8" d="M -2.75 2.75 
L 2.75 2.75 
L 2.75 -2.75 
L -2.75 -2.75 
z
" style="stroke: #e74c3c; stroke-linejoin: miter"/>
    </defs>
    <g clip-path="url(#pe25966ddc2)">
     <use xlink:href="#m73901a17f8" x="73.14164" y="339.55157" style="fill: #e74c3c; stroke: #e74c3c; stroke-linejoin: miter"/>
     <use xlink:href="#m73901a17f8" x="99.717757" y="326.181098" style="fill: #e74c3c; stroke: #e74c3c; stroke-linejoin: miter"/>
     <use xlink:href="#m73901a17f8" x="135.33019" y="316.783295" style="fill: #e74c3c; stroke: #e74c3c; stroke-linejoin: miter"/>
     <use xlink:href="#m73901a17f8" x="145.411174" y="312.376919" style="fill: #e74c3c; stroke: #e74c3c; stroke-linejoin: miter"/>
     <use xlink:href="#m73901a17f8" x="281.468544" y="274.653602" style="fill: #e74c3c; stroke: #e74c3c; stroke-linejoin: miter"/>
     <use xlink:href="#m73901a17f8" x="320.279139" y="261.231472" style="fill: #e74c3c; stroke: #e74c3c; stroke-linejoin: miter"/>
     <use xlink:href="#m73901a17f8" x="358.044075" y="128.217793" style="fill: #e74c3c; stroke: #e74c3c; stroke-linejoin: miter"/>
     <use xlink:href="#m73901a17f8" x="621.768192" y="140.036564" style="fill: #e74c3c; stroke: #e74c3c; stroke-linejoin: miter"/>
    </g>
   </g>
   <g id="patch_3">
    <path d="M 45.710313 369.746707 
L 45.710313 20.798437 
" style="fill: none; stroke: #000000; stroke-width: 0.8; stroke-linejoin: miter; stroke-linecap: square"/>
   </g>
   <g id="patch_4">
    <path d="M 45.710312 369.746707 
L 649.19952 369.746707 
" style="fill: none; stroke: #000000; stroke-width: 0.8; stroke-linejoin: miter; stroke-linecap: square"/>
   </g>
   <g id="text_11">
    <!-- Single-file runtime vs atoms at 10 threads -->
    <g transform="translate(241.940072 14.798437) scale(0.1 -0.1)">
     <defs>
      <path id="DejaVuSans-53" d="M 3425 4513 
L 3425 3897 
Q 3066 4069 2747 4153 
Q 2428 4238 2131 4238 
Q 1616 4238 1336 4038 
Q 1056 3838 1056 3469 
Q 1056 3159 1242 3001 
Q 1428 2844 1947 2747 
L 2328 2669 
Q 3034 2534 3370 2195 
Q 3706 1856 3706 1288 
Q 3706 609 3251 259 
Q 2797 -91 1919 -91 
Q 1588 -91 1214 -16 
Q 841 59 441 206 
L 441 856 
Q 825 641 1194 531 
Q 1563 422 1919 422 
Q 2459 422 2753 634 
Q 3047 847 3047 1241 
Q 3047 1584 2836 1778 
Q 2625 1972 2144 2069 
L 1759 2144 
Q 1053 2284 737 2584 
Q 422 2884 422 3419 
Q 422 4038 858 4394 
Q 1294 4750 2059 4750 
Q 2388 4750 2728 4690 
Q 3069 4631 3425 4513 
z
" transform="scale(0.015625)"/>
      <path id="DejaVuSans-67" d="M 2906 1791 
Q 2906 2416 2648 2759 
Q 2391 3103 1925 3103 
Q 1463 3103 1205 2759 
Q 947 2416 947 1791 
Q 947 1169 1205 825 
Q 1463 481 1925 481 
Q 2391 481 2648 825 
Q 2906 1169 2906 1791 
z
M 3481 434 
Q 3481 -459 3084 -895 
Q 2688 -1331 1869 -1331 
Q 1566 -1331 1297 -1286 
Q 1028 -1241 775 -1147 
L 775 -588 
Q 1028 -725 1275 -790 
Q 1522 -856 1778 -856 
Q 2344 -856 2625 -561 
Q 2906 -266 2906 331 
L 2906 616 
Q 2728 306 2450 153 
Q 2172 0 1784 0 
Q 1141 0 747 490 
Q 353 981 353 1791 
Q 353 2603 747 3093 
Q 1141 3584 1784 3584 
Q 2172 3584 2450 3431 
Q 2728 3278 2906 2969 
L 2906 3500 
L 3481 3500 
L 3481 434 
z
" transform="scale(0.015625)"/>
      <path id="DejaVuSans-2d" d="M 313 2009 
L 1997 2009 
L 1997 1497 
L 313 1497 
L 313 2009 
z
" transform="scale(0.015625)"/>
      <path id="DejaVuSans-66" d="M 2375 4863 
L 2375 4384 
L 1825 4384 
Q 1516 4384 1395 4259 
Q 1275 4134 1275 3809 
L 1275 3500 
L 2222 3500 
L 2222 3053 
L 1275 3053 
L 1275 0 
L 697 0 
L 697 3053 
L 147 3053 
L 147 3500 
L 697 3500 
L 697 3744 
Q 697 4328 969 4595 
Q 1241 4863 1831 4863 
L 2375 4863 
z
" transform="scale(0.015625)"/>
      <path id="DejaVuSans-76" d="M 191 3500 
L 800 3500 
L 1894 563 
L 2988 3500 
L 3597 3500 
L 2284 0 
L 1503 0 
L 191 3500 
z
" transform="scale(0.015625)"/>
      <path id="DejaVuSans-68" d="M 3513 2113 
L 3513 0 
L 2938 0 
L 2938 2094 
Q 2938 2591 2744 2837 
Q 2550 3084 2163 3084 
Q 1697 3084 1428 2787 
Q 1159 2491 1159 1978 
L 1159 0 
L 581 0 
L 581 4863 
L 1159 4863 
L 1159 2956 
Q 1366 3272 1645 3428 
Q 1925 3584 2291 3584 
Q 2894 3584 3203 3211 
Q 3513 2838 3513 2113 
z
" transform="scale(0.015625)"/>
      <path id="DejaVuSans-64" d="M 2906 2969 
L 2906 4863 
L 3481 4863 
L 3481 0 
L 2906 0 
L 2906 525 
Q 2725 213 2448 61 
Q 2172 -91 1784 -91 
Q 1150 -91 751 415 
Q 353 922 353 1747 
Q 353 2572 751 3078 
Q 1150 3584 1784 3584 
Q 2172 3584 2448 3432 
Q 2725 3281 2906 2969 
z
M 947 1747 
Q 947 1113 1208 752 
Q 1469 391 1925 391 
Q 2381 391 2643 752 
Q 2906 1113 2906 1747 
Q 2906 2381 2643 2742 
Q 2381 3103 1925 3103 
Q 1469 3103 1208 2742 
Q 947 2381 947 1747 
z
" transform="scale(0.015625)"/>
     </defs>
     <use xlink:href="#DejaVuSans-53"/>
     <use xlink:href="#DejaVuSans-69" transform="translate(63.476562 0)"/>
     <use xlink:href="#DejaVuSans-6e" transform="translate(91.259766 0)"/>
     <use xlink:href="#DejaVuSans-67" transform="translate(154.638672 0)"/>
     <use xlink:href="#DejaVuSans-6c" transform="translate(218.115234 0)"/>
     <use xlink:href="#DejaVuSans-65" transform="translate(245.898438 0)"/>
     <use xlink:href="#DejaVuSans-2d" transform="translate(307.421875 0)"/>
     <use xlink:href="#DejaVuSans-66" transform="translate(343.505859 0)"/>
     <use xlink:href="#DejaVuSans-69" transform="translate(378.710938 0)"/>
     <use xlink:href="#DejaVuSans-6c" transform="translate(406.494141 0)"/>
     <use xlink:href="#DejaVuSans-65" transform="translate(434.277344 0)"/>
     <use xlink:href="#DejaVuSans-20" transform="translate(495.800781 0)"/>
     <use xlink:href="#DejaVuSans-72" transform="translate(527.587891 0)"/>
     <use xlink:href="#DejaVuSans-75" transform="translate(568.701172 0)"/>
     <use xlink:href="#DejaVuSans-6e" transform="translate(632.080078 0)"/>
     <use xlink:href="#DejaVuSans-74" transform="translate(695.458984 0)"/>
     <use xlink:href="#DejaVuSans-69" transform="translate(734.667969 0)"/>
     <use xlink:href="#DejaVuSans-6d" transform="translate(762.451172 0)"/>
     <use xlink:href="#DejaVuSans-65" transform="translate(859.863281 0)"/>
     <use xlink:href="#DejaVuSans-20" transform="translate(921.386719 0)"/>
     <use xlink:href="#DejaVuSans-76" transform="translate(953.173828 0)"/>
     <use xlink:href="#DejaVuSans-73" transform="translate(1012.353516 0)"/>
     <use xlink:href="#DejaVuSans-20" transform="translate(1064.453125 0)"/>
     <use xlink:href="#DejaVuSans-61" transform="translate(1096.240234 0)"/>
     <use xlink:href="#DejaVuSans-74" transform="translate(1157.519531 0)"/>
     <use xlink:href="#DejaVuSans-6f" transform="translate(1196.728516 0)"/>
     <use xlink:href="#DejaVuSans-6d" transform="translate(1257.910156 0)"/>
     <use xlink:href="#DejaVuSans-73" transform="translate(1355.322266 0)"/>
     <use xlink:href="#DejaVuSans-20" transform="translate(1407.421875 0)"/>
     <use xlink:href="#DejaVuSans-61" transform="translate(1439.208984 0)"/>
     <use xlink:href="#DejaVuSans-74" transform="translate(1500.488281 0)"/>
     <use xlink:href="#DejaVuSans-20" transform="translate(1539.697266 0)"/>
     <use xlink:href="#DejaVuSans-31" transform="translate(1571.484375 0)"/>
     <use xlink:href="#DejaVuSans-30" transform="translate(1635.107422 0)"/>
     <use xlink:href="#DejaVuSans-20" transform="translate(1698.730469 0)"/>
     <use xlink:href="#DejaVuSans-74" transform="translate(1730.517578 0)"/>
     <use xlink:href="#DejaVuSans-68" transform="translate(1769.726562 0)"/>
     <use xlink:href="#DejaVuSans-72" transform="translate(1833.105469 0)"/>
     <use xlink:href="#DejaVuSans-65" transform="translate(1871.96875 0)"/>
     <use xlink:href="#DejaVuSans-61" transform="translate(1933.492188 0)"/>
     <use xlink:href="#DejaVuSans-64" transform="translate(1994.771484 0)"/>
     <use xlink:href="#DejaVuSans-73" transform="translate(2058.248047 0)"/>
    </g>
   </g>
   <g id="legend_1">
    <g id="patch_5">
     <path d="M 51.310313 62.425937 
L 260.015312 62.425937 
Q 261.615312 62.425937 261.615312 60.825937 
L 261.615312 26.398437 
Q 261.615312 24.798437 260.015312 24.798437 
L 51.310313 24.798437 
Q 49.710313 24.798437 49.710313 26.398437 
L 49.710313 60.825937 
Q 49.710313 62.425937 51.310313 62.425937 
z
" style="fill: #ffffff; opacity: 0.8; stroke: #cccccc; stroke-linejoin: miter"/>
    </g>
    <g id="line2d_79">
     <path d="M 52.910313 31.277187 
L 60.910313 31.277187 
L 68.910313 31.277187 
" style="fill: none; stroke: #f39c12; stroke-width: 1.4; stroke-linecap: square"/>
     <g>
      <use xlink:href="#m8baadd69d9" x="60.910313" y="31.277187" style="fill: #f39c12; stroke: #f39c12"/>
     </g>
    </g>
    <g id="text_12">
     <!-- zsasa f64 -->
     <g transform="translate(75.310313 34.077187) scale(0.08 -0.08)">
      <defs>
       <path id="DejaVuSans-7a" d="M 353 3500 
L 3084 3500 
L 3084 2975 
L 922 459 
L 3084 459 
L 3084 0 
L 275 0 
L 275 525 
L 2438 3041 
L 353 3041 
L 353 3500 
z
" transform="scale(0.015625)"/>
      </defs>
      <use xlink:href="#DejaVuSans-7a"/>
      <use xlink:href="#DejaVuSans-73" transform="translate(52.490234 0)"/>
      <use xlink:href="#DejaVuSans-61" transform="translate(104.589844 0)"/>
      <use xlink:href="#DejaVuSans-73" transform="translate(165.869141 0)"/>
      <use xlink:href="#DejaVuSans-61" transform="translate(217.96875 0)"/>
      <use xlink:href="#DejaVuSans-20" transform="translate(279.248047 0)"/>
      <use xlink:href="#DejaVuSans-66" transform="translate(311.035156 0)"/>
      <use xlink:href="#DejaVuSans-36" transform="translate(346.240234 0)"/>
      <use xlink:href="#DejaVuSans-34" transform="translate(409.863281 0)"/>
     </g>
    </g>
    <g id="line2d_80">
     <path d="M 52.910313 43.019687 
L 60.910313 43.019687 
L 68.910313 43.019687 
" style="fill: none; stroke: #f6c85f; stroke-width: 1.4; stroke-linecap: square"/>
     <g>
      <use xlink:href="#mff0c2817b3" x="60.910313" y="43.019687" style="fill: #f6c85f; stroke: #f6c85f"/>
     </g>
    </g>
    <g id="text_13">
     <!-- zsasa f32 -->
     <g transform="translate(75.310313 45.819687) scale(0.08 -0.08)">
      <defs>
       <path id="DejaVuSans-33" d="M 2597 2516 
Q 3050 2419 3304 2112 
Q 3559 1806 3559 1356 
Q 3559 666 3084 287 
Q 2609 -91 1734 -91 
Q 1441 -91 1130 -33 
Q 819 25 488 141 
L 488 750 
Q 750 597 1062 519 
Q 1375 441 1716 441 
Q 2309 441 2620 675 
Q 2931 909 2931 1356 
Q 2931 1769 2642 2001 
Q 2353 2234 1838 2234 
L 1294 2234 
L 1294 2753 
L 1863 2753 
Q 2328 2753 2575 2939 
Q 2822 3125 2822 3475 
Q 2822 3834 2567 4026 
Q 2313 4219 1838 4219 
Q 1578 4219 1281 4162 
Q 984 4106 628 3988 
L 628 4550 
Q 988 4650 1302 4700 
Q 1616 4750 1894 4750 
Q 2613 4750 3031 4423 
Q 3450 4097 3450 3541 
Q 3450 3153 3228 2886 
Q 3006 2619 2597 2516 
z
" transform="scale(0.015625)"/>
      </defs>
      <use xlink:href="#DejaVuSans-7a"/>
      <use xlink:href="#DejaVuSans-73" transform="translate(52.490234 0)"/>
      <use xlink:href="#DejaVuSans-61" transform="translate(104.589844 0)"/>
      <use xlink:href="#DejaVuSans-73" transform="translate(165.869141 0)"/>
      <use xlink:href="#DejaVuSans-61" transform="translate(217.96875 0)"/>
      <use xlink:href="#DejaVuSans-20" transform="translate(279.248047 0)"/>
      <use xlink:href="#DejaVuSans-66" transform="translate(311.035156 0)"/>
      <use xlink:href="#DejaVuSans-33" transform="translate(346.240234 0)"/>
      <use xlink:href="#DejaVuSans-32" transform="translate(409.863281 0)"/>
     </g>
    </g>
    <g id="line2d_81">
     <path d="M 52.910313 54.762187 
L 60.910313 54.762187 
L 68.910313 54.762187 
" style="fill: none; stroke: #e67e22; stroke-width: 1.4; stroke-linecap: square"/>
     <g>
      <use xlink:href="#m057a710738" x="60.910313" y="54.762187" style="fill: #e67e22; stroke: #e67e22"/>
     </g>
    </g>
    <g id="text_14">
     <!-- zsasa bitmask f64 -->
     <g transform="translate(75.310313 57.562187) scale(0.08 -0.08)">
      <defs>
       <path id="DejaVuSans-6b" d="M 581 4863 
L 1159 4863 
L 1159 1991 
L 2875 3500 
L 3609 3500 
L 1753 1863 
L 3688 0 
L 2938 0 
L 1159 1709 
L 1159 0 
L 581 0 
L 581 4863 
z
" transform="scale(0.015625)"/>
      </defs>
      <use xlink:href="#DejaVuSans-7a"/>
      <use xlink:href="#DejaVuSans-73" transform="translate(52.490234 0)"/>
      <use xlink:href="#DejaVuSans-61" transform="translate(104.589844 0)"/>
      <use xlink:href="#DejaVuSans-73" transform="translate(165.869141 0)"/>
      <use xlink:href="#DejaVuSans-61" transform="translate(217.96875 0)"/>
      <use xlink:href="#DejaVuSans-20" transform="translate(279.248047 0)"/>
      <use xlink:href="#DejaVuSans-62" transform="translate(311.035156 0)"/>
      <use xlink:href="#DejaVuSans-69" transform="translate(374.511719 0)"/>
      <use xlink:href="#DejaVuSans-74" transform="translate(402.294922 0)"/>
      <use xlink:href="#DejaVuSans-6d" transform="translate(441.503906 0)"/>
      <use xlink:href="#DejaVuSans-61" transform="translate(538.916016 0)"/>
      <use xlink:href="#DejaVuSans-73" transform="translate(600.195312 0)"/>
      <use xlink:href="#DejaVuSans-6b" transform="translate(652.294922 0)"/>
      <use xlink:href="#DejaVuSans-20" transform="translate(710.205078 0)"/>
      <use xlink:href="#DejaVuSans-66" transform="translate(741.992188 0)"/>
      <use xlink:href="#DejaVuSans-36" transform="translate(777.197266 0)"/>
      <use xlink:href="#DejaVuSans-34" transform="translate(840.820312 0)"/>
     </g>
    </g>
    <g id="line2d_82">
     <path d="M 163.662813 31.277187 
L 171.662813 31.277187 
L 179.662813 31.277187 
" style="fill: none; stroke: #ffb347; stroke-width: 1.4; stroke-linecap: square"/>
     <g>
      <use xlink:href="#mb21112178b" x="171.662813" y="31.277187" style="fill: #ffb347; stroke: #ffb347"/>
     </g>
    </g>
    <g id="text_15">
     <!-- zsasa bitmask f32 -->
     <g transform="translate(186.062813 34.077187) scale(0.08 -0.08)">
      <use xlink:href="#DejaVuSans-7a"/>
      <use xlink:href="#DejaVuSans-73" transform="translate(52.490234 0)"/>
      <use xlink:href="#DejaVuSans-61" transform="translate(104.589844 0)"/>
      <use xlink:href="#DejaVuSans-73" transform="translate(165.869141 0)"/>
      <use xlink:href="#DejaVuSans-61" transform="translate(217.96875 0)"/>
      <use xlink:href="#DejaVuSans-20" transform="translate(279.248047 0)"/>
      <use xlink:href="#DejaVuSans-62" transform="translate(311.035156 0)"/>
      <use xlink:href="#DejaVuSans-69" transform="translate(374.511719 0)"/>
      <use xlink:href="#DejaVuSans-74" transform="translate(402.294922 0)"/>
      <use xlink:href="#DejaVuSans-6d" transform="translate(441.503906 0)"/>
      <use xlink:href="#DejaVuSans-61" transform="translate(538.916016 0)"/>
      <use xlink:href="#DejaVuSans-73" transform="translate(600.195312 0)"/>
      <use xlink:href="#DejaVuSans-6b" transform="translate(652.294922 0)"/>
      <use xlink:href="#DejaVuSans-20" transform="translate(710.205078 0)"/>
      <use xlink:href="#DejaVuSans-66" transform="translate(741.992188 0)"/>
      <use xlink:href="#DejaVuSans-33" transform="translate(777.197266 0)"/>
      <use xlink:href="#DejaVuSans-32" transform="translate(840.820312 0)"/>
     </g>
    </g>
    <g id="line2d_83">
     <path d="M 163.662813 43.019687 
L 171.662813 43.019687 
L 179.662813 43.019687 
" style="fill: none; stroke: #3498db; stroke-width: 1.4; stroke-linecap: square"/>
     <g>
      <use xlink:href="#mac83562755" x="171.662813" y="43.019687" style="fill: #3498db; stroke: #3498db; stroke-linejoin: miter"/>
     </g>
    </g>
    <g id="text_16">
     <!-- FreeSASA -->
     <g transform="translate(186.062813 45.819687) scale(0.08 -0.08)">
      <defs>
       <path id="DejaVuSans-46" d="M 628 4666 
L 3309 4666 
L 3309 4134 
L 1259 4134 
L 1259 2759 
L 3109 2759 
L 3109 2228 
L 1259 2228 
L 1259 0 
L 628 0 
L 628 4666 
z
" transform="scale(0.015625)"/>
       <path id="DejaVuSans-41" d="M 2188 4044 
L 1331 1722 
L 3047 1722 
L 2188 4044 
z
M 1831 4666 
L 2547 4666 
L 4325 0 
L 3669 0 
L 3244 1197 
L 1141 1197 
L 716 0 
L 50 0 
L 1831 4666 
z
" transform="scale(0.015625)"/>
      </defs>
      <use xlink:href="#DejaVuSans-46"/>
      <use xlink:href="#DejaVuSans-72" transform="translate(50.269531 0)"/>
      <use xlink:href="#DejaVuSans-65" transform="translate(89.132812 0)"/>
      <use xlink:href="#DejaVuSans-65" transform="translate(150.65625 0)"/>
      <use xlink:href="#DejaVuSans-53" transform="translate(212.179688 0)"/>
      <use xlink:href="#DejaVuSans-41" transform="translate(277.53125 0)"/>
      <use xlink:href="#DejaVuSans-53" transform="translate(345.939453 0)"/>
      <use xlink:href="#DejaVuSans-41" transform="translate(411.291016 0)"/>
     </g>
    </g>
    <g id="line2d_84">
     <path d="M 163.662813 54.762187 
L 171.662813 54.762187 
L 179.662813 54.762187 
" style="fill: none; stroke: #e74c3c; stroke-width: 1.4; stroke-linecap: square"/>
     <g>
      <use xlink:href="#m73901a17f8" x="171.662813" y="54.762187" style="fill: #e74c3c; stroke: #e74c3c; stroke-linejoin: miter"/>
     </g>
    </g>
    <g id="text_17">
     <!-- RustSASA -->
     <g transform="translate(186.062813 57.562187) scale(0.08 -0.08)">
      <defs>
       <path id="DejaVuSans-52" d="M 2841 2188 
Q 3044 2119 3236 1894 
Q 3428 1669 3622 1275 
L 4263 0 
L 3584 0 
L 2988 1197 
Q 2756 1666 2539 1819 
Q 2322 1972 1947 1972 
L 1259 1972 
L 1259 0 
L 628 0 
L 628 4666 
L 2053 4666 
Q 2853 4666 3247 4331 
Q 3641 3997 3641 3322 
Q 3641 2881 3436 2590 
Q 3231 2300 2841 2188 
z
M 1259 4147 
L 1259 2491 
L 2053 2491 
Q 2509 2491 2742 2702 
Q 2975 2913 2975 3322 
Q 2975 3731 2742 3939 
Q 2509 4147 2053 4147 
L 1259 4147 
z
" transform="scale(0.015625)"/>
      </defs>
      <use xlink:href="#DejaVuSans-52"/>
      <use xlink:href="#DejaVuSans-75" transform="translate(64.982422 0)"/>
      <use xlink:href="#DejaVuSans-73" transform="translate(128.361328 0)"/>
      <use xlink:href="#DejaVuSans-74" transform="translate(180.460938 0)"/>
      <use xlink:href="#DejaVuSans-53" transform="translate(219.669922 0)"/>
      <use xlink:href="#DejaVuSans-41" transform="translate(285.021484 0)"/>
      <use xlink:href="#DejaVuSans-53" transform="translate(353.429688 0)"/>
      <use xlink:href="#DejaVuSans-41" transform="translate(418.78125 0)"/>
     </g>
    </g>
   </g>
  </g>
 </g>
 <defs>
  <clipPath id="pe25966ddc2">
   <rect x="45.710313" y="20.798437" width="603.489208" height="348.94827"/>
  </clipPath>
 </defs>
</svg>
